G04 #@! TF.GenerationSoftware,KiCad,Pcbnew,5.1.7-a382d34a8~87~ubuntu20.04.1*
G04 #@! TF.CreationDate,2020-11-19T22:53:55+01:00*
G04 #@! TF.ProjectId,HTL Netzger_t,48544c20-4e65-4747-9a67-6572e4742e6b,V2.1*
G04 #@! TF.SameCoordinates,PX4b045ecPY8378e28*
G04 #@! TF.FileFunction,Legend,Top*
G04 #@! TF.FilePolarity,Positive*
%FSLAX46Y46*%
G04 Gerber Fmt 4.6, Leading zero omitted, Abs format (unit mm)*
G04 Created by KiCad (PCBNEW 5.1.7-a382d34a8~87~ubuntu20.04.1) date 2020-11-19 22:53:55*
%MOMM*%
%LPD*%
G01*
G04 APERTURE LIST*
%ADD10C,0.400000*%
%ADD11C,0.300000*%
%ADD12C,0.120000*%
%ADD13C,0.700000*%
%ADD14C,0.150000*%
G04 APERTURE END LIST*
D10*
X21908333Y2635239D02*
X21908333Y4635239D01*
X21908333Y3682858D02*
X23051190Y3682858D01*
X23051190Y2635239D02*
X23051190Y4635239D01*
X23717857Y4635239D02*
X24860714Y4635239D01*
X24289285Y2635239D02*
X24289285Y4635239D01*
X26479761Y2635239D02*
X25527380Y2635239D01*
X25527380Y4635239D01*
X28575000Y2730477D02*
X28860714Y2635239D01*
X29336904Y2635239D01*
X29527380Y2730477D01*
X29622619Y2825715D01*
X29717857Y3016191D01*
X29717857Y3206667D01*
X29622619Y3397143D01*
X29527380Y3492381D01*
X29336904Y3587620D01*
X28955952Y3682858D01*
X28765476Y3778096D01*
X28670238Y3873334D01*
X28575000Y4063810D01*
X28575000Y4254286D01*
X28670238Y4444762D01*
X28765476Y4540000D01*
X28955952Y4635239D01*
X29432142Y4635239D01*
X29717857Y4540000D01*
X30289285Y3968572D02*
X31051190Y3968572D01*
X30575000Y4635239D02*
X30575000Y2920953D01*
X30670238Y2730477D01*
X30860714Y2635239D01*
X31051190Y2635239D01*
X32479761Y2730477D02*
X32289285Y2635239D01*
X31908333Y2635239D01*
X31717857Y2730477D01*
X31622619Y2920953D01*
X31622619Y3682858D01*
X31717857Y3873334D01*
X31908333Y3968572D01*
X32289285Y3968572D01*
X32479761Y3873334D01*
X32575000Y3682858D01*
X32575000Y3492381D01*
X31622619Y3301905D01*
X33241666Y3968572D02*
X33717857Y2635239D01*
X34194047Y3968572D02*
X33717857Y2635239D01*
X33527380Y2159048D01*
X33432142Y2063810D01*
X33241666Y1968572D01*
X34955952Y2635239D02*
X34955952Y3968572D01*
X34955952Y3587620D02*
X35051190Y3778096D01*
X35146428Y3873334D01*
X35336904Y3968572D01*
X35527380Y3968572D01*
X63136190Y61280239D02*
X63136190Y63280239D01*
X63136190Y62327858D02*
X64279047Y62327858D01*
X64279047Y61280239D02*
X64279047Y63280239D01*
X64945714Y63280239D02*
X66088571Y63280239D01*
X65517142Y61280239D02*
X65517142Y63280239D01*
X67707619Y61280239D02*
X66755238Y61280239D01*
X66755238Y63280239D01*
X68374285Y62042143D02*
X69898095Y62042143D01*
X70850476Y61280239D02*
X70850476Y63280239D01*
X71993333Y61280239D01*
X71993333Y63280239D01*
X73707619Y61375477D02*
X73517142Y61280239D01*
X73136190Y61280239D01*
X72945714Y61375477D01*
X72850476Y61565953D01*
X72850476Y62327858D01*
X72945714Y62518334D01*
X73136190Y62613572D01*
X73517142Y62613572D01*
X73707619Y62518334D01*
X73802857Y62327858D01*
X73802857Y62137381D01*
X72850476Y61946905D01*
X74374285Y62613572D02*
X75136190Y62613572D01*
X74660000Y63280239D02*
X74660000Y61565953D01*
X74755238Y61375477D01*
X74945714Y61280239D01*
X75136190Y61280239D01*
X75612380Y62613572D02*
X76660000Y62613572D01*
X75612380Y61280239D01*
X76660000Y61280239D01*
X78279047Y62613572D02*
X78279047Y60994524D01*
X78183809Y60804048D01*
X78088571Y60708810D01*
X77898095Y60613572D01*
X77612380Y60613572D01*
X77421904Y60708810D01*
X78279047Y61375477D02*
X78088571Y61280239D01*
X77707619Y61280239D01*
X77517142Y61375477D01*
X77421904Y61470715D01*
X77326666Y61661191D01*
X77326666Y62232620D01*
X77421904Y62423096D01*
X77517142Y62518334D01*
X77707619Y62613572D01*
X78088571Y62613572D01*
X78279047Y62518334D01*
X79993333Y61375477D02*
X79802857Y61280239D01*
X79421904Y61280239D01*
X79231428Y61375477D01*
X79136190Y61565953D01*
X79136190Y62327858D01*
X79231428Y62518334D01*
X79421904Y62613572D01*
X79802857Y62613572D01*
X79993333Y62518334D01*
X80088571Y62327858D01*
X80088571Y62137381D01*
X79136190Y61946905D01*
X80945714Y61280239D02*
X80945714Y62613572D01*
X80945714Y62232620D02*
X81040952Y62423096D01*
X81136190Y62518334D01*
X81326666Y62613572D01*
X81517142Y62613572D01*
X83040952Y61280239D02*
X83040952Y62327858D01*
X82945714Y62518334D01*
X82755238Y62613572D01*
X82374285Y62613572D01*
X82183809Y62518334D01*
X83040952Y61375477D02*
X82850476Y61280239D01*
X82374285Y61280239D01*
X82183809Y61375477D01*
X82088571Y61565953D01*
X82088571Y61756429D01*
X82183809Y61946905D01*
X82374285Y62042143D01*
X82850476Y62042143D01*
X83040952Y62137381D01*
X82183809Y63280239D02*
X82279047Y63185000D01*
X82183809Y63089762D01*
X82088571Y63185000D01*
X82183809Y63280239D01*
X82183809Y63089762D01*
X82945714Y63280239D02*
X83040952Y63185000D01*
X82945714Y63089762D01*
X82850476Y63185000D01*
X82945714Y63280239D01*
X82945714Y63089762D01*
X83707619Y62613572D02*
X84469523Y62613572D01*
X83993333Y63280239D02*
X83993333Y61565953D01*
X84088571Y61375477D01*
X84279047Y61280239D01*
X84469523Y61280239D01*
X60660000Y57880239D02*
X60660000Y59880239D01*
X60660000Y58927858D02*
X61802857Y58927858D01*
X61802857Y57880239D02*
X61802857Y59880239D01*
X63612380Y57880239D02*
X63612380Y58927858D01*
X63517142Y59118334D01*
X63326666Y59213572D01*
X62945714Y59213572D01*
X62755238Y59118334D01*
X63612380Y57975477D02*
X63421904Y57880239D01*
X62945714Y57880239D01*
X62755238Y57975477D01*
X62660000Y58165953D01*
X62660000Y58356429D01*
X62755238Y58546905D01*
X62945714Y58642143D01*
X63421904Y58642143D01*
X63612380Y58737381D01*
X65421904Y59213572D02*
X65421904Y57880239D01*
X64564761Y59213572D02*
X64564761Y58165953D01*
X64660000Y57975477D01*
X64850476Y57880239D01*
X65136190Y57880239D01*
X65326666Y57975477D01*
X65421904Y58070715D01*
X66374285Y59213572D02*
X66374285Y57213572D01*
X66374285Y59118334D02*
X66564761Y59213572D01*
X66945714Y59213572D01*
X67136190Y59118334D01*
X67231428Y59023096D01*
X67326666Y58832620D01*
X67326666Y58261191D01*
X67231428Y58070715D01*
X67136190Y57975477D01*
X66945714Y57880239D01*
X66564761Y57880239D01*
X66374285Y57975477D01*
X67898095Y59213572D02*
X68660000Y59213572D01*
X68183809Y59880239D02*
X68183809Y58165953D01*
X68279047Y57975477D01*
X68469523Y57880239D01*
X68660000Y57880239D01*
X69326666Y59213572D02*
X69326666Y57213572D01*
X69326666Y59118334D02*
X69517142Y59213572D01*
X69898095Y59213572D01*
X70088571Y59118334D01*
X70183809Y59023096D01*
X70279047Y58832620D01*
X70279047Y58261191D01*
X70183809Y58070715D01*
X70088571Y57975477D01*
X69898095Y57880239D01*
X69517142Y57880239D01*
X69326666Y57975477D01*
X71421904Y57880239D02*
X71231428Y57975477D01*
X71136190Y58165953D01*
X71136190Y59880239D01*
X73040952Y57880239D02*
X73040952Y58927858D01*
X72945714Y59118334D01*
X72755238Y59213572D01*
X72374285Y59213572D01*
X72183809Y59118334D01*
X73040952Y57975477D02*
X72850476Y57880239D01*
X72374285Y57880239D01*
X72183809Y57975477D01*
X72088571Y58165953D01*
X72088571Y58356429D01*
X72183809Y58546905D01*
X72374285Y58642143D01*
X72850476Y58642143D01*
X73040952Y58737381D01*
X73707619Y59213572D02*
X74469523Y59213572D01*
X73993333Y59880239D02*
X73993333Y58165953D01*
X74088571Y57975477D01*
X74279047Y57880239D01*
X74469523Y57880239D01*
X75136190Y57880239D02*
X75136190Y59213572D01*
X75136190Y59880239D02*
X75040952Y59785000D01*
X75136190Y59689762D01*
X75231428Y59785000D01*
X75136190Y59880239D01*
X75136190Y59689762D01*
X76088571Y59213572D02*
X76088571Y57880239D01*
X76088571Y59023096D02*
X76183809Y59118334D01*
X76374285Y59213572D01*
X76660000Y59213572D01*
X76850476Y59118334D01*
X76945714Y58927858D01*
X76945714Y57880239D01*
X78660000Y57975477D02*
X78469523Y57880239D01*
X78088571Y57880239D01*
X77898095Y57975477D01*
X77802857Y58165953D01*
X77802857Y58927858D01*
X77898095Y59118334D01*
X78088571Y59213572D01*
X78469523Y59213572D01*
X78660000Y59118334D01*
X78755238Y58927858D01*
X78755238Y58737381D01*
X77802857Y58546905D01*
X80850476Y59880239D02*
X81517142Y57880239D01*
X82183809Y59880239D01*
X82755238Y59689762D02*
X82850476Y59785000D01*
X83040952Y59880239D01*
X83517142Y59880239D01*
X83707619Y59785000D01*
X83802857Y59689762D01*
X83898095Y59499286D01*
X83898095Y59308810D01*
X83802857Y59023096D01*
X82660000Y57880239D01*
X83898095Y57880239D01*
X84755238Y58070715D02*
X84850476Y57975477D01*
X84755238Y57880239D01*
X84660000Y57975477D01*
X84755238Y58070715D01*
X84755238Y57880239D01*
X86755238Y57880239D02*
X85612380Y57880239D01*
X86183809Y57880239D02*
X86183809Y59880239D01*
X85993333Y59594524D01*
X85802857Y59404048D01*
X85612380Y59308810D01*
D11*
X1314142Y56459429D02*
X1314142Y57959429D01*
X2028428Y57030858D02*
X3171285Y57030858D01*
X3885571Y56459429D02*
X3885571Y57959429D01*
X4457000Y57959429D01*
X4599857Y57888000D01*
X4671285Y57816572D01*
X4742714Y57673715D01*
X4742714Y57459429D01*
X4671285Y57316572D01*
X4599857Y57245143D01*
X4457000Y57173715D01*
X3885571Y57173715D01*
X5671285Y57959429D02*
X5957000Y57959429D01*
X6099857Y57888000D01*
X6242714Y57745143D01*
X6314142Y57459429D01*
X6314142Y56959429D01*
X6242714Y56673715D01*
X6099857Y56530858D01*
X5957000Y56459429D01*
X5671285Y56459429D01*
X5528428Y56530858D01*
X5385571Y56673715D01*
X5314142Y56959429D01*
X5314142Y57459429D01*
X5385571Y57745143D01*
X5528428Y57888000D01*
X5671285Y57959429D01*
X6742714Y57959429D02*
X7599857Y57959429D01*
X7171285Y56459429D02*
X7171285Y57959429D01*
X1314142Y25193429D02*
X1314142Y23979143D01*
X1385571Y23836286D01*
X1457000Y23764858D01*
X1599857Y23693429D01*
X1885571Y23693429D01*
X2028428Y23764858D01*
X2099857Y23836286D01*
X2171285Y23979143D01*
X2171285Y25193429D01*
X2885571Y24264858D02*
X4028428Y24264858D01*
X4742714Y23693429D02*
X4742714Y25193429D01*
X5314142Y25193429D01*
X5457000Y25122000D01*
X5528428Y25050572D01*
X5599857Y24907715D01*
X5599857Y24693429D01*
X5528428Y24550572D01*
X5457000Y24479143D01*
X5314142Y24407715D01*
X4742714Y24407715D01*
X6528428Y25193429D02*
X6814142Y25193429D01*
X6957000Y25122000D01*
X7099857Y24979143D01*
X7171285Y24693429D01*
X7171285Y24193429D01*
X7099857Y23907715D01*
X6957000Y23764858D01*
X6814142Y23693429D01*
X6528428Y23693429D01*
X6385571Y23764858D01*
X6242714Y23907715D01*
X6171285Y24193429D01*
X6171285Y24693429D01*
X6242714Y24979143D01*
X6385571Y25122000D01*
X6528428Y25193429D01*
X7599857Y25193429D02*
X8457000Y25193429D01*
X8028428Y23693429D02*
X8028428Y25193429D01*
X3631857Y16303429D02*
X3917571Y16303429D01*
X4060428Y16232000D01*
X4203285Y16089143D01*
X4274714Y15803429D01*
X4274714Y15303429D01*
X4203285Y15017715D01*
X4060428Y14874858D01*
X3917571Y14803429D01*
X3631857Y14803429D01*
X3489000Y14874858D01*
X3346142Y15017715D01*
X3274714Y15303429D01*
X3274714Y15803429D01*
X3346142Y16089143D01*
X3489000Y16232000D01*
X3631857Y16303429D01*
X4917571Y16303429D02*
X4917571Y15089143D01*
X4989000Y14946286D01*
X5060428Y14874858D01*
X5203285Y14803429D01*
X5489000Y14803429D01*
X5631857Y14874858D01*
X5703285Y14946286D01*
X5774714Y15089143D01*
X5774714Y16303429D01*
X6274714Y16303429D02*
X7131857Y16303429D01*
X6703285Y14803429D02*
X6703285Y16303429D01*
X4131857Y8612000D02*
X3989000Y8683429D01*
X3774714Y8683429D01*
X3560428Y8612000D01*
X3417571Y8469143D01*
X3346142Y8326286D01*
X3274714Y8040572D01*
X3274714Y7826286D01*
X3346142Y7540572D01*
X3417571Y7397715D01*
X3560428Y7254858D01*
X3774714Y7183429D01*
X3917571Y7183429D01*
X4131857Y7254858D01*
X4203285Y7326286D01*
X4203285Y7826286D01*
X3917571Y7826286D01*
X4846142Y7183429D02*
X4846142Y8683429D01*
X5703285Y7183429D01*
X5703285Y8683429D01*
X6417571Y7183429D02*
X6417571Y8683429D01*
X6774714Y8683429D01*
X6989000Y8612000D01*
X7131857Y8469143D01*
X7203285Y8326286D01*
X7274714Y8040572D01*
X7274714Y7826286D01*
X7203285Y7540572D01*
X7131857Y7397715D01*
X6989000Y7254858D01*
X6774714Y7183429D01*
X6417571Y7183429D01*
X72942142Y7691429D02*
X72942142Y9191429D01*
X73442142Y8120000D01*
X73942142Y9191429D01*
X73942142Y7691429D01*
X74585000Y8120000D02*
X75299285Y8120000D01*
X74442142Y7691429D02*
X74942142Y9191429D01*
X75442142Y7691429D01*
X75942142Y7691429D02*
X75942142Y9191429D01*
X76656428Y7691429D02*
X76656428Y9191429D01*
X77513571Y7691429D01*
X77513571Y9191429D01*
X56995714Y8120000D02*
X57710000Y8120000D01*
X56852857Y7691429D02*
X57352857Y9191429D01*
X57852857Y7691429D01*
X58352857Y9191429D02*
X58352857Y7977143D01*
X58424285Y7834286D01*
X58495714Y7762858D01*
X58638571Y7691429D01*
X58924285Y7691429D01*
X59067142Y7762858D01*
X59138571Y7834286D01*
X59210000Y7977143D01*
X59210000Y9191429D01*
X59781428Y9191429D02*
X60781428Y7691429D01*
X60781428Y9191429D02*
X59781428Y7691429D01*
X61281428Y9048572D02*
X61352857Y9120000D01*
X61495714Y9191429D01*
X61852857Y9191429D01*
X61995714Y9120000D01*
X62067142Y9048572D01*
X62138571Y8905715D01*
X62138571Y8762858D01*
X62067142Y8548572D01*
X61210000Y7691429D01*
X62138571Y7691429D01*
X107160714Y8120000D02*
X107875000Y8120000D01*
X107017857Y7691429D02*
X107517857Y9191429D01*
X108017857Y7691429D01*
X108517857Y9191429D02*
X108517857Y7977143D01*
X108589285Y7834286D01*
X108660714Y7762858D01*
X108803571Y7691429D01*
X109089285Y7691429D01*
X109232142Y7762858D01*
X109303571Y7834286D01*
X109375000Y7977143D01*
X109375000Y9191429D01*
X109946428Y9191429D02*
X110946428Y7691429D01*
X110946428Y9191429D02*
X109946428Y7691429D01*
X112303571Y7691429D02*
X111446428Y7691429D01*
X111875000Y7691429D02*
X111875000Y9191429D01*
X111732142Y8977143D01*
X111589285Y8834286D01*
X111446428Y8762858D01*
X128593571Y4782858D02*
X128593571Y5640000D01*
X130093571Y5211429D02*
X128593571Y5211429D01*
X130093571Y6140000D02*
X129093571Y6140000D01*
X129379285Y6140000D02*
X129236428Y6211429D01*
X129165000Y6282858D01*
X129093571Y6425715D01*
X129093571Y6568572D01*
X130093571Y7711429D02*
X129307857Y7711429D01*
X129165000Y7640000D01*
X129093571Y7497143D01*
X129093571Y7211429D01*
X129165000Y7068572D01*
X130022142Y7711429D02*
X130093571Y7568572D01*
X130093571Y7211429D01*
X130022142Y7068572D01*
X129879285Y6997143D01*
X129736428Y6997143D01*
X129593571Y7068572D01*
X129522142Y7211429D01*
X129522142Y7568572D01*
X129450714Y7711429D01*
X129093571Y8425715D02*
X130093571Y8425715D01*
X129236428Y8425715D02*
X129165000Y8497143D01*
X129093571Y8640000D01*
X129093571Y8854286D01*
X129165000Y8997143D01*
X129307857Y9068572D01*
X130093571Y9068572D01*
X130022142Y9711429D02*
X130093571Y9854286D01*
X130093571Y10140000D01*
X130022142Y10282858D01*
X129879285Y10354286D01*
X129807857Y10354286D01*
X129665000Y10282858D01*
X129593571Y10140000D01*
X129593571Y9925715D01*
X129522142Y9782858D01*
X129379285Y9711429D01*
X129307857Y9711429D01*
X129165000Y9782858D01*
X129093571Y9925715D01*
X129093571Y10140000D01*
X129165000Y10282858D01*
X130093571Y10997143D02*
X129093571Y10997143D01*
X128593571Y10997143D02*
X128665000Y10925715D01*
X128736428Y10997143D01*
X128665000Y11068572D01*
X128593571Y10997143D01*
X128736428Y10997143D01*
X130022142Y11640000D02*
X130093571Y11782858D01*
X130093571Y12068572D01*
X130022142Y12211429D01*
X129879285Y12282858D01*
X129807857Y12282858D01*
X129665000Y12211429D01*
X129593571Y12068572D01*
X129593571Y11854286D01*
X129522142Y11711429D01*
X129379285Y11640000D01*
X129307857Y11640000D01*
X129165000Y11711429D01*
X129093571Y11854286D01*
X129093571Y12068572D01*
X129165000Y12211429D01*
X129093571Y12711429D02*
X129093571Y13282858D01*
X128593571Y12925715D02*
X129879285Y12925715D01*
X130022142Y12997143D01*
X130093571Y13140000D01*
X130093571Y13282858D01*
X130093571Y13997143D02*
X130022142Y13854286D01*
X129950714Y13782858D01*
X129807857Y13711429D01*
X129379285Y13711429D01*
X129236428Y13782858D01*
X129165000Y13854286D01*
X129093571Y13997143D01*
X129093571Y14211429D01*
X129165000Y14354286D01*
X129236428Y14425715D01*
X129379285Y14497143D01*
X129807857Y14497143D01*
X129950714Y14425715D01*
X130022142Y14354286D01*
X130093571Y14211429D01*
X130093571Y13997143D01*
X130093571Y15140000D02*
X129093571Y15140000D01*
X129379285Y15140000D02*
X129236428Y15211429D01*
X129165000Y15282858D01*
X129093571Y15425715D01*
X129093571Y15568572D01*
X131857857Y4997143D02*
X131857857Y5497143D01*
X132643571Y5711429D02*
X132643571Y4997143D01*
X131143571Y4997143D01*
X131143571Y5711429D01*
X132500714Y10640000D02*
X132572142Y10568572D01*
X132643571Y10354286D01*
X132643571Y10211429D01*
X132572142Y9997143D01*
X132429285Y9854286D01*
X132286428Y9782858D01*
X132000714Y9711429D01*
X131786428Y9711429D01*
X131500714Y9782858D01*
X131357857Y9854286D01*
X131215000Y9997143D01*
X131143571Y10211429D01*
X131143571Y10354286D01*
X131215000Y10568572D01*
X131286428Y10640000D01*
X131857857Y15211429D02*
X131929285Y15425715D01*
X132000714Y15497143D01*
X132143571Y15568572D01*
X132357857Y15568572D01*
X132500714Y15497143D01*
X132572142Y15425715D01*
X132643571Y15282858D01*
X132643571Y14711429D01*
X131143571Y14711429D01*
X131143571Y15211429D01*
X131215000Y15354286D01*
X131286428Y15425715D01*
X131429285Y15497143D01*
X131572142Y15497143D01*
X131715000Y15425715D01*
X131786428Y15354286D01*
X131857857Y15211429D01*
X131857857Y14711429D01*
D12*
X136538900Y31738600D02*
X136058900Y31738600D01*
X136538900Y21598600D02*
X136538900Y31738600D01*
X136058900Y21598600D02*
X136538900Y21598600D01*
X132698900Y31738600D02*
X133178900Y31738600D01*
X132698900Y21598600D02*
X132698900Y31738600D01*
X133178900Y21598600D02*
X132698900Y21598600D01*
X130158900Y44458600D02*
X130638900Y44458600D01*
X130158900Y54598600D02*
X130158900Y44458600D01*
X130638900Y54598600D02*
X130158900Y54598600D01*
X133998900Y44458600D02*
X133518900Y44458600D01*
X133998900Y54598600D02*
X133998900Y44458600D01*
X133518900Y54598600D02*
X133998900Y54598600D01*
X128918900Y31738600D02*
X128438900Y31738600D01*
X128918900Y21598600D02*
X128918900Y31738600D01*
X128438900Y21598600D02*
X128918900Y21598600D01*
X125078900Y31738600D02*
X125558900Y31738600D01*
X125078900Y21598600D02*
X125078900Y31738600D01*
X125558900Y21598600D02*
X125078900Y21598600D01*
X109838900Y39378600D02*
X110318900Y39378600D01*
X109838900Y49518600D02*
X109838900Y39378600D01*
X110318900Y49518600D02*
X109838900Y49518600D01*
X113678900Y39378600D02*
X113198900Y39378600D01*
X113678900Y49518600D02*
X113678900Y39378600D01*
X113198900Y49518600D02*
X113678900Y49518600D01*
X118758900Y39360000D02*
X118278900Y39360000D01*
X118758900Y29220000D02*
X118758900Y39360000D01*
X118278900Y29220000D02*
X118758900Y29220000D01*
X114918900Y39360000D02*
X115398900Y39360000D01*
X114918900Y29220000D02*
X114918900Y39360000D01*
X115398900Y29220000D02*
X114918900Y29220000D01*
X71738900Y31758600D02*
X72218900Y31758600D01*
X71738900Y41898600D02*
X71738900Y31758600D01*
X72218900Y41898600D02*
X71738900Y41898600D01*
X75578900Y31758600D02*
X75098900Y31758600D01*
X75578900Y41898600D02*
X75578900Y31758600D01*
X75098900Y41898600D02*
X75578900Y41898600D01*
X65418900Y41898600D02*
X64938900Y41898600D01*
X65418900Y31758600D02*
X65418900Y41898600D01*
X64938900Y31758600D02*
X65418900Y31758600D01*
X61578900Y41898600D02*
X62058900Y41898600D01*
X61578900Y31758600D02*
X61578900Y41898600D01*
X62058900Y31758600D02*
X61578900Y31758600D01*
X40018900Y46978600D02*
X39538900Y46978600D01*
X40018900Y36838600D02*
X40018900Y46978600D01*
X39538900Y36838600D02*
X40018900Y36838600D01*
X36178900Y46978600D02*
X36658900Y46978600D01*
X36178900Y36838600D02*
X36178900Y46978600D01*
X36658900Y36838600D02*
X36178900Y36838600D01*
X22238900Y59678600D02*
X21758900Y59678600D01*
X22238900Y49538600D02*
X22238900Y59678600D01*
X21758900Y49538600D02*
X22238900Y49538600D01*
X18398900Y59678600D02*
X18878900Y59678600D01*
X18398900Y49538600D02*
X18398900Y59678600D01*
X18878900Y49538600D02*
X18398900Y49538600D01*
X17158900Y46978600D02*
X16678900Y46978600D01*
X17158900Y36838600D02*
X17158900Y46978600D01*
X16678900Y36838600D02*
X17158900Y36838600D01*
X13318900Y46978600D02*
X13798900Y46978600D01*
X13318900Y36838600D02*
X13318900Y46978600D01*
X13798900Y36838600D02*
X13318900Y36838600D01*
X15888900Y21578600D02*
X15408900Y21578600D01*
X15888900Y11438600D02*
X15888900Y21578600D01*
X15408900Y11438600D02*
X15888900Y11438600D01*
X12048900Y21578600D02*
X12528900Y21578600D01*
X12048900Y11438600D02*
X12048900Y21578600D01*
X12528900Y11438600D02*
X12048900Y11438600D01*
X12078900Y16498600D02*
X11598900Y16498600D01*
X12078900Y6358600D02*
X12078900Y16498600D01*
X11598900Y6358600D02*
X12078900Y6358600D01*
X8238900Y16498600D02*
X8718900Y16498600D01*
X8238900Y6358600D02*
X8238900Y16498600D01*
X8718900Y6358600D02*
X8238900Y6358600D01*
X26657936Y48338547D02*
G75*
G02*
X32955000Y45198000I132064J-7618547D01*
G01*
X33252048Y44756982D02*
G75*
G02*
X33389000Y44529000I-6462048J-4036982D01*
G01*
X33517987Y44296144D02*
G75*
G02*
X33517000Y37142000I-6727987J-3576144D01*
G01*
X33387989Y36909945D02*
G75*
G02*
X33251000Y36682000I-6597989J3810055D01*
G01*
X32954709Y36241076D02*
G75*
G02*
X26790000Y48340000I-6164709J4478924D01*
G01*
X38086836Y22937147D02*
G75*
G02*
X44383900Y19796600I132064J-7618547D01*
G01*
X44680948Y19355582D02*
G75*
G02*
X44817900Y19127600I-6462048J-4036982D01*
G01*
X44946887Y18894744D02*
G75*
G02*
X44945900Y11740600I-6727987J-3576144D01*
G01*
X44816889Y11508545D02*
G75*
G02*
X44679900Y11280600I-6597989J3810055D01*
G01*
X44383609Y10839676D02*
G75*
G02*
X38218900Y22938600I-6164709J4478924D01*
G01*
X16384331Y19603600D02*
X16384331Y18303600D01*
X15734331Y18953600D02*
X17034331Y18953600D01*
X29419900Y15713600D02*
X29419900Y14763600D01*
X29379900Y16088600D02*
X29379900Y14388600D01*
X29339900Y16345600D02*
X29339900Y14131600D01*
X29299900Y16553600D02*
X29299900Y13923600D01*
X29259900Y16732600D02*
X29259900Y13744600D01*
X29219900Y16891600D02*
X29219900Y13585600D01*
X29179900Y17036600D02*
X29179900Y13440600D01*
X29139900Y17169600D02*
X29139900Y13307600D01*
X29099900Y17293600D02*
X29099900Y13183600D01*
X29059900Y17409600D02*
X29059900Y13067600D01*
X29019900Y17519600D02*
X29019900Y12957600D01*
X28979900Y17623600D02*
X28979900Y12853600D01*
X28939900Y17722600D02*
X28939900Y12754600D01*
X28899900Y17817600D02*
X28899900Y12659600D01*
X28859900Y17908600D02*
X28859900Y12568600D01*
X28819900Y17996600D02*
X28819900Y12480600D01*
X28779900Y18080600D02*
X28779900Y12396600D01*
X28739900Y18161600D02*
X28739900Y12315600D01*
X28699900Y18240600D02*
X28699900Y12236600D01*
X28659900Y18316600D02*
X28659900Y12160600D01*
X28619900Y18390600D02*
X28619900Y12086600D01*
X28579900Y18461600D02*
X28579900Y12015600D01*
X28539900Y18531600D02*
X28539900Y11945600D01*
X28499900Y18599600D02*
X28499900Y11877600D01*
X28459900Y18665600D02*
X28459900Y11811600D01*
X28419900Y18729600D02*
X28419900Y11747600D01*
X28379900Y18792600D02*
X28379900Y11684600D01*
X28339900Y18853600D02*
X28339900Y11623600D01*
X28299900Y18913600D02*
X28299900Y11563600D01*
X28259900Y18971600D02*
X28259900Y11505600D01*
X28219900Y19028600D02*
X28219900Y11448600D01*
X28179900Y19084600D02*
X28179900Y11392600D01*
X28139900Y19138600D02*
X28139900Y11338600D01*
X28099900Y19192600D02*
X28099900Y11284600D01*
X28059900Y19244600D02*
X28059900Y11232600D01*
X28019900Y19295600D02*
X28019900Y11181600D01*
X27979900Y19346600D02*
X27979900Y11130600D01*
X27939900Y19395600D02*
X27939900Y11081600D01*
X27899900Y19443600D02*
X27899900Y11033600D01*
X27859900Y19491600D02*
X27859900Y10985600D01*
X27819900Y19537600D02*
X27819900Y10939600D01*
X27779900Y19583600D02*
X27779900Y10893600D01*
X27739900Y19628600D02*
X27739900Y10848600D01*
X27699900Y19672600D02*
X27699900Y10804600D01*
X27659900Y19715600D02*
X27659900Y10761600D01*
X27619900Y19757600D02*
X27619900Y10719600D01*
X27579900Y19799600D02*
X27579900Y10677600D01*
X27539900Y19840600D02*
X27539900Y10636600D01*
X27499900Y19881600D02*
X27499900Y10595600D01*
X27459900Y19920600D02*
X27459900Y10556600D01*
X27419900Y19959600D02*
X27419900Y10517600D01*
X27379900Y19998600D02*
X27379900Y10478600D01*
X27339900Y20035600D02*
X27339900Y10441600D01*
X27299900Y20072600D02*
X27299900Y10404600D01*
X27259900Y20109600D02*
X27259900Y10367600D01*
X27219900Y20145600D02*
X27219900Y10331600D01*
X27179900Y20180600D02*
X27179900Y10296600D01*
X27139900Y20215600D02*
X27139900Y10261600D01*
X27099900Y20249600D02*
X27099900Y10227600D01*
X27059900Y20282600D02*
X27059900Y10194600D01*
X27019900Y20316600D02*
X27019900Y10160600D01*
X26979900Y20348600D02*
X26979900Y10128600D01*
X26939900Y20380600D02*
X26939900Y10096600D01*
X26899900Y20412600D02*
X26899900Y10064600D01*
X26859900Y20443600D02*
X26859900Y10033600D01*
X26819900Y20473600D02*
X26819900Y10003600D01*
X26779900Y20503600D02*
X26779900Y9973600D01*
X26739900Y13798600D02*
X26739900Y9943600D01*
X26739900Y20533600D02*
X26739900Y16678600D01*
X26699900Y13798600D02*
X26699900Y9914600D01*
X26699900Y20562600D02*
X26699900Y16678600D01*
X26659900Y13798600D02*
X26659900Y9885600D01*
X26659900Y20591600D02*
X26659900Y16678600D01*
X26619900Y13798600D02*
X26619900Y9857600D01*
X26619900Y20619600D02*
X26619900Y16678600D01*
X26579900Y13798600D02*
X26579900Y9829600D01*
X26579900Y20647600D02*
X26579900Y16678600D01*
X26539900Y13798600D02*
X26539900Y9802600D01*
X26539900Y20674600D02*
X26539900Y16678600D01*
X26499900Y13798600D02*
X26499900Y9775600D01*
X26499900Y20701600D02*
X26499900Y16678600D01*
X26459900Y13798600D02*
X26459900Y9748600D01*
X26459900Y20728600D02*
X26459900Y16678600D01*
X26419900Y13798600D02*
X26419900Y9722600D01*
X26419900Y20754600D02*
X26419900Y16678600D01*
X26379900Y13798600D02*
X26379900Y9696600D01*
X26379900Y20780600D02*
X26379900Y16678600D01*
X26339900Y13798600D02*
X26339900Y9671600D01*
X26339900Y20805600D02*
X26339900Y16678600D01*
X26299900Y13798600D02*
X26299900Y9646600D01*
X26299900Y20830600D02*
X26299900Y16678600D01*
X26259900Y13798600D02*
X26259900Y9621600D01*
X26259900Y20855600D02*
X26259900Y16678600D01*
X26219900Y13798600D02*
X26219900Y9597600D01*
X26219900Y20879600D02*
X26219900Y16678600D01*
X26179900Y13798600D02*
X26179900Y9574600D01*
X26179900Y20902600D02*
X26179900Y16678600D01*
X26139900Y13798600D02*
X26139900Y9550600D01*
X26139900Y20926600D02*
X26139900Y16678600D01*
X26099900Y13798600D02*
X26099900Y9527600D01*
X26099900Y20949600D02*
X26099900Y16678600D01*
X26059900Y13798600D02*
X26059900Y9505600D01*
X26059900Y20971600D02*
X26059900Y16678600D01*
X26019900Y13798600D02*
X26019900Y9482600D01*
X26019900Y20994600D02*
X26019900Y16678600D01*
X25979900Y13798600D02*
X25979900Y9460600D01*
X25979900Y21016600D02*
X25979900Y16678600D01*
X25939900Y13798600D02*
X25939900Y9439600D01*
X25939900Y21037600D02*
X25939900Y16678600D01*
X25899900Y13798600D02*
X25899900Y9418600D01*
X25899900Y21058600D02*
X25899900Y16678600D01*
X25859900Y13798600D02*
X25859900Y9397600D01*
X25859900Y21079600D02*
X25859900Y16678600D01*
X25819900Y13798600D02*
X25819900Y9376600D01*
X25819900Y21100600D02*
X25819900Y16678600D01*
X25779900Y13798600D02*
X25779900Y9356600D01*
X25779900Y21120600D02*
X25779900Y16678600D01*
X25739900Y13798600D02*
X25739900Y9336600D01*
X25739900Y21140600D02*
X25739900Y16678600D01*
X25699900Y13798600D02*
X25699900Y9317600D01*
X25699900Y21159600D02*
X25699900Y16678600D01*
X25659900Y13798600D02*
X25659900Y9298600D01*
X25659900Y21178600D02*
X25659900Y16678600D01*
X25619900Y13798600D02*
X25619900Y9279600D01*
X25619900Y21197600D02*
X25619900Y16678600D01*
X25579900Y13798600D02*
X25579900Y9260600D01*
X25579900Y21216600D02*
X25579900Y16678600D01*
X25539900Y13798600D02*
X25539900Y9242600D01*
X25539900Y21234600D02*
X25539900Y16678600D01*
X25499900Y13798600D02*
X25499900Y9224600D01*
X25499900Y21252600D02*
X25499900Y16678600D01*
X25459900Y13798600D02*
X25459900Y9207600D01*
X25459900Y21269600D02*
X25459900Y16678600D01*
X25419900Y13798600D02*
X25419900Y9189600D01*
X25419900Y21287600D02*
X25419900Y16678600D01*
X25379900Y13798600D02*
X25379900Y9173600D01*
X25379900Y21303600D02*
X25379900Y16678600D01*
X25339900Y13798600D02*
X25339900Y9156600D01*
X25339900Y21320600D02*
X25339900Y16678600D01*
X25299900Y13798600D02*
X25299900Y9140600D01*
X25299900Y21336600D02*
X25299900Y16678600D01*
X25259900Y13798600D02*
X25259900Y9124600D01*
X25259900Y21352600D02*
X25259900Y16678600D01*
X25219900Y13798600D02*
X25219900Y9108600D01*
X25219900Y21368600D02*
X25219900Y16678600D01*
X25179900Y13798600D02*
X25179900Y9092600D01*
X25179900Y21384600D02*
X25179900Y16678600D01*
X25139900Y13798600D02*
X25139900Y9077600D01*
X25139900Y21399600D02*
X25139900Y16678600D01*
X25099900Y13798600D02*
X25099900Y9063600D01*
X25099900Y21413600D02*
X25099900Y16678600D01*
X25059900Y13798600D02*
X25059900Y9048600D01*
X25059900Y21428600D02*
X25059900Y16678600D01*
X25019900Y13798600D02*
X25019900Y9034600D01*
X25019900Y21442600D02*
X25019900Y16678600D01*
X24979900Y13798600D02*
X24979900Y9020600D01*
X24979900Y21456600D02*
X24979900Y16678600D01*
X24939900Y13798600D02*
X24939900Y9006600D01*
X24939900Y21470600D02*
X24939900Y16678600D01*
X24899900Y13798600D02*
X24899900Y8993600D01*
X24899900Y21483600D02*
X24899900Y16678600D01*
X24859900Y13798600D02*
X24859900Y8980600D01*
X24859900Y21496600D02*
X24859900Y16678600D01*
X24819900Y13798600D02*
X24819900Y8967600D01*
X24819900Y21509600D02*
X24819900Y16678600D01*
X24779900Y13798600D02*
X24779900Y8954600D01*
X24779900Y21522600D02*
X24779900Y16678600D01*
X24739900Y13798600D02*
X24739900Y8942600D01*
X24739900Y21534600D02*
X24739900Y16678600D01*
X24699900Y13798600D02*
X24699900Y8930600D01*
X24699900Y21546600D02*
X24699900Y16678600D01*
X24659900Y13798600D02*
X24659900Y8918600D01*
X24659900Y21558600D02*
X24659900Y16678600D01*
X24619900Y13798600D02*
X24619900Y8907600D01*
X24619900Y21569600D02*
X24619900Y16678600D01*
X24579900Y13798600D02*
X24579900Y8896600D01*
X24579900Y21580600D02*
X24579900Y16678600D01*
X24539900Y13798600D02*
X24539900Y8885600D01*
X24539900Y21591600D02*
X24539900Y16678600D01*
X24499900Y13798600D02*
X24499900Y8874600D01*
X24499900Y21602600D02*
X24499900Y16678600D01*
X24459900Y13798600D02*
X24459900Y8864600D01*
X24459900Y21612600D02*
X24459900Y16678600D01*
X24419900Y13798600D02*
X24419900Y8854600D01*
X24419900Y21622600D02*
X24419900Y16678600D01*
X24379900Y13798600D02*
X24379900Y8844600D01*
X24379900Y21632600D02*
X24379900Y16678600D01*
X24339900Y13798600D02*
X24339900Y8834600D01*
X24339900Y21642600D02*
X24339900Y16678600D01*
X24299900Y13798600D02*
X24299900Y8825600D01*
X24299900Y21651600D02*
X24299900Y16678600D01*
X24259900Y13798600D02*
X24259900Y8816600D01*
X24259900Y21660600D02*
X24259900Y16678600D01*
X24219900Y13798600D02*
X24219900Y8807600D01*
X24219900Y21669600D02*
X24219900Y16678600D01*
X24179900Y13798600D02*
X24179900Y8799600D01*
X24179900Y21677600D02*
X24179900Y16678600D01*
X24139900Y13798600D02*
X24139900Y8790600D01*
X24139900Y21686600D02*
X24139900Y16678600D01*
X24099900Y13798600D02*
X24099900Y8782600D01*
X24099900Y21694600D02*
X24099900Y16678600D01*
X24059900Y13798600D02*
X24059900Y8775600D01*
X24059900Y21701600D02*
X24059900Y16678600D01*
X24019900Y13798600D02*
X24019900Y8767600D01*
X24019900Y21709600D02*
X24019900Y16678600D01*
X23979900Y13798600D02*
X23979900Y8760600D01*
X23979900Y21716600D02*
X23979900Y16678600D01*
X23939900Y13798600D02*
X23939900Y8753600D01*
X23939900Y21723600D02*
X23939900Y16678600D01*
X23899900Y13798600D02*
X23899900Y8746600D01*
X23899900Y21730600D02*
X23899900Y16678600D01*
X23859900Y21736600D02*
X23859900Y8740600D01*
X23819900Y21743600D02*
X23819900Y8733600D01*
X23779900Y21749600D02*
X23779900Y8727600D01*
X23739900Y21754600D02*
X23739900Y8722600D01*
X23699900Y21760600D02*
X23699900Y8716600D01*
X23659900Y21765600D02*
X23659900Y8711600D01*
X23619900Y21770600D02*
X23619900Y8706600D01*
X23579900Y21775600D02*
X23579900Y8701600D01*
X23539900Y21779600D02*
X23539900Y8697600D01*
X23498900Y21783600D02*
X23498900Y8693600D01*
X23458900Y21787600D02*
X23458900Y8689600D01*
X23418900Y21791600D02*
X23418900Y8685600D01*
X23378900Y21795600D02*
X23378900Y8681600D01*
X23338900Y21798600D02*
X23338900Y8678600D01*
X23298900Y21801600D02*
X23298900Y8675600D01*
X23258900Y21804600D02*
X23258900Y8672600D01*
X23218900Y21806600D02*
X23218900Y8670600D01*
X23178900Y21809600D02*
X23178900Y8667600D01*
X23138900Y21811600D02*
X23138900Y8665600D01*
X23098900Y21813600D02*
X23098900Y8663600D01*
X23058900Y21814600D02*
X23058900Y8662600D01*
X23018900Y21815600D02*
X23018900Y8661600D01*
X22978900Y21817600D02*
X22978900Y8659600D01*
X22938900Y21817600D02*
X22938900Y8659600D01*
X22898900Y21818600D02*
X22898900Y8658600D01*
X22858900Y21818600D02*
X22858900Y8658600D01*
X22818900Y21818600D02*
X22818900Y8658600D01*
X29438900Y15238600D02*
G75*
G03*
X29438900Y15238600I-6620000J0D01*
G01*
X67069202Y25573600D02*
X67069202Y24773600D01*
X66669202Y25173600D02*
X67469202Y25173600D01*
X75159900Y23391600D02*
X75159900Y22325600D01*
X75119900Y23626600D02*
X75119900Y22090600D01*
X75079900Y23806600D02*
X75079900Y21910600D01*
X75039900Y23956600D02*
X75039900Y21760600D01*
X74999900Y24087600D02*
X74999900Y21629600D01*
X74959900Y24204600D02*
X74959900Y21512600D01*
X74919900Y24311600D02*
X74919900Y21405600D01*
X74879900Y24410600D02*
X74879900Y21306600D01*
X74839900Y24503600D02*
X74839900Y21213600D01*
X74799900Y24589600D02*
X74799900Y21127600D01*
X74759900Y24671600D02*
X74759900Y21045600D01*
X74719900Y24748600D02*
X74719900Y20968600D01*
X74679900Y24822600D02*
X74679900Y20894600D01*
X74639900Y24892600D02*
X74639900Y20824600D01*
X74599900Y21818600D02*
X74599900Y20756600D01*
X74599900Y24960600D02*
X74599900Y23898600D01*
X74559900Y21818600D02*
X74559900Y20692600D01*
X74559900Y25024600D02*
X74559900Y23898600D01*
X74519900Y21818600D02*
X74519900Y20630600D01*
X74519900Y25086600D02*
X74519900Y23898600D01*
X74479900Y21818600D02*
X74479900Y20571600D01*
X74479900Y25145600D02*
X74479900Y23898600D01*
X74439900Y21818600D02*
X74439900Y20513600D01*
X74439900Y25203600D02*
X74439900Y23898600D01*
X74399900Y21818600D02*
X74399900Y20458600D01*
X74399900Y25258600D02*
X74399900Y23898600D01*
X74359900Y21818600D02*
X74359900Y20404600D01*
X74359900Y25312600D02*
X74359900Y23898600D01*
X74319900Y21818600D02*
X74319900Y20353600D01*
X74319900Y25363600D02*
X74319900Y23898600D01*
X74279900Y21818600D02*
X74279900Y20302600D01*
X74279900Y25414600D02*
X74279900Y23898600D01*
X74239900Y21818600D02*
X74239900Y20254600D01*
X74239900Y25462600D02*
X74239900Y23898600D01*
X74199900Y21818600D02*
X74199900Y20207600D01*
X74199900Y25509600D02*
X74199900Y23898600D01*
X74159900Y21818600D02*
X74159900Y20161600D01*
X74159900Y25555600D02*
X74159900Y23898600D01*
X74119900Y21818600D02*
X74119900Y20117600D01*
X74119900Y25599600D02*
X74119900Y23898600D01*
X74079900Y21818600D02*
X74079900Y20074600D01*
X74079900Y25642600D02*
X74079900Y23898600D01*
X74039900Y21818600D02*
X74039900Y20032600D01*
X74039900Y25684600D02*
X74039900Y23898600D01*
X73999900Y21818600D02*
X73999900Y19991600D01*
X73999900Y25725600D02*
X73999900Y23898600D01*
X73959900Y21818600D02*
X73959900Y19951600D01*
X73959900Y25765600D02*
X73959900Y23898600D01*
X73919900Y21818600D02*
X73919900Y19913600D01*
X73919900Y25803600D02*
X73919900Y23898600D01*
X73879900Y21818600D02*
X73879900Y19875600D01*
X73879900Y25841600D02*
X73879900Y23898600D01*
X73839900Y21818600D02*
X73839900Y19839600D01*
X73839900Y25877600D02*
X73839900Y23898600D01*
X73799900Y21818600D02*
X73799900Y19803600D01*
X73799900Y25913600D02*
X73799900Y23898600D01*
X73759900Y21818600D02*
X73759900Y19768600D01*
X73759900Y25948600D02*
X73759900Y23898600D01*
X73719900Y21818600D02*
X73719900Y19734600D01*
X73719900Y25982600D02*
X73719900Y23898600D01*
X73679900Y21818600D02*
X73679900Y19702600D01*
X73679900Y26014600D02*
X73679900Y23898600D01*
X73639900Y21818600D02*
X73639900Y19669600D01*
X73639900Y26047600D02*
X73639900Y23898600D01*
X73599900Y21818600D02*
X73599900Y19638600D01*
X73599900Y26078600D02*
X73599900Y23898600D01*
X73559900Y21818600D02*
X73559900Y19608600D01*
X73559900Y26108600D02*
X73559900Y23898600D01*
X73519900Y21818600D02*
X73519900Y19578600D01*
X73519900Y26138600D02*
X73519900Y23898600D01*
X73479900Y21818600D02*
X73479900Y19549600D01*
X73479900Y26167600D02*
X73479900Y23898600D01*
X73439900Y21818600D02*
X73439900Y19520600D01*
X73439900Y26196600D02*
X73439900Y23898600D01*
X73399900Y21818600D02*
X73399900Y19493600D01*
X73399900Y26223600D02*
X73399900Y23898600D01*
X73359900Y21818600D02*
X73359900Y19466600D01*
X73359900Y26250600D02*
X73359900Y23898600D01*
X73319900Y21818600D02*
X73319900Y19440600D01*
X73319900Y26276600D02*
X73319900Y23898600D01*
X73279900Y21818600D02*
X73279900Y19414600D01*
X73279900Y26302600D02*
X73279900Y23898600D01*
X73239900Y21818600D02*
X73239900Y19389600D01*
X73239900Y26327600D02*
X73239900Y23898600D01*
X73199900Y21818600D02*
X73199900Y19365600D01*
X73199900Y26351600D02*
X73199900Y23898600D01*
X73159900Y21818600D02*
X73159900Y19341600D01*
X73159900Y26375600D02*
X73159900Y23898600D01*
X73119900Y21818600D02*
X73119900Y19318600D01*
X73119900Y26398600D02*
X73119900Y23898600D01*
X73079900Y21818600D02*
X73079900Y19296600D01*
X73079900Y26420600D02*
X73079900Y23898600D01*
X73039900Y21818600D02*
X73039900Y19274600D01*
X73039900Y26442600D02*
X73039900Y23898600D01*
X72999900Y21818600D02*
X72999900Y19252600D01*
X72999900Y26464600D02*
X72999900Y23898600D01*
X72959900Y21818600D02*
X72959900Y19231600D01*
X72959900Y26485600D02*
X72959900Y23898600D01*
X72919900Y21818600D02*
X72919900Y19211600D01*
X72919900Y26505600D02*
X72919900Y23898600D01*
X72879900Y21818600D02*
X72879900Y19192600D01*
X72879900Y26524600D02*
X72879900Y23898600D01*
X72839900Y21818600D02*
X72839900Y19172600D01*
X72839900Y26544600D02*
X72839900Y23898600D01*
X72799900Y21818600D02*
X72799900Y19154600D01*
X72799900Y26562600D02*
X72799900Y23898600D01*
X72759900Y21818600D02*
X72759900Y19136600D01*
X72759900Y26580600D02*
X72759900Y23898600D01*
X72719900Y21818600D02*
X72719900Y19118600D01*
X72719900Y26598600D02*
X72719900Y23898600D01*
X72679900Y21818600D02*
X72679900Y19101600D01*
X72679900Y26615600D02*
X72679900Y23898600D01*
X72639900Y21818600D02*
X72639900Y19084600D01*
X72639900Y26632600D02*
X72639900Y23898600D01*
X72599900Y21818600D02*
X72599900Y19068600D01*
X72599900Y26648600D02*
X72599900Y23898600D01*
X72559900Y21818600D02*
X72559900Y19053600D01*
X72559900Y26663600D02*
X72559900Y23898600D01*
X72519900Y26679600D02*
X72519900Y19037600D01*
X72479900Y26693600D02*
X72479900Y19023600D01*
X72439900Y26708600D02*
X72439900Y19008600D01*
X72399900Y26721600D02*
X72399900Y18995600D01*
X72359900Y26735600D02*
X72359900Y18981600D01*
X72319900Y26747600D02*
X72319900Y18969600D01*
X72279900Y26760600D02*
X72279900Y18956600D01*
X72239900Y26772600D02*
X72239900Y18944600D01*
X72199900Y26783600D02*
X72199900Y18933600D01*
X72159900Y26794600D02*
X72159900Y18922600D01*
X72119900Y26805600D02*
X72119900Y18911600D01*
X72079900Y26815600D02*
X72079900Y18901600D01*
X72039900Y26825600D02*
X72039900Y18891600D01*
X71999900Y26834600D02*
X71999900Y18882600D01*
X71959900Y26843600D02*
X71959900Y18873600D01*
X71919900Y26852600D02*
X71919900Y18864600D01*
X71879900Y26860600D02*
X71879900Y18856600D01*
X71839900Y26868600D02*
X71839900Y18848600D01*
X71799900Y26875600D02*
X71799900Y18841600D01*
X71758900Y26882600D02*
X71758900Y18834600D01*
X71718900Y26888600D02*
X71718900Y18828600D01*
X71678900Y26895600D02*
X71678900Y18821600D01*
X71638900Y26900600D02*
X71638900Y18816600D01*
X71598900Y26906600D02*
X71598900Y18810600D01*
X71558900Y26910600D02*
X71558900Y18806600D01*
X71518900Y26915600D02*
X71518900Y18801600D01*
X71478900Y26919600D02*
X71478900Y18797600D01*
X71438900Y26923600D02*
X71438900Y18793600D01*
X71398900Y26926600D02*
X71398900Y18790600D01*
X71358900Y26929600D02*
X71358900Y18787600D01*
X71318900Y26932600D02*
X71318900Y18784600D01*
X71278900Y26934600D02*
X71278900Y18782600D01*
X71238900Y26935600D02*
X71238900Y18781600D01*
X71198900Y26937600D02*
X71198900Y18779600D01*
X71158900Y26938600D02*
X71158900Y18778600D01*
X71118900Y26938600D02*
X71118900Y18778600D01*
X71078900Y26938600D02*
X71078900Y18778600D01*
X75198900Y22858600D02*
G75*
G03*
X75198900Y22858600I-4120000J0D01*
G01*
X104498900Y14578600D02*
X98698900Y14578600D01*
X98698900Y14578600D02*
X98698900Y46778600D01*
X98698900Y46778600D02*
X104498900Y46778600D01*
X104498900Y46778600D02*
X104498900Y14578600D01*
X104498900Y42728600D02*
X103098900Y42728600D01*
X98698900Y42728600D02*
X100098900Y42728600D01*
X103298900Y46978600D02*
X104698900Y46978600D01*
X104698900Y46978600D02*
X104698900Y45678600D01*
X39538900Y25398600D02*
X40388900Y25398600D01*
D13*
X39418900Y25398600D02*
X56918900Y25398600D01*
D12*
X26138900Y48948600D02*
X29738900Y48948600D01*
X29747345Y48970916D02*
G75*
G03*
X28718900Y53248600I-1808445J1827684D01*
G01*
X26127025Y48956859D02*
G75*
G02*
X27118900Y53248600I1811875J1841741D01*
G01*
X6528900Y5078600D02*
G75*
G03*
X6528900Y5078600I-1450000J0D01*
G01*
X6528900Y12698600D02*
G75*
G03*
X6528900Y12698600I-1450000J0D01*
G01*
X6528900Y20318600D02*
G75*
G03*
X6528900Y20318600I-1450000J0D01*
G01*
X6528900Y27938600D02*
G75*
G03*
X6528900Y27938600I-1450000J0D01*
G01*
X136068900Y5078600D02*
G75*
G03*
X136068900Y5078600I-1450000J0D01*
G01*
X136068900Y10158600D02*
G75*
G03*
X136068900Y10158600I-1450000J0D01*
G01*
X136068900Y15238600D02*
G75*
G03*
X136068900Y15238600I-1450000J0D01*
G01*
X6528900Y60958600D02*
G75*
G03*
X6528900Y60958600I-1450000J0D01*
G01*
X6528900Y53338600D02*
G75*
G03*
X6528900Y53338600I-1450000J0D01*
G01*
X57328900Y5078600D02*
G75*
G03*
X57328900Y5078600I-1450000J0D01*
G01*
X64948900Y5078600D02*
G75*
G03*
X64948900Y5078600I-1450000J0D01*
G01*
X72568900Y5078600D02*
G75*
G03*
X72568900Y5078600I-1450000J0D01*
G01*
X80188900Y5078600D02*
G75*
G03*
X80188900Y5078600I-1450000J0D01*
G01*
X108128900Y5078600D02*
G75*
G03*
X108128900Y5078600I-1450000J0D01*
G01*
X113208900Y5078600D02*
G75*
G03*
X113208900Y5078600I-1450000J0D01*
G01*
X126258900Y45028600D02*
X122658900Y45028600D01*
X122650455Y45006284D02*
G75*
G03*
X123678900Y40728600I1808445J-1827684D01*
G01*
X126270775Y45020341D02*
G75*
G02*
X125278900Y40728600I-1811875J-1841741D01*
G01*
X128848900Y54078600D02*
X128848900Y57678600D01*
X128826584Y57687045D02*
G75*
G03*
X124548900Y56658600I-1827684J-1808445D01*
G01*
X128840641Y54066725D02*
G75*
G02*
X124548900Y55058600I-1841741J1811875D01*
G01*
X118688900Y54078600D02*
X118688900Y57678600D01*
X118666584Y57687045D02*
G75*
G03*
X114388900Y56658600I-1827684J-1808445D01*
G01*
X118680641Y54066725D02*
G75*
G02*
X114388900Y55058600I-1841741J1811875D01*
G01*
X61648900Y52598600D02*
X61648900Y48998600D01*
X61671216Y48990155D02*
G75*
G03*
X65948900Y50018600I1827684J1808445D01*
G01*
X61657159Y52610475D02*
G75*
G02*
X65948900Y51618600I1841741J-1811875D01*
G01*
X33708900Y60218600D02*
X33708900Y56618600D01*
X33731216Y56610155D02*
G75*
G03*
X38008900Y57638600I1827684J1808445D01*
G01*
X33717159Y60230475D02*
G75*
G02*
X38008900Y59238600I1841741J-1811875D01*
G01*
X8308900Y60218600D02*
X8308900Y56618600D01*
X8331216Y56610155D02*
G75*
G03*
X12608900Y57638600I1827684J1808445D01*
G01*
X8317159Y60230475D02*
G75*
G02*
X12608900Y59238600I1841741J-1811875D01*
G01*
X19578900Y32328600D02*
X15978900Y32328600D01*
X15970455Y32306284D02*
G75*
G03*
X16998900Y28028600I1808445J-1827684D01*
G01*
X19590775Y32320341D02*
G75*
G02*
X18598900Y28028600I-1811875J-1841741D01*
G01*
X50798900Y29378600D02*
X50798900Y33058600D01*
X50798900Y56978600D02*
X50798900Y53298600D01*
X55418900Y33058600D02*
X55418900Y53298600D01*
X46178900Y33058600D02*
X55418900Y33058600D01*
X46178900Y53298600D02*
X46178900Y33058600D01*
X55418900Y53298600D02*
X46178900Y53298600D01*
X66213631Y18969371D02*
G75*
G03*
X60858900Y19080000I-2754731J-3689371D01*
G01*
X67206484Y12581739D02*
G75*
G03*
X67308900Y17830000I-3747584J2698261D01*
G01*
X60967433Y11401200D02*
G75*
G03*
X66208900Y11580000I2491467J3878800D01*
G01*
X59629469Y17866109D02*
G75*
G03*
X59708900Y12580000I3829431J-2586109D01*
G01*
X59004413Y17963757D02*
G75*
G02*
X60608900Y19630000I4454487J-2683757D01*
G01*
X122093631Y13887971D02*
G75*
G03*
X116738900Y13998600I-2754731J-3689371D01*
G01*
X123086484Y7500339D02*
G75*
G03*
X123188900Y12748600I-3747584J2698261D01*
G01*
X116847433Y6319800D02*
G75*
G03*
X122088900Y6498600I2491467J3878800D01*
G01*
X115509469Y12784709D02*
G75*
G03*
X115588900Y7498600I3829431J-2586109D01*
G01*
X114884413Y12882357D02*
G75*
G02*
X116488900Y14548600I4454487J-2683757D01*
G01*
X41708900Y37428600D02*
X44648900Y37428600D01*
X41708900Y37668600D02*
X44648900Y37668600D01*
X41708900Y37548600D02*
X44648900Y37548600D01*
X43178900Y44578600D02*
X43178900Y42088600D01*
X43178900Y34158600D02*
X43178900Y36648600D01*
X41708900Y42088600D02*
X41708900Y36648600D01*
X44648900Y42088600D02*
X41708900Y42088600D01*
X44648900Y36648600D02*
X44648900Y42088600D01*
X41708900Y36648600D02*
X44648900Y36648600D01*
X44648900Y56548600D02*
X41708900Y56548600D01*
X44648900Y56308600D02*
X41708900Y56308600D01*
X44648900Y56428600D02*
X41708900Y56428600D01*
X43178900Y49398600D02*
X43178900Y51888600D01*
X43178900Y59818600D02*
X43178900Y57328600D01*
X44648900Y51888600D02*
X44648900Y57328600D01*
X41708900Y51888600D02*
X44648900Y51888600D01*
X41708900Y57328600D02*
X41708900Y51888600D01*
X44648900Y57328600D02*
X41708900Y57328600D01*
X11628900Y46388600D02*
X8688900Y46388600D01*
X11628900Y46148600D02*
X8688900Y46148600D01*
X11628900Y46268600D02*
X8688900Y46268600D01*
X10158900Y39238600D02*
X10158900Y41728600D01*
X10158900Y49658600D02*
X10158900Y47168600D01*
X11628900Y41728600D02*
X11628900Y47168600D01*
X8688900Y41728600D02*
X11628900Y41728600D01*
X8688900Y47168600D02*
X8688900Y41728600D01*
X11628900Y47168600D02*
X8688900Y47168600D01*
X8688900Y27268600D02*
X11628900Y27268600D01*
X8688900Y27508600D02*
X11628900Y27508600D01*
X8688900Y27388600D02*
X11628900Y27388600D01*
X10158900Y34418600D02*
X10158900Y31928600D01*
X10158900Y23998600D02*
X10158900Y26488600D01*
X8688900Y31928600D02*
X8688900Y26488600D01*
X11628900Y31928600D02*
X8688900Y31928600D01*
X11628900Y26488600D02*
X11628900Y31928600D01*
X8688900Y26488600D02*
X11628900Y26488600D01*
X70048900Y38768600D02*
X67108900Y38768600D01*
X70048900Y38528600D02*
X67108900Y38528600D01*
X70048900Y38648600D02*
X67108900Y38648600D01*
X68578900Y31618600D02*
X68578900Y34108600D01*
X68578900Y42038600D02*
X68578900Y39548600D01*
X70048900Y34108600D02*
X70048900Y39548600D01*
X67108900Y34108600D02*
X70048900Y34108600D01*
X67108900Y39548600D02*
X67108900Y34108600D01*
X70048900Y39548600D02*
X67108900Y39548600D01*
X56948900Y34888600D02*
X59888900Y34888600D01*
X56948900Y35128600D02*
X59888900Y35128600D01*
X56948900Y35008600D02*
X59888900Y35008600D01*
X58418900Y42038600D02*
X58418900Y39548600D01*
X58418900Y31618600D02*
X58418900Y34108600D01*
X56948900Y39548600D02*
X56948900Y34108600D01*
X59888900Y39548600D02*
X56948900Y39548600D01*
X59888900Y34108600D02*
X59888900Y39548600D01*
X56948900Y34108600D02*
X59888900Y34108600D01*
X115329202Y23033600D02*
X115329202Y22233600D01*
X114929202Y22633600D02*
X115729202Y22633600D01*
X123419900Y20851600D02*
X123419900Y19785600D01*
X123379900Y21086600D02*
X123379900Y19550600D01*
X123339900Y21266600D02*
X123339900Y19370600D01*
X123299900Y21416600D02*
X123299900Y19220600D01*
X123259900Y21547600D02*
X123259900Y19089600D01*
X123219900Y21664600D02*
X123219900Y18972600D01*
X123179900Y21771600D02*
X123179900Y18865600D01*
X123139900Y21870600D02*
X123139900Y18766600D01*
X123099900Y21963600D02*
X123099900Y18673600D01*
X123059900Y22049600D02*
X123059900Y18587600D01*
X123019900Y22131600D02*
X123019900Y18505600D01*
X122979900Y22208600D02*
X122979900Y18428600D01*
X122939900Y22282600D02*
X122939900Y18354600D01*
X122899900Y22352600D02*
X122899900Y18284600D01*
X122859900Y19278600D02*
X122859900Y18216600D01*
X122859900Y22420600D02*
X122859900Y21358600D01*
X122819900Y19278600D02*
X122819900Y18152600D01*
X122819900Y22484600D02*
X122819900Y21358600D01*
X122779900Y19278600D02*
X122779900Y18090600D01*
X122779900Y22546600D02*
X122779900Y21358600D01*
X122739900Y19278600D02*
X122739900Y18031600D01*
X122739900Y22605600D02*
X122739900Y21358600D01*
X122699900Y19278600D02*
X122699900Y17973600D01*
X122699900Y22663600D02*
X122699900Y21358600D01*
X122659900Y19278600D02*
X122659900Y17918600D01*
X122659900Y22718600D02*
X122659900Y21358600D01*
X122619900Y19278600D02*
X122619900Y17864600D01*
X122619900Y22772600D02*
X122619900Y21358600D01*
X122579900Y19278600D02*
X122579900Y17813600D01*
X122579900Y22823600D02*
X122579900Y21358600D01*
X122539900Y19278600D02*
X122539900Y17762600D01*
X122539900Y22874600D02*
X122539900Y21358600D01*
X122499900Y19278600D02*
X122499900Y17714600D01*
X122499900Y22922600D02*
X122499900Y21358600D01*
X122459900Y19278600D02*
X122459900Y17667600D01*
X122459900Y22969600D02*
X122459900Y21358600D01*
X122419900Y19278600D02*
X122419900Y17621600D01*
X122419900Y23015600D02*
X122419900Y21358600D01*
X122379900Y19278600D02*
X122379900Y17577600D01*
X122379900Y23059600D02*
X122379900Y21358600D01*
X122339900Y19278600D02*
X122339900Y17534600D01*
X122339900Y23102600D02*
X122339900Y21358600D01*
X122299900Y19278600D02*
X122299900Y17492600D01*
X122299900Y23144600D02*
X122299900Y21358600D01*
X122259900Y19278600D02*
X122259900Y17451600D01*
X122259900Y23185600D02*
X122259900Y21358600D01*
X122219900Y19278600D02*
X122219900Y17411600D01*
X122219900Y23225600D02*
X122219900Y21358600D01*
X122179900Y19278600D02*
X122179900Y17373600D01*
X122179900Y23263600D02*
X122179900Y21358600D01*
X122139900Y19278600D02*
X122139900Y17335600D01*
X122139900Y23301600D02*
X122139900Y21358600D01*
X122099900Y19278600D02*
X122099900Y17299600D01*
X122099900Y23337600D02*
X122099900Y21358600D01*
X122059900Y19278600D02*
X122059900Y17263600D01*
X122059900Y23373600D02*
X122059900Y21358600D01*
X122019900Y19278600D02*
X122019900Y17228600D01*
X122019900Y23408600D02*
X122019900Y21358600D01*
X121979900Y19278600D02*
X121979900Y17194600D01*
X121979900Y23442600D02*
X121979900Y21358600D01*
X121939900Y19278600D02*
X121939900Y17162600D01*
X121939900Y23474600D02*
X121939900Y21358600D01*
X121899900Y19278600D02*
X121899900Y17129600D01*
X121899900Y23507600D02*
X121899900Y21358600D01*
X121859900Y19278600D02*
X121859900Y17098600D01*
X121859900Y23538600D02*
X121859900Y21358600D01*
X121819900Y19278600D02*
X121819900Y17068600D01*
X121819900Y23568600D02*
X121819900Y21358600D01*
X121779900Y19278600D02*
X121779900Y17038600D01*
X121779900Y23598600D02*
X121779900Y21358600D01*
X121739900Y19278600D02*
X121739900Y17009600D01*
X121739900Y23627600D02*
X121739900Y21358600D01*
X121699900Y19278600D02*
X121699900Y16980600D01*
X121699900Y23656600D02*
X121699900Y21358600D01*
X121659900Y19278600D02*
X121659900Y16953600D01*
X121659900Y23683600D02*
X121659900Y21358600D01*
X121619900Y19278600D02*
X121619900Y16926600D01*
X121619900Y23710600D02*
X121619900Y21358600D01*
X121579900Y19278600D02*
X121579900Y16900600D01*
X121579900Y23736600D02*
X121579900Y21358600D01*
X121539900Y19278600D02*
X121539900Y16874600D01*
X121539900Y23762600D02*
X121539900Y21358600D01*
X121499900Y19278600D02*
X121499900Y16849600D01*
X121499900Y23787600D02*
X121499900Y21358600D01*
X121459900Y19278600D02*
X121459900Y16825600D01*
X121459900Y23811600D02*
X121459900Y21358600D01*
X121419900Y19278600D02*
X121419900Y16801600D01*
X121419900Y23835600D02*
X121419900Y21358600D01*
X121379900Y19278600D02*
X121379900Y16778600D01*
X121379900Y23858600D02*
X121379900Y21358600D01*
X121339900Y19278600D02*
X121339900Y16756600D01*
X121339900Y23880600D02*
X121339900Y21358600D01*
X121299900Y19278600D02*
X121299900Y16734600D01*
X121299900Y23902600D02*
X121299900Y21358600D01*
X121259900Y19278600D02*
X121259900Y16712600D01*
X121259900Y23924600D02*
X121259900Y21358600D01*
X121219900Y19278600D02*
X121219900Y16691600D01*
X121219900Y23945600D02*
X121219900Y21358600D01*
X121179900Y19278600D02*
X121179900Y16671600D01*
X121179900Y23965600D02*
X121179900Y21358600D01*
X121139900Y19278600D02*
X121139900Y16652600D01*
X121139900Y23984600D02*
X121139900Y21358600D01*
X121099900Y19278600D02*
X121099900Y16632600D01*
X121099900Y24004600D02*
X121099900Y21358600D01*
X121059900Y19278600D02*
X121059900Y16614600D01*
X121059900Y24022600D02*
X121059900Y21358600D01*
X121019900Y19278600D02*
X121019900Y16596600D01*
X121019900Y24040600D02*
X121019900Y21358600D01*
X120979900Y19278600D02*
X120979900Y16578600D01*
X120979900Y24058600D02*
X120979900Y21358600D01*
X120939900Y19278600D02*
X120939900Y16561600D01*
X120939900Y24075600D02*
X120939900Y21358600D01*
X120899900Y19278600D02*
X120899900Y16544600D01*
X120899900Y24092600D02*
X120899900Y21358600D01*
X120859900Y19278600D02*
X120859900Y16528600D01*
X120859900Y24108600D02*
X120859900Y21358600D01*
X120819900Y19278600D02*
X120819900Y16513600D01*
X120819900Y24123600D02*
X120819900Y21358600D01*
X120779900Y24139600D02*
X120779900Y16497600D01*
X120739900Y24153600D02*
X120739900Y16483600D01*
X120699900Y24168600D02*
X120699900Y16468600D01*
X120659900Y24181600D02*
X120659900Y16455600D01*
X120619900Y24195600D02*
X120619900Y16441600D01*
X120579900Y24207600D02*
X120579900Y16429600D01*
X120539900Y24220600D02*
X120539900Y16416600D01*
X120499900Y24232600D02*
X120499900Y16404600D01*
X120459900Y24243600D02*
X120459900Y16393600D01*
X120419900Y24254600D02*
X120419900Y16382600D01*
X120379900Y24265600D02*
X120379900Y16371600D01*
X120339900Y24275600D02*
X120339900Y16361600D01*
X120299900Y24285600D02*
X120299900Y16351600D01*
X120259900Y24294600D02*
X120259900Y16342600D01*
X120219900Y24303600D02*
X120219900Y16333600D01*
X120179900Y24312600D02*
X120179900Y16324600D01*
X120139900Y24320600D02*
X120139900Y16316600D01*
X120099900Y24328600D02*
X120099900Y16308600D01*
X120059900Y24335600D02*
X120059900Y16301600D01*
X120018900Y24342600D02*
X120018900Y16294600D01*
X119978900Y24348600D02*
X119978900Y16288600D01*
X119938900Y24355600D02*
X119938900Y16281600D01*
X119898900Y24360600D02*
X119898900Y16276600D01*
X119858900Y24366600D02*
X119858900Y16270600D01*
X119818900Y24370600D02*
X119818900Y16266600D01*
X119778900Y24375600D02*
X119778900Y16261600D01*
X119738900Y24379600D02*
X119738900Y16257600D01*
X119698900Y24383600D02*
X119698900Y16253600D01*
X119658900Y24386600D02*
X119658900Y16250600D01*
X119618900Y24389600D02*
X119618900Y16247600D01*
X119578900Y24392600D02*
X119578900Y16244600D01*
X119538900Y24394600D02*
X119538900Y16242600D01*
X119498900Y24395600D02*
X119498900Y16241600D01*
X119458900Y24397600D02*
X119458900Y16239600D01*
X119418900Y24398600D02*
X119418900Y16238600D01*
X119378900Y24398600D02*
X119378900Y16238600D01*
X119338900Y24398600D02*
X119338900Y16238600D01*
X123458900Y20318600D02*
G75*
G03*
X123458900Y20318600I-4120000J0D01*
G01*
X86358900Y48798600D02*
X86358900Y47858600D01*
X86358900Y16678600D02*
X86358900Y17618600D01*
X95478900Y21218600D02*
X95478900Y47858600D01*
X94578900Y20318600D02*
X95478900Y21218600D01*
X95478900Y19418600D02*
X94578900Y20318600D01*
X95478900Y17618600D02*
X95478900Y19418600D01*
X77238900Y21218600D02*
X77238900Y47858600D01*
X78138900Y20318600D02*
X77238900Y21218600D01*
X77238900Y19418600D02*
X78138900Y20318600D01*
X77238900Y17618600D02*
X77238900Y19418600D01*
X77238900Y47858600D02*
X95478900Y47858600D01*
X77238900Y17618600D02*
X95478900Y17618600D01*
X82858900Y16418600D02*
X84658900Y16418600D01*
X83758900Y15518600D02*
X83758900Y17318600D01*
X30308900Y54738600D02*
X25568900Y54738600D01*
X30308900Y62178600D02*
X25568900Y62178600D01*
X25568900Y62178600D02*
X25568900Y54738600D01*
X30308900Y62178600D02*
X30308900Y54738600D01*
X34158900Y30308600D02*
X34158900Y25568600D01*
X26718900Y30308600D02*
X26718900Y25568600D01*
X26718900Y25568600D02*
X34158900Y25568600D01*
X26718900Y30308600D02*
X34158900Y30308600D01*
D14*
X133167380Y19042143D02*
X132691190Y18708810D01*
X133167380Y18470715D02*
X132167380Y18470715D01*
X132167380Y18851667D01*
X132215000Y18946905D01*
X132262619Y18994524D01*
X132357857Y19042143D01*
X132500714Y19042143D01*
X132595952Y18994524D01*
X132643571Y18946905D01*
X132691190Y18851667D01*
X132691190Y18470715D01*
X133167380Y19994524D02*
X133167380Y19423096D01*
X133167380Y19708810D02*
X132167380Y19708810D01*
X132310238Y19613572D01*
X132405476Y19518334D01*
X132453095Y19423096D01*
X132167380Y20327858D02*
X132167380Y20946905D01*
X132548333Y20613572D01*
X132548333Y20756429D01*
X132595952Y20851667D01*
X132643571Y20899286D01*
X132738809Y20946905D01*
X132976904Y20946905D01*
X133072142Y20899286D01*
X133119761Y20851667D01*
X133167380Y20756429D01*
X133167380Y20470715D01*
X133119761Y20375477D01*
X133072142Y20327858D01*
X130627380Y41902143D02*
X130151190Y41568810D01*
X130627380Y41330715D02*
X129627380Y41330715D01*
X129627380Y41711667D01*
X129675000Y41806905D01*
X129722619Y41854524D01*
X129817857Y41902143D01*
X129960714Y41902143D01*
X130055952Y41854524D01*
X130103571Y41806905D01*
X130151190Y41711667D01*
X130151190Y41330715D01*
X130627380Y42854524D02*
X130627380Y42283096D01*
X130627380Y42568810D02*
X129627380Y42568810D01*
X129770238Y42473572D01*
X129865476Y42378334D01*
X129913095Y42283096D01*
X129722619Y43235477D02*
X129675000Y43283096D01*
X129627380Y43378334D01*
X129627380Y43616429D01*
X129675000Y43711667D01*
X129722619Y43759286D01*
X129817857Y43806905D01*
X129913095Y43806905D01*
X130055952Y43759286D01*
X130627380Y43187858D01*
X130627380Y43806905D01*
X125547380Y19042143D02*
X125071190Y18708810D01*
X125547380Y18470715D02*
X124547380Y18470715D01*
X124547380Y18851667D01*
X124595000Y18946905D01*
X124642619Y18994524D01*
X124737857Y19042143D01*
X124880714Y19042143D01*
X124975952Y18994524D01*
X125023571Y18946905D01*
X125071190Y18851667D01*
X125071190Y18470715D01*
X125547380Y19994524D02*
X125547380Y19423096D01*
X125547380Y19708810D02*
X124547380Y19708810D01*
X124690238Y19613572D01*
X124785476Y19518334D01*
X124833095Y19423096D01*
X125547380Y20946905D02*
X125547380Y20375477D01*
X125547380Y20661191D02*
X124547380Y20661191D01*
X124690238Y20565953D01*
X124785476Y20470715D01*
X124833095Y20375477D01*
X110307380Y36822143D02*
X109831190Y36488810D01*
X110307380Y36250715D02*
X109307380Y36250715D01*
X109307380Y36631667D01*
X109355000Y36726905D01*
X109402619Y36774524D01*
X109497857Y36822143D01*
X109640714Y36822143D01*
X109735952Y36774524D01*
X109783571Y36726905D01*
X109831190Y36631667D01*
X109831190Y36250715D01*
X110307380Y37774524D02*
X110307380Y37203096D01*
X110307380Y37488810D02*
X109307380Y37488810D01*
X109450238Y37393572D01*
X109545476Y37298334D01*
X109593095Y37203096D01*
X109307380Y38393572D02*
X109307380Y38488810D01*
X109355000Y38584048D01*
X109402619Y38631667D01*
X109497857Y38679286D01*
X109688333Y38726905D01*
X109926428Y38726905D01*
X110116904Y38679286D01*
X110212142Y38631667D01*
X110259761Y38584048D01*
X110307380Y38488810D01*
X110307380Y38393572D01*
X110259761Y38298334D01*
X110212142Y38250715D01*
X110116904Y38203096D01*
X109926428Y38155477D01*
X109688333Y38155477D01*
X109497857Y38203096D01*
X109402619Y38250715D01*
X109355000Y38298334D01*
X109307380Y38393572D01*
X115387380Y27138334D02*
X114911190Y26805000D01*
X115387380Y26566905D02*
X114387380Y26566905D01*
X114387380Y26947858D01*
X114435000Y27043096D01*
X114482619Y27090715D01*
X114577857Y27138334D01*
X114720714Y27138334D01*
X114815952Y27090715D01*
X114863571Y27043096D01*
X114911190Y26947858D01*
X114911190Y26566905D01*
X115387380Y27614524D02*
X115387380Y27805000D01*
X115339761Y27900239D01*
X115292142Y27947858D01*
X115149285Y28043096D01*
X114958809Y28090715D01*
X114577857Y28090715D01*
X114482619Y28043096D01*
X114435000Y27995477D01*
X114387380Y27900239D01*
X114387380Y27709762D01*
X114435000Y27614524D01*
X114482619Y27566905D01*
X114577857Y27519286D01*
X114815952Y27519286D01*
X114911190Y27566905D01*
X114958809Y27614524D01*
X115006428Y27709762D01*
X115006428Y27900239D01*
X114958809Y27995477D01*
X114911190Y28043096D01*
X114815952Y28090715D01*
X72207380Y30313334D02*
X71731190Y29980000D01*
X72207380Y29741905D02*
X71207380Y29741905D01*
X71207380Y30122858D01*
X71255000Y30218096D01*
X71302619Y30265715D01*
X71397857Y30313334D01*
X71540714Y30313334D01*
X71635952Y30265715D01*
X71683571Y30218096D01*
X71731190Y30122858D01*
X71731190Y29741905D01*
X71635952Y30884762D02*
X71588333Y30789524D01*
X71540714Y30741905D01*
X71445476Y30694286D01*
X71397857Y30694286D01*
X71302619Y30741905D01*
X71255000Y30789524D01*
X71207380Y30884762D01*
X71207380Y31075239D01*
X71255000Y31170477D01*
X71302619Y31218096D01*
X71397857Y31265715D01*
X71445476Y31265715D01*
X71540714Y31218096D01*
X71588333Y31170477D01*
X71635952Y31075239D01*
X71635952Y30884762D01*
X71683571Y30789524D01*
X71731190Y30741905D01*
X71826428Y30694286D01*
X72016904Y30694286D01*
X72112142Y30741905D01*
X72159761Y30789524D01*
X72207380Y30884762D01*
X72207380Y31075239D01*
X72159761Y31170477D01*
X72112142Y31218096D01*
X72016904Y31265715D01*
X71826428Y31265715D01*
X71731190Y31218096D01*
X71683571Y31170477D01*
X71635952Y31075239D01*
X62047380Y30311934D02*
X61571190Y29978600D01*
X62047380Y29740505D02*
X61047380Y29740505D01*
X61047380Y30121458D01*
X61095000Y30216696D01*
X61142619Y30264315D01*
X61237857Y30311934D01*
X61380714Y30311934D01*
X61475952Y30264315D01*
X61523571Y30216696D01*
X61571190Y30121458D01*
X61571190Y29740505D01*
X61047380Y30645267D02*
X61047380Y31311934D01*
X62047380Y30883362D01*
X41091280Y35391934D02*
X40615090Y35058600D01*
X41091280Y34820505D02*
X40091280Y34820505D01*
X40091280Y35201458D01*
X40138900Y35296696D01*
X40186519Y35344315D01*
X40281757Y35391934D01*
X40424614Y35391934D01*
X40519852Y35344315D01*
X40567471Y35296696D01*
X40615090Y35201458D01*
X40615090Y34820505D01*
X40091280Y36296696D02*
X40091280Y35820505D01*
X40567471Y35772886D01*
X40519852Y35820505D01*
X40472233Y35915743D01*
X40472233Y36153839D01*
X40519852Y36249077D01*
X40567471Y36296696D01*
X40662709Y36344315D01*
X40900804Y36344315D01*
X40996042Y36296696D01*
X41043661Y36249077D01*
X41091280Y36153839D01*
X41091280Y35915743D01*
X41043661Y35820505D01*
X40996042Y35772886D01*
X18867380Y48091934D02*
X18391190Y47758600D01*
X18867380Y47520505D02*
X17867380Y47520505D01*
X17867380Y47901458D01*
X17915000Y47996696D01*
X17962619Y48044315D01*
X18057857Y48091934D01*
X18200714Y48091934D01*
X18295952Y48044315D01*
X18343571Y47996696D01*
X18391190Y47901458D01*
X18391190Y47520505D01*
X18200714Y48949077D02*
X18867380Y48949077D01*
X17819761Y48710981D02*
X18534047Y48472886D01*
X18534047Y49091934D01*
X13787380Y35393334D02*
X13311190Y35060000D01*
X13787380Y34821905D02*
X12787380Y34821905D01*
X12787380Y35202858D01*
X12835000Y35298096D01*
X12882619Y35345715D01*
X12977857Y35393334D01*
X13120714Y35393334D01*
X13215952Y35345715D01*
X13263571Y35298096D01*
X13311190Y35202858D01*
X13311190Y34821905D01*
X12787380Y35726667D02*
X12787380Y36345715D01*
X13168333Y36012381D01*
X13168333Y36155239D01*
X13215952Y36250477D01*
X13263571Y36298096D01*
X13358809Y36345715D01*
X13596904Y36345715D01*
X13692142Y36298096D01*
X13739761Y36250477D01*
X13787380Y36155239D01*
X13787380Y35869524D01*
X13739761Y35774286D01*
X13692142Y35726667D01*
X16961280Y9991934D02*
X16485090Y9658600D01*
X16961280Y9420505D02*
X15961280Y9420505D01*
X15961280Y9801458D01*
X16008900Y9896696D01*
X16056519Y9944315D01*
X16151757Y9991934D01*
X16294614Y9991934D01*
X16389852Y9944315D01*
X16437471Y9896696D01*
X16485090Y9801458D01*
X16485090Y9420505D01*
X16056519Y10372886D02*
X16008900Y10420505D01*
X15961280Y10515743D01*
X15961280Y10753839D01*
X16008900Y10849077D01*
X16056519Y10896696D01*
X16151757Y10944315D01*
X16246995Y10944315D01*
X16389852Y10896696D01*
X16961280Y10325267D01*
X16961280Y10944315D01*
X13151280Y4911934D02*
X12675090Y4578600D01*
X13151280Y4340505D02*
X12151280Y4340505D01*
X12151280Y4721458D01*
X12198900Y4816696D01*
X12246519Y4864315D01*
X12341757Y4911934D01*
X12484614Y4911934D01*
X12579852Y4864315D01*
X12627471Y4816696D01*
X12675090Y4721458D01*
X12675090Y4340505D01*
X13151280Y5864315D02*
X13151280Y5292886D01*
X13151280Y5578600D02*
X12151280Y5578600D01*
X12294138Y5483362D01*
X12389376Y5388124D01*
X12436995Y5292886D01*
X26982142Y31517620D02*
X26648809Y31993810D01*
X26410714Y31517620D02*
X26410714Y32517620D01*
X26791666Y32517620D01*
X26886904Y32470000D01*
X26934523Y32422381D01*
X26982142Y32327143D01*
X26982142Y32184286D01*
X26934523Y32089048D01*
X26886904Y32041429D01*
X26791666Y31993810D01*
X26410714Y31993810D01*
X27934523Y31517620D02*
X27363095Y31517620D01*
X27648809Y31517620D02*
X27648809Y32517620D01*
X27553571Y32374762D01*
X27458333Y32279524D01*
X27363095Y32231905D01*
X28791666Y32184286D02*
X28791666Y31517620D01*
X28553571Y32565239D02*
X28315476Y31850953D01*
X28934523Y31850953D01*
X38411042Y6116220D02*
X38077709Y6592410D01*
X37839614Y6116220D02*
X37839614Y7116220D01*
X38220566Y7116220D01*
X38315804Y7068600D01*
X38363423Y7020981D01*
X38411042Y6925743D01*
X38411042Y6782886D01*
X38363423Y6687648D01*
X38315804Y6640029D01*
X38220566Y6592410D01*
X37839614Y6592410D01*
X39363423Y6116220D02*
X38791995Y6116220D01*
X39077709Y6116220D02*
X39077709Y7116220D01*
X38982471Y6973362D01*
X38887233Y6878124D01*
X38791995Y6830505D01*
X40268185Y7116220D02*
X39791995Y7116220D01*
X39744376Y6640029D01*
X39791995Y6687648D01*
X39887233Y6735267D01*
X40125328Y6735267D01*
X40220566Y6687648D01*
X40268185Y6640029D01*
X40315804Y6544791D01*
X40315804Y6306696D01*
X40268185Y6211458D01*
X40220566Y6163839D01*
X40125328Y6116220D01*
X39887233Y6116220D01*
X39791995Y6163839D01*
X39744376Y6211458D01*
X22693333Y7262858D02*
X22645714Y7215239D01*
X22502857Y7167620D01*
X22407619Y7167620D01*
X22264761Y7215239D01*
X22169523Y7310477D01*
X22121904Y7405715D01*
X22074285Y7596191D01*
X22074285Y7739048D01*
X22121904Y7929524D01*
X22169523Y8024762D01*
X22264761Y8120000D01*
X22407619Y8167620D01*
X22502857Y8167620D01*
X22645714Y8120000D01*
X22693333Y8072381D01*
X23645714Y7167620D02*
X23074285Y7167620D01*
X23360000Y7167620D02*
X23360000Y8167620D01*
X23264761Y8024762D01*
X23169523Y7929524D01*
X23074285Y7881905D01*
X70912233Y27751458D02*
X70864614Y27703839D01*
X70721757Y27656220D01*
X70626519Y27656220D01*
X70483661Y27703839D01*
X70388423Y27799077D01*
X70340804Y27894315D01*
X70293185Y28084791D01*
X70293185Y28227648D01*
X70340804Y28418124D01*
X70388423Y28513362D01*
X70483661Y28608600D01*
X70626519Y28656220D01*
X70721757Y28656220D01*
X70864614Y28608600D01*
X70912233Y28560981D01*
X71769376Y28322886D02*
X71769376Y27656220D01*
X71531280Y28703839D02*
X71293185Y27989553D01*
X71912233Y27989553D01*
X100979852Y48758600D02*
X100884614Y48806220D01*
X100741757Y48806220D01*
X100598900Y48758600D01*
X100503661Y48663362D01*
X100456042Y48568124D01*
X100408423Y48377648D01*
X100408423Y48234791D01*
X100456042Y48044315D01*
X100503661Y47949077D01*
X100598900Y47853839D01*
X100741757Y47806220D01*
X100836995Y47806220D01*
X100979852Y47853839D01*
X101027471Y47901458D01*
X101027471Y48234791D01*
X100836995Y48234791D01*
X101932233Y47806220D02*
X101456042Y47806220D01*
X101456042Y48806220D01*
X102170328Y48806220D02*
X102789376Y48806220D01*
X102456042Y48425267D01*
X102598900Y48425267D01*
X102694138Y48377648D01*
X102741757Y48330029D01*
X102789376Y48234791D01*
X102789376Y47996696D01*
X102741757Y47901458D01*
X102694138Y47853839D01*
X102598900Y47806220D01*
X102313185Y47806220D01*
X102217947Y47853839D01*
X102170328Y47901458D01*
X37765566Y27851220D02*
X37765566Y27136934D01*
X37717947Y26994077D01*
X37622709Y26898839D01*
X37479852Y26851220D01*
X37384614Y26851220D01*
X38765566Y26851220D02*
X38194138Y26851220D01*
X38479852Y26851220D02*
X38479852Y27851220D01*
X38384614Y27708362D01*
X38289376Y27613124D01*
X38194138Y27565505D01*
X24001995Y53886220D02*
X24573423Y53886220D01*
X24287709Y52886220D02*
X24287709Y53886220D01*
X24811519Y53886220D02*
X25430566Y53886220D01*
X25097233Y53505267D01*
X25240090Y53505267D01*
X25335328Y53457648D01*
X25382947Y53410029D01*
X25430566Y53314791D01*
X25430566Y53076696D01*
X25382947Y52981458D01*
X25335328Y52933839D01*
X25240090Y52886220D01*
X24954376Y52886220D01*
X24859138Y52933839D01*
X24811519Y52981458D01*
X1991280Y3792886D02*
X2991280Y4459553D01*
X1991280Y4459553D02*
X2991280Y3792886D01*
X2991280Y5364315D02*
X2991280Y4792886D01*
X2991280Y5078600D02*
X1991280Y5078600D01*
X2134138Y4983362D01*
X2229376Y4888124D01*
X2276995Y4792886D01*
X1991280Y6269077D02*
X1991280Y5792886D01*
X2467471Y5745267D01*
X2419852Y5792886D01*
X2372233Y5888124D01*
X2372233Y6126220D01*
X2419852Y6221458D01*
X2467471Y6269077D01*
X2562709Y6316696D01*
X2800804Y6316696D01*
X2896042Y6269077D01*
X2943661Y6221458D01*
X2991280Y6126220D01*
X2991280Y5888124D01*
X2943661Y5792886D01*
X2896042Y5745267D01*
X1991280Y11412886D02*
X2991280Y12079553D01*
X1991280Y12079553D02*
X2991280Y11412886D01*
X2991280Y12984315D02*
X2991280Y12412886D01*
X2991280Y12698600D02*
X1991280Y12698600D01*
X2134138Y12603362D01*
X2229376Y12508124D01*
X2276995Y12412886D01*
X2324614Y13841458D02*
X2991280Y13841458D01*
X1943661Y13603362D02*
X2657947Y13365267D01*
X2657947Y13984315D01*
X1991280Y19032886D02*
X2991280Y19699553D01*
X1991280Y19699553D02*
X2991280Y19032886D01*
X2991280Y20604315D02*
X2991280Y20032886D01*
X2991280Y20318600D02*
X1991280Y20318600D01*
X2134138Y20223362D01*
X2229376Y20128124D01*
X2276995Y20032886D01*
X1991280Y20937648D02*
X1991280Y21556696D01*
X2372233Y21223362D01*
X2372233Y21366220D01*
X2419852Y21461458D01*
X2467471Y21509077D01*
X2562709Y21556696D01*
X2800804Y21556696D01*
X2896042Y21509077D01*
X2943661Y21461458D01*
X2991280Y21366220D01*
X2991280Y21080505D01*
X2943661Y20985267D01*
X2896042Y20937648D01*
X1991280Y26652886D02*
X2991280Y27319553D01*
X1991280Y27319553D02*
X2991280Y26652886D01*
X2991280Y28224315D02*
X2991280Y27652886D01*
X2991280Y27938600D02*
X1991280Y27938600D01*
X2134138Y27843362D01*
X2229376Y27748124D01*
X2276995Y27652886D01*
X2086519Y28605267D02*
X2038900Y28652886D01*
X1991280Y28748124D01*
X1991280Y28986220D01*
X2038900Y29081458D01*
X2086519Y29129077D01*
X2181757Y29176696D01*
X2276995Y29176696D01*
X2419852Y29129077D01*
X2991280Y28557648D01*
X2991280Y29176696D01*
X136611280Y3792886D02*
X137611280Y4459553D01*
X136611280Y4459553D02*
X137611280Y3792886D01*
X137611280Y5364315D02*
X137611280Y4792886D01*
X137611280Y5078600D02*
X136611280Y5078600D01*
X136754138Y4983362D01*
X136849376Y4888124D01*
X136896995Y4792886D01*
X137611280Y6316696D02*
X137611280Y5745267D01*
X137611280Y6030981D02*
X136611280Y6030981D01*
X136754138Y5935743D01*
X136849376Y5840505D01*
X136896995Y5745267D01*
X136611280Y8872886D02*
X137611280Y9539553D01*
X136611280Y9539553D02*
X137611280Y8872886D01*
X137611280Y10444315D02*
X137611280Y9872886D01*
X137611280Y10158600D02*
X136611280Y10158600D01*
X136754138Y10063362D01*
X136849376Y9968124D01*
X136896995Y9872886D01*
X136611280Y11063362D02*
X136611280Y11158600D01*
X136658900Y11253839D01*
X136706519Y11301458D01*
X136801757Y11349077D01*
X136992233Y11396696D01*
X137230328Y11396696D01*
X137420804Y11349077D01*
X137516042Y11301458D01*
X137563661Y11253839D01*
X137611280Y11158600D01*
X137611280Y11063362D01*
X137563661Y10968124D01*
X137516042Y10920505D01*
X137420804Y10872886D01*
X137230328Y10825267D01*
X136992233Y10825267D01*
X136801757Y10872886D01*
X136706519Y10920505D01*
X136658900Y10968124D01*
X136611280Y11063362D01*
X136611280Y14429077D02*
X137611280Y15095743D01*
X136611280Y15095743D02*
X137611280Y14429077D01*
X137611280Y15524315D02*
X137611280Y15714791D01*
X137563661Y15810029D01*
X137516042Y15857648D01*
X137373185Y15952886D01*
X137182709Y16000505D01*
X136801757Y16000505D01*
X136706519Y15952886D01*
X136658900Y15905267D01*
X136611280Y15810029D01*
X136611280Y15619553D01*
X136658900Y15524315D01*
X136706519Y15476696D01*
X136801757Y15429077D01*
X137039852Y15429077D01*
X137135090Y15476696D01*
X137182709Y15524315D01*
X137230328Y15619553D01*
X137230328Y15810029D01*
X137182709Y15905267D01*
X137135090Y15952886D01*
X137039852Y16000505D01*
X1991280Y60149077D02*
X2991280Y60815743D01*
X1991280Y60815743D02*
X2991280Y60149077D01*
X2419852Y61339553D02*
X2372233Y61244315D01*
X2324614Y61196696D01*
X2229376Y61149077D01*
X2181757Y61149077D01*
X2086519Y61196696D01*
X2038900Y61244315D01*
X1991280Y61339553D01*
X1991280Y61530029D01*
X2038900Y61625267D01*
X2086519Y61672886D01*
X2181757Y61720505D01*
X2229376Y61720505D01*
X2324614Y61672886D01*
X2372233Y61625267D01*
X2419852Y61530029D01*
X2419852Y61339553D01*
X2467471Y61244315D01*
X2515090Y61196696D01*
X2610328Y61149077D01*
X2800804Y61149077D01*
X2896042Y61196696D01*
X2943661Y61244315D01*
X2991280Y61339553D01*
X2991280Y61530029D01*
X2943661Y61625267D01*
X2896042Y61672886D01*
X2800804Y61720505D01*
X2610328Y61720505D01*
X2515090Y61672886D01*
X2467471Y61625267D01*
X2419852Y61530029D01*
X1991280Y52529077D02*
X2991280Y53195743D01*
X1991280Y53195743D02*
X2991280Y52529077D01*
X1991280Y53481458D02*
X1991280Y54148124D01*
X2991280Y53719553D01*
X55069376Y3086220D02*
X55736042Y2086220D01*
X55736042Y3086220D02*
X55069376Y2086220D01*
X56545566Y3086220D02*
X56355090Y3086220D01*
X56259852Y3038600D01*
X56212233Y2990981D01*
X56116995Y2848124D01*
X56069376Y2657648D01*
X56069376Y2276696D01*
X56116995Y2181458D01*
X56164614Y2133839D01*
X56259852Y2086220D01*
X56450328Y2086220D01*
X56545566Y2133839D01*
X56593185Y2181458D01*
X56640804Y2276696D01*
X56640804Y2514791D01*
X56593185Y2610029D01*
X56545566Y2657648D01*
X56450328Y2705267D01*
X56259852Y2705267D01*
X56164614Y2657648D01*
X56116995Y2610029D01*
X56069376Y2514791D01*
X62689376Y3086220D02*
X63356042Y2086220D01*
X63356042Y3086220D02*
X62689376Y2086220D01*
X64213185Y3086220D02*
X63736995Y3086220D01*
X63689376Y2610029D01*
X63736995Y2657648D01*
X63832233Y2705267D01*
X64070328Y2705267D01*
X64165566Y2657648D01*
X64213185Y2610029D01*
X64260804Y2514791D01*
X64260804Y2276696D01*
X64213185Y2181458D01*
X64165566Y2133839D01*
X64070328Y2086220D01*
X63832233Y2086220D01*
X63736995Y2133839D01*
X63689376Y2181458D01*
X70309376Y3086220D02*
X70976042Y2086220D01*
X70976042Y3086220D02*
X70309376Y2086220D01*
X71785566Y2752886D02*
X71785566Y2086220D01*
X71547471Y3133839D02*
X71309376Y2419553D01*
X71928423Y2419553D01*
X77929376Y3086220D02*
X78596042Y2086220D01*
X78596042Y3086220D02*
X77929376Y2086220D01*
X78881757Y3086220D02*
X79500804Y3086220D01*
X79167471Y2705267D01*
X79310328Y2705267D01*
X79405566Y2657648D01*
X79453185Y2610029D01*
X79500804Y2514791D01*
X79500804Y2276696D01*
X79453185Y2181458D01*
X79405566Y2133839D01*
X79310328Y2086220D01*
X79024614Y2086220D01*
X78929376Y2133839D01*
X78881757Y2181458D01*
X105869376Y3086220D02*
X106536042Y2086220D01*
X106536042Y3086220D02*
X105869376Y2086220D01*
X106869376Y2990981D02*
X106916995Y3038600D01*
X107012233Y3086220D01*
X107250328Y3086220D01*
X107345566Y3038600D01*
X107393185Y2990981D01*
X107440804Y2895743D01*
X107440804Y2800505D01*
X107393185Y2657648D01*
X106821757Y2086220D01*
X107440804Y2086220D01*
X110949376Y3086220D02*
X111616042Y2086220D01*
X111616042Y3086220D02*
X110949376Y2086220D01*
X112520804Y2086220D02*
X111949376Y2086220D01*
X112235090Y2086220D02*
X112235090Y3086220D01*
X112139852Y2943362D01*
X112044614Y2848124D01*
X111949376Y2800505D01*
X123696995Y46901220D02*
X124268423Y46901220D01*
X123982709Y45901220D02*
X123982709Y46901220D01*
X124744614Y46472648D02*
X124649376Y46520267D01*
X124601757Y46567886D01*
X124554138Y46663124D01*
X124554138Y46710743D01*
X124601757Y46805981D01*
X124649376Y46853600D01*
X124744614Y46901220D01*
X124935090Y46901220D01*
X125030328Y46853600D01*
X125077947Y46805981D01*
X125125566Y46710743D01*
X125125566Y46663124D01*
X125077947Y46567886D01*
X125030328Y46520267D01*
X124935090Y46472648D01*
X124744614Y46472648D01*
X124649376Y46425029D01*
X124601757Y46377410D01*
X124554138Y46282172D01*
X124554138Y46091696D01*
X124601757Y45996458D01*
X124649376Y45948839D01*
X124744614Y45901220D01*
X124935090Y45901220D01*
X125030328Y45948839D01*
X125077947Y45996458D01*
X125125566Y46091696D01*
X125125566Y46282172D01*
X125077947Y46377410D01*
X125030328Y46425029D01*
X124935090Y46472648D01*
X123696995Y58966220D02*
X124268423Y58966220D01*
X123982709Y57966220D02*
X123982709Y58966220D01*
X124506519Y58966220D02*
X125173185Y58966220D01*
X124744614Y57966220D01*
X112901995Y58966220D02*
X113473423Y58966220D01*
X113187709Y57966220D02*
X113187709Y58966220D01*
X114235328Y58966220D02*
X114044852Y58966220D01*
X113949614Y58918600D01*
X113901995Y58870981D01*
X113806757Y58728124D01*
X113759138Y58537648D01*
X113759138Y58156696D01*
X113806757Y58061458D01*
X113854376Y58013839D01*
X113949614Y57966220D01*
X114140090Y57966220D01*
X114235328Y58013839D01*
X114282947Y58061458D01*
X114330566Y58156696D01*
X114330566Y58394791D01*
X114282947Y58490029D01*
X114235328Y58537648D01*
X114140090Y58585267D01*
X113949614Y58585267D01*
X113854376Y58537648D01*
X113806757Y58490029D01*
X113759138Y58394791D01*
X65911995Y54521220D02*
X66483423Y54521220D01*
X66197709Y53521220D02*
X66197709Y54521220D01*
X67292947Y54521220D02*
X66816757Y54521220D01*
X66769138Y54045029D01*
X66816757Y54092648D01*
X66911995Y54140267D01*
X67150090Y54140267D01*
X67245328Y54092648D01*
X67292947Y54045029D01*
X67340566Y53949791D01*
X67340566Y53711696D01*
X67292947Y53616458D01*
X67245328Y53568839D01*
X67150090Y53521220D01*
X66911995Y53521220D01*
X66816757Y53568839D01*
X66769138Y53616458D01*
X37336995Y61506220D02*
X37908423Y61506220D01*
X37622709Y60506220D02*
X37622709Y61506220D01*
X38670328Y61172886D02*
X38670328Y60506220D01*
X38432233Y61553839D02*
X38194138Y60839553D01*
X38813185Y60839553D01*
X12571995Y61506220D02*
X13143423Y61506220D01*
X12857709Y60506220D02*
X12857709Y61506220D01*
X13429138Y61410981D02*
X13476757Y61458600D01*
X13571995Y61506220D01*
X13810090Y61506220D01*
X13905328Y61458600D01*
X13952947Y61410981D01*
X14000566Y61315743D01*
X14000566Y61220505D01*
X13952947Y61077648D01*
X13381519Y60506220D01*
X14000566Y60506220D01*
X19558095Y27852620D02*
X20129523Y27852620D01*
X19843809Y26852620D02*
X19843809Y27852620D01*
X20986666Y26852620D02*
X20415238Y26852620D01*
X20700952Y26852620D02*
X20700952Y27852620D01*
X20605714Y27709762D01*
X20510476Y27614524D01*
X20415238Y27566905D01*
X48711280Y27771934D02*
X48235090Y27438600D01*
X48711280Y27200505D02*
X47711280Y27200505D01*
X47711280Y27581458D01*
X47758900Y27676696D01*
X47806519Y27724315D01*
X47901757Y27771934D01*
X48044614Y27771934D01*
X48139852Y27724315D01*
X48187471Y27676696D01*
X48235090Y27581458D01*
X48235090Y27200505D01*
X47711280Y28629077D02*
X47711280Y28438600D01*
X47758900Y28343362D01*
X47806519Y28295743D01*
X47949376Y28200505D01*
X48139852Y28152886D01*
X48520804Y28152886D01*
X48616042Y28200505D01*
X48663661Y28248124D01*
X48711280Y28343362D01*
X48711280Y28533839D01*
X48663661Y28629077D01*
X48616042Y28676696D01*
X48520804Y28724315D01*
X48282709Y28724315D01*
X48187471Y28676696D01*
X48139852Y28629077D01*
X48092233Y28533839D01*
X48092233Y28343362D01*
X48139852Y28248124D01*
X48187471Y28200505D01*
X48282709Y28152886D01*
X62879852Y21455000D02*
X62784614Y21502620D01*
X62641757Y21502620D01*
X62498900Y21455000D01*
X62403661Y21359762D01*
X62356042Y21264524D01*
X62308423Y21074048D01*
X62308423Y20931191D01*
X62356042Y20740715D01*
X62403661Y20645477D01*
X62498900Y20550239D01*
X62641757Y20502620D01*
X62736995Y20502620D01*
X62879852Y20550239D01*
X62927471Y20597858D01*
X62927471Y20931191D01*
X62736995Y20931191D01*
X63832233Y20502620D02*
X63356042Y20502620D01*
X63356042Y21502620D01*
X64689376Y20502620D02*
X64117947Y20502620D01*
X64403661Y20502620D02*
X64403661Y21502620D01*
X64308423Y21359762D01*
X64213185Y21264524D01*
X64117947Y21216905D01*
X123205952Y15105000D02*
X123110714Y15152620D01*
X122967857Y15152620D01*
X122825000Y15105000D01*
X122729761Y15009762D01*
X122682142Y14914524D01*
X122634523Y14724048D01*
X122634523Y14581191D01*
X122682142Y14390715D01*
X122729761Y14295477D01*
X122825000Y14200239D01*
X122967857Y14152620D01*
X123063095Y14152620D01*
X123205952Y14200239D01*
X123253571Y14247858D01*
X123253571Y14581191D01*
X123063095Y14581191D01*
X124158333Y14152620D02*
X123682142Y14152620D01*
X123682142Y15152620D01*
X124444047Y15057381D02*
X124491666Y15105000D01*
X124586904Y15152620D01*
X124825000Y15152620D01*
X124920238Y15105000D01*
X124967857Y15057381D01*
X125015476Y14962143D01*
X125015476Y14866905D01*
X124967857Y14724048D01*
X124396428Y14152620D01*
X125015476Y14152620D01*
X41726280Y32280505D02*
X40726280Y32280505D01*
X40726280Y32518600D01*
X40773900Y32661458D01*
X40869138Y32756696D01*
X40964376Y32804315D01*
X41154852Y32851934D01*
X41297709Y32851934D01*
X41488185Y32804315D01*
X41583423Y32756696D01*
X41678661Y32661458D01*
X41726280Y32518600D01*
X41726280Y32280505D01*
X40726280Y33709077D02*
X40726280Y33518600D01*
X40773900Y33423362D01*
X40821519Y33375743D01*
X40964376Y33280505D01*
X41154852Y33232886D01*
X41535804Y33232886D01*
X41631042Y33280505D01*
X41678661Y33328124D01*
X41726280Y33423362D01*
X41726280Y33613839D01*
X41678661Y33709077D01*
X41631042Y33756696D01*
X41535804Y33804315D01*
X41297709Y33804315D01*
X41202471Y33756696D01*
X41154852Y33709077D01*
X41107233Y33613839D01*
X41107233Y33423362D01*
X41154852Y33328124D01*
X41202471Y33280505D01*
X41297709Y33232886D01*
X45536280Y32756696D02*
X44536280Y32756696D01*
X45536280Y33328124D02*
X44964852Y32899553D01*
X44536280Y33328124D02*
X45107709Y32756696D01*
X41726280Y60220505D02*
X40726280Y60220505D01*
X40726280Y60458600D01*
X40773900Y60601458D01*
X40869138Y60696696D01*
X40964376Y60744315D01*
X41154852Y60791934D01*
X41297709Y60791934D01*
X41488185Y60744315D01*
X41583423Y60696696D01*
X41678661Y60601458D01*
X41726280Y60458600D01*
X41726280Y60220505D01*
X40726280Y61696696D02*
X40726280Y61220505D01*
X41202471Y61172886D01*
X41154852Y61220505D01*
X41107233Y61315743D01*
X41107233Y61553839D01*
X41154852Y61649077D01*
X41202471Y61696696D01*
X41297709Y61744315D01*
X41535804Y61744315D01*
X41631042Y61696696D01*
X41678661Y61649077D01*
X41726280Y61553839D01*
X41726280Y61315743D01*
X41678661Y61220505D01*
X41631042Y61172886D01*
X45531280Y60696696D02*
X44531280Y60696696D01*
X45531280Y61268124D02*
X44959852Y60839553D01*
X44531280Y61268124D02*
X45102709Y60696696D01*
X8706280Y50060505D02*
X7706280Y50060505D01*
X7706280Y50298600D01*
X7753900Y50441458D01*
X7849138Y50536696D01*
X7944376Y50584315D01*
X8134852Y50631934D01*
X8277709Y50631934D01*
X8468185Y50584315D01*
X8563423Y50536696D01*
X8658661Y50441458D01*
X8706280Y50298600D01*
X8706280Y50060505D01*
X8039614Y51489077D02*
X8706280Y51489077D01*
X7658661Y51250981D02*
X8372947Y51012886D01*
X8372947Y51631934D01*
X12511280Y50536696D02*
X11511280Y50536696D01*
X12511280Y51108124D02*
X11939852Y50679553D01*
X11511280Y51108124D02*
X12082709Y50536696D01*
X8580380Y33805905D02*
X7580380Y33805905D01*
X7580380Y34044000D01*
X7628000Y34186858D01*
X7723238Y34282096D01*
X7818476Y34329715D01*
X8008952Y34377334D01*
X8151809Y34377334D01*
X8342285Y34329715D01*
X8437523Y34282096D01*
X8532761Y34186858D01*
X8580380Y34044000D01*
X8580380Y33805905D01*
X7580380Y34710667D02*
X7580380Y35329715D01*
X7961333Y34996381D01*
X7961333Y35139239D01*
X8008952Y35234477D01*
X8056571Y35282096D01*
X8151809Y35329715D01*
X8389904Y35329715D01*
X8485142Y35282096D01*
X8532761Y35234477D01*
X8580380Y35139239D01*
X8580380Y34853524D01*
X8532761Y34758286D01*
X8485142Y34710667D01*
X11881280Y24501696D02*
X10881280Y24501696D01*
X11881280Y25073124D02*
X11309852Y24644553D01*
X10881280Y25073124D02*
X11452709Y24501696D01*
X67126280Y29740505D02*
X66126280Y29740505D01*
X66126280Y29978600D01*
X66173900Y30121458D01*
X66269138Y30216696D01*
X66364376Y30264315D01*
X66554852Y30311934D01*
X66697709Y30311934D01*
X66888185Y30264315D01*
X66983423Y30216696D01*
X67078661Y30121458D01*
X67126280Y29978600D01*
X67126280Y29740505D01*
X66221519Y30692886D02*
X66173900Y30740505D01*
X66126280Y30835743D01*
X66126280Y31073839D01*
X66173900Y31169077D01*
X66221519Y31216696D01*
X66316757Y31264315D01*
X66411995Y31264315D01*
X66554852Y31216696D01*
X67126280Y30645267D01*
X67126280Y31264315D01*
X70931280Y42916696D02*
X69931280Y42916696D01*
X70931280Y43488124D02*
X70359852Y43059553D01*
X69931280Y43488124D02*
X70502709Y42916696D01*
X56966280Y29740505D02*
X55966280Y29740505D01*
X55966280Y29978600D01*
X56013900Y30121458D01*
X56109138Y30216696D01*
X56204376Y30264315D01*
X56394852Y30311934D01*
X56537709Y30311934D01*
X56728185Y30264315D01*
X56823423Y30216696D01*
X56918661Y30121458D01*
X56966280Y29978600D01*
X56966280Y29740505D01*
X56966280Y31264315D02*
X56966280Y30692886D01*
X56966280Y30978600D02*
X55966280Y30978600D01*
X56109138Y30883362D01*
X56204376Y30788124D01*
X56251995Y30692886D01*
X60141280Y32121696D02*
X59141280Y32121696D01*
X60141280Y32693124D02*
X59569852Y32264553D01*
X59141280Y32693124D02*
X59712709Y32121696D01*
X113497233Y19961458D02*
X113449614Y19913839D01*
X113306757Y19866220D01*
X113211519Y19866220D01*
X113068661Y19913839D01*
X112973423Y20009077D01*
X112925804Y20104315D01*
X112878185Y20294791D01*
X112878185Y20437648D01*
X112925804Y20628124D01*
X112973423Y20723362D01*
X113068661Y20818600D01*
X113211519Y20866220D01*
X113306757Y20866220D01*
X113449614Y20818600D01*
X113497233Y20770981D01*
X114354376Y20866220D02*
X114163900Y20866220D01*
X114068661Y20818600D01*
X114021042Y20770981D01*
X113925804Y20628124D01*
X113878185Y20437648D01*
X113878185Y20056696D01*
X113925804Y19961458D01*
X113973423Y19913839D01*
X114068661Y19866220D01*
X114259138Y19866220D01*
X114354376Y19913839D01*
X114401995Y19961458D01*
X114449614Y20056696D01*
X114449614Y20294791D01*
X114401995Y20390029D01*
X114354376Y20437648D01*
X114259138Y20485267D01*
X114068661Y20485267D01*
X113973423Y20437648D01*
X113925804Y20390029D01*
X113878185Y20294791D01*
X79207233Y49806458D02*
X79159614Y49758839D01*
X79016757Y49711220D01*
X78921519Y49711220D01*
X78778661Y49758839D01*
X78683423Y49854077D01*
X78635804Y49949315D01*
X78588185Y50139791D01*
X78588185Y50282648D01*
X78635804Y50473124D01*
X78683423Y50568362D01*
X78778661Y50663600D01*
X78921519Y50711220D01*
X79016757Y50711220D01*
X79159614Y50663600D01*
X79207233Y50615981D01*
X80111995Y50711220D02*
X79635804Y50711220D01*
X79588185Y50235029D01*
X79635804Y50282648D01*
X79731042Y50330267D01*
X79969138Y50330267D01*
X80064376Y50282648D01*
X80111995Y50235029D01*
X80159614Y50139791D01*
X80159614Y49901696D01*
X80111995Y49806458D01*
X80064376Y49758839D01*
X79969138Y49711220D01*
X79731042Y49711220D01*
X79635804Y49758839D01*
X79588185Y49806458D01*
X25121042Y60791934D02*
X25168661Y60744315D01*
X25216280Y60601458D01*
X25216280Y60506220D01*
X25168661Y60363362D01*
X25073423Y60268124D01*
X24978185Y60220505D01*
X24787709Y60172886D01*
X24644852Y60172886D01*
X24454376Y60220505D01*
X24359138Y60268124D01*
X24263900Y60363362D01*
X24216280Y60506220D01*
X24216280Y60601458D01*
X24263900Y60744315D01*
X24311519Y60791934D01*
X24216280Y61125267D02*
X24216280Y61744315D01*
X24597233Y61410981D01*
X24597233Y61553839D01*
X24644852Y61649077D01*
X24692471Y61696696D01*
X24787709Y61744315D01*
X25025804Y61744315D01*
X25121042Y61696696D01*
X25168661Y61649077D01*
X25216280Y61553839D01*
X25216280Y61268124D01*
X25168661Y61172886D01*
X25121042Y61125267D01*
X30272233Y31081458D02*
X30224614Y31033839D01*
X30081757Y30986220D01*
X29986519Y30986220D01*
X29843661Y31033839D01*
X29748423Y31129077D01*
X29700804Y31224315D01*
X29653185Y31414791D01*
X29653185Y31557648D01*
X29700804Y31748124D01*
X29748423Y31843362D01*
X29843661Y31938600D01*
X29986519Y31986220D01*
X30081757Y31986220D01*
X30224614Y31938600D01*
X30272233Y31890981D01*
X30653185Y31890981D02*
X30700804Y31938600D01*
X30796042Y31986220D01*
X31034138Y31986220D01*
X31129376Y31938600D01*
X31176995Y31890981D01*
X31224614Y31795743D01*
X31224614Y31700505D01*
X31176995Y31557648D01*
X30605566Y30986220D01*
X31224614Y30986220D01*
M02*
