G04 #@! TF.GenerationSoftware,KiCad,Pcbnew,5.1.7-a382d34a8~87~ubuntu20.04.1*
G04 #@! TF.CreationDate,2020-11-19T22:53:55+01:00*
G04 #@! TF.ProjectId,HTL Netzger_t,48544c20-4e65-4747-9a67-6572e4742e6b,V2.1*
G04 #@! TF.SameCoordinates,PX4b045ecPY8378e28*
G04 #@! TF.FileFunction,Copper,L2,Bot*
G04 #@! TF.FilePolarity,Positive*
%FSLAX46Y46*%
G04 Gerber Fmt 4.6, Leading zero omitted, Abs format (unit mm)*
G04 Created by KiCad (PCBNEW 5.1.7-a382d34a8~87~ubuntu20.04.1) date 2020-11-19 22:53:55*
%MOMM*%
%LPD*%
G01*
G04 APERTURE LIST*
G04 #@! TA.AperFunction,NonConductor*
%ADD10C,0.200000*%
G04 #@! TD*
G04 #@! TA.AperFunction,NonConductor*
%ADD11C,0.300000*%
G04 #@! TD*
G04 #@! TA.AperFunction,ComponentPad*
%ADD12C,1.800000*%
G04 #@! TD*
G04 #@! TA.AperFunction,ComponentPad*
%ADD13C,2.340000*%
G04 #@! TD*
G04 #@! TA.AperFunction,ComponentPad*
%ADD14C,2.400000*%
G04 #@! TD*
G04 #@! TA.AperFunction,ComponentPad*
%ADD15R,2.400000X2.400000*%
G04 #@! TD*
G04 #@! TA.AperFunction,ComponentPad*
%ADD16C,1.600000*%
G04 #@! TD*
G04 #@! TA.AperFunction,ComponentPad*
%ADD17R,1.600000X1.600000*%
G04 #@! TD*
G04 #@! TA.AperFunction,ComponentPad*
%ADD18C,2.800000*%
G04 #@! TD*
G04 #@! TA.AperFunction,ComponentPad*
%ADD19C,2.000000*%
G04 #@! TD*
G04 #@! TA.AperFunction,ComponentPad*
%ADD20C,2.500000*%
G04 #@! TD*
G04 #@! TA.AperFunction,ComponentPad*
%ADD21O,2.400000X2.400000*%
G04 #@! TD*
G04 #@! TA.AperFunction,ComponentPad*
%ADD22R,2.000000X2.000000*%
G04 #@! TD*
G04 #@! TA.AperFunction,ComponentPad*
%ADD23O,2.000000X2.000000*%
G04 #@! TD*
G04 #@! TA.AperFunction,ComponentPad*
%ADD24O,1.800000X1.800000*%
G04 #@! TD*
G04 #@! TA.AperFunction,ComponentPad*
%ADD25R,1.800000X1.800000*%
G04 #@! TD*
G04 #@! TA.AperFunction,Conductor*
%ADD26C,0.812800*%
G04 #@! TD*
G04 #@! TA.AperFunction,Conductor*
%ADD27C,0.800000*%
G04 #@! TD*
G04 #@! TA.AperFunction,Conductor*
%ADD28C,1.778000*%
G04 #@! TD*
G04 #@! TA.AperFunction,Conductor*
%ADD29C,1.800000*%
G04 #@! TD*
G04 APERTURE END LIST*
D10*
X134886904Y59737620D02*
X134886904Y60737620D01*
X134315476Y59737620D02*
X134744047Y60309048D01*
X134315476Y60737620D02*
X134886904Y60166191D01*
X133982142Y60737620D02*
X133315476Y60737620D01*
X133982142Y59737620D01*
X133315476Y59737620D01*
D11*
X135218809Y61690239D02*
X135218809Y63690239D01*
X135218809Y62737858D02*
X134075952Y62737858D01*
X134075952Y61690239D02*
X134075952Y63690239D01*
X133409285Y63690239D02*
X132266428Y63690239D01*
X132837857Y61690239D02*
X132837857Y63690239D01*
X130647380Y61690239D02*
X131599761Y61690239D01*
X131599761Y63690239D01*
X129980714Y62452143D02*
X128456904Y62452143D01*
X127504523Y61690239D02*
X127504523Y63690239D01*
X126361666Y61690239D01*
X126361666Y63690239D01*
X124647380Y61785477D02*
X124837857Y61690239D01*
X125218809Y61690239D01*
X125409285Y61785477D01*
X125504523Y61975953D01*
X125504523Y62737858D01*
X125409285Y62928334D01*
X125218809Y63023572D01*
X124837857Y63023572D01*
X124647380Y62928334D01*
X124552142Y62737858D01*
X124552142Y62547381D01*
X125504523Y62356905D01*
X123980714Y63023572D02*
X123218809Y63023572D01*
X123695000Y63690239D02*
X123695000Y61975953D01*
X123599761Y61785477D01*
X123409285Y61690239D01*
X123218809Y61690239D01*
X122742619Y63023572D02*
X121695000Y63023572D01*
X122742619Y61690239D01*
X121695000Y61690239D01*
X120075952Y63023572D02*
X120075952Y61404524D01*
X120171190Y61214048D01*
X120266428Y61118810D01*
X120456904Y61023572D01*
X120742619Y61023572D01*
X120933095Y61118810D01*
X120075952Y61785477D02*
X120266428Y61690239D01*
X120647380Y61690239D01*
X120837857Y61785477D01*
X120933095Y61880715D01*
X121028333Y62071191D01*
X121028333Y62642620D01*
X120933095Y62833096D01*
X120837857Y62928334D01*
X120647380Y63023572D01*
X120266428Y63023572D01*
X120075952Y62928334D01*
X118361666Y61785477D02*
X118552142Y61690239D01*
X118933095Y61690239D01*
X119123571Y61785477D01*
X119218809Y61975953D01*
X119218809Y62737858D01*
X119123571Y62928334D01*
X118933095Y63023572D01*
X118552142Y63023572D01*
X118361666Y62928334D01*
X118266428Y62737858D01*
X118266428Y62547381D01*
X119218809Y62356905D01*
X117409285Y61690239D02*
X117409285Y63023572D01*
X117409285Y62642620D02*
X117314047Y62833096D01*
X117218809Y62928334D01*
X117028333Y63023572D01*
X116837857Y63023572D01*
X115314047Y61690239D02*
X115314047Y62737858D01*
X115409285Y62928334D01*
X115599761Y63023572D01*
X115980714Y63023572D01*
X116171190Y62928334D01*
X115314047Y61785477D02*
X115504523Y61690239D01*
X115980714Y61690239D01*
X116171190Y61785477D01*
X116266428Y61975953D01*
X116266428Y62166429D01*
X116171190Y62356905D01*
X115980714Y62452143D01*
X115504523Y62452143D01*
X115314047Y62547381D01*
X116171190Y63690239D02*
X116075952Y63595000D01*
X116171190Y63499762D01*
X116266428Y63595000D01*
X116171190Y63690239D01*
X116171190Y63499762D01*
X115409285Y63690239D02*
X115314047Y63595000D01*
X115409285Y63499762D01*
X115504523Y63595000D01*
X115409285Y63690239D01*
X115409285Y63499762D01*
X114647380Y63023572D02*
X113885476Y63023572D01*
X114361666Y63690239D02*
X114361666Y61975953D01*
X114266428Y61785477D01*
X114075952Y61690239D01*
X113885476Y61690239D01*
X111980714Y63690239D02*
X111314047Y61690239D01*
X110647380Y63690239D01*
X110075952Y63499762D02*
X109980714Y63595000D01*
X109790238Y63690239D01*
X109314047Y63690239D01*
X109123571Y63595000D01*
X109028333Y63499762D01*
X108933095Y63309286D01*
X108933095Y63118810D01*
X109028333Y62833096D01*
X110171190Y61690239D01*
X108933095Y61690239D01*
X108075952Y61880715D02*
X107980714Y61785477D01*
X108075952Y61690239D01*
X108171190Y61785477D01*
X108075952Y61880715D01*
X108075952Y61690239D01*
X106075952Y61690239D02*
X107218809Y61690239D01*
X106647380Y61690239D02*
X106647380Y63690239D01*
X106837857Y63404524D01*
X107028333Y63214048D01*
X107218809Y63118810D01*
X103123571Y60928334D02*
X103218809Y61023572D01*
X103409285Y61309286D01*
X103504523Y61499762D01*
X103599761Y61785477D01*
X103695000Y62261667D01*
X103695000Y62642620D01*
X103599761Y63118810D01*
X103504523Y63404524D01*
X103409285Y63595000D01*
X103218809Y63880715D01*
X103123571Y63975953D01*
X102456904Y63499762D02*
X102361666Y63595000D01*
X102171190Y63690239D01*
X101695000Y63690239D01*
X101504523Y63595000D01*
X101409285Y63499762D01*
X101314047Y63309286D01*
X101314047Y63118810D01*
X101409285Y62833096D01*
X102552142Y61690239D01*
X101314047Y61690239D01*
X100075952Y63690239D02*
X99885476Y63690239D01*
X99695000Y63595000D01*
X99599761Y63499762D01*
X99504523Y63309286D01*
X99409285Y62928334D01*
X99409285Y62452143D01*
X99504523Y62071191D01*
X99599761Y61880715D01*
X99695000Y61785477D01*
X99885476Y61690239D01*
X100075952Y61690239D01*
X100266428Y61785477D01*
X100361666Y61880715D01*
X100456904Y62071191D01*
X100552142Y62452143D01*
X100552142Y62928334D01*
X100456904Y63309286D01*
X100361666Y63499762D01*
X100266428Y63595000D01*
X100075952Y63690239D01*
X98647380Y63499762D02*
X98552142Y63595000D01*
X98361666Y63690239D01*
X97885476Y63690239D01*
X97695000Y63595000D01*
X97599761Y63499762D01*
X97504523Y63309286D01*
X97504523Y63118810D01*
X97599761Y62833096D01*
X98742619Y61690239D01*
X97504523Y61690239D01*
X96266428Y63690239D02*
X96075952Y63690239D01*
X95885476Y63595000D01*
X95790238Y63499762D01*
X95695000Y63309286D01*
X95599761Y62928334D01*
X95599761Y62452143D01*
X95695000Y62071191D01*
X95790238Y61880715D01*
X95885476Y61785477D01*
X96075952Y61690239D01*
X96266428Y61690239D01*
X96456904Y61785477D01*
X96552142Y61880715D01*
X96647380Y62071191D01*
X96742619Y62452143D01*
X96742619Y62928334D01*
X96647380Y63309286D01*
X96552142Y63499762D01*
X96456904Y63595000D01*
X96266428Y63690239D01*
X94933095Y60928334D02*
X94837857Y61023572D01*
X94647380Y61309286D01*
X94552142Y61499762D01*
X94456904Y61785477D01*
X94361666Y62261667D01*
X94361666Y62642620D01*
X94456904Y63118810D01*
X94552142Y63404524D01*
X94647380Y63595000D01*
X94837857Y63880715D01*
X94933095Y63975953D01*
D10*
X2316519Y4081458D02*
X1316519Y4748124D01*
X2316519Y4748124D02*
X1316519Y4081458D01*
X1316519Y5652886D02*
X1316519Y5081458D01*
X1316519Y5367172D02*
X2316519Y5367172D01*
X2173661Y5271934D01*
X2078423Y5176696D01*
X2030804Y5081458D01*
X2316519Y6557648D02*
X2316519Y6081458D01*
X1840328Y6033839D01*
X1887947Y6081458D01*
X1935566Y6176696D01*
X1935566Y6414791D01*
X1887947Y6510029D01*
X1840328Y6557648D01*
X1745090Y6605267D01*
X1506995Y6605267D01*
X1411757Y6557648D01*
X1364138Y6510029D01*
X1316519Y6414791D01*
X1316519Y6176696D01*
X1364138Y6081458D01*
X1411757Y6033839D01*
X2316519Y26941458D02*
X1316519Y27608124D01*
X2316519Y27608124D02*
X1316519Y26941458D01*
X1316519Y28512886D02*
X1316519Y27941458D01*
X1316519Y28227172D02*
X2316519Y28227172D01*
X2173661Y28131934D01*
X2078423Y28036696D01*
X2030804Y27941458D01*
X2221280Y28893839D02*
X2268900Y28941458D01*
X2316519Y29036696D01*
X2316519Y29274791D01*
X2268900Y29370029D01*
X2221280Y29417648D01*
X2126042Y29465267D01*
X2030804Y29465267D01*
X1887947Y29417648D01*
X1316519Y28846220D01*
X1316519Y29465267D01*
X2316519Y11701458D02*
X1316519Y12368124D01*
X2316519Y12368124D02*
X1316519Y11701458D01*
X1316519Y13272886D02*
X1316519Y12701458D01*
X1316519Y12987172D02*
X2316519Y12987172D01*
X2173661Y12891934D01*
X2078423Y12796696D01*
X2030804Y12701458D01*
X1983185Y14130029D02*
X1316519Y14130029D01*
X2364138Y13891934D02*
X1649852Y13653839D01*
X1649852Y14272886D01*
X2316519Y19321458D02*
X1316519Y19988124D01*
X2316519Y19988124D02*
X1316519Y19321458D01*
X1316519Y20892886D02*
X1316519Y20321458D01*
X1316519Y20607172D02*
X2316519Y20607172D01*
X2173661Y20511934D01*
X2078423Y20416696D01*
X2030804Y20321458D01*
X2316519Y21226220D02*
X2316519Y21845267D01*
X1935566Y21511934D01*
X1935566Y21654791D01*
X1887947Y21750029D01*
X1840328Y21797648D01*
X1745090Y21845267D01*
X1506995Y21845267D01*
X1411757Y21797648D01*
X1364138Y21750029D01*
X1316519Y21654791D01*
X1316519Y21369077D01*
X1364138Y21273839D01*
X1411757Y21226220D01*
X2316519Y52341458D02*
X1316519Y53008124D01*
X2316519Y53008124D02*
X1316519Y52341458D01*
X2316519Y53293839D02*
X2316519Y53960505D01*
X1316519Y53531934D01*
X2316519Y60596458D02*
X1316519Y61263124D01*
X2316519Y61263124D02*
X1316519Y60596458D01*
X1887947Y61786934D02*
X1935566Y61691696D01*
X1983185Y61644077D01*
X2078423Y61596458D01*
X2126042Y61596458D01*
X2221280Y61644077D01*
X2268900Y61691696D01*
X2316519Y61786934D01*
X2316519Y61977410D01*
X2268900Y62072648D01*
X2221280Y62120267D01*
X2126042Y62167886D01*
X2078423Y62167886D01*
X1983185Y62120267D01*
X1935566Y62072648D01*
X1887947Y61977410D01*
X1887947Y61786934D01*
X1840328Y61691696D01*
X1792709Y61644077D01*
X1697471Y61596458D01*
X1506995Y61596458D01*
X1411757Y61644077D01*
X1364138Y61691696D01*
X1316519Y61786934D01*
X1316519Y61977410D01*
X1364138Y62072648D01*
X1411757Y62120267D01*
X1506995Y62167886D01*
X1697471Y62167886D01*
X1792709Y62120267D01*
X1840328Y62072648D01*
X1887947Y61977410D01*
X56876042Y2316220D02*
X56209376Y1316220D01*
X56209376Y2316220D02*
X56876042Y1316220D01*
X55399852Y2316220D02*
X55590328Y2316220D01*
X55685566Y2268600D01*
X55733185Y2220981D01*
X55828423Y2078124D01*
X55876042Y1887648D01*
X55876042Y1506696D01*
X55828423Y1411458D01*
X55780804Y1363839D01*
X55685566Y1316220D01*
X55495090Y1316220D01*
X55399852Y1363839D01*
X55352233Y1411458D01*
X55304614Y1506696D01*
X55304614Y1744791D01*
X55352233Y1840029D01*
X55399852Y1887648D01*
X55495090Y1935267D01*
X55685566Y1935267D01*
X55780804Y1887648D01*
X55828423Y1840029D01*
X55876042Y1744791D01*
X64497142Y2317620D02*
X63830476Y1317620D01*
X63830476Y2317620D02*
X64497142Y1317620D01*
X62973333Y2317620D02*
X63449523Y2317620D01*
X63497142Y1841429D01*
X63449523Y1889048D01*
X63354285Y1936667D01*
X63116190Y1936667D01*
X63020952Y1889048D01*
X62973333Y1841429D01*
X62925714Y1746191D01*
X62925714Y1508096D01*
X62973333Y1412858D01*
X63020952Y1365239D01*
X63116190Y1317620D01*
X63354285Y1317620D01*
X63449523Y1365239D01*
X63497142Y1412858D01*
X72117142Y2317620D02*
X71450476Y1317620D01*
X71450476Y2317620D02*
X72117142Y1317620D01*
X70640952Y1984286D02*
X70640952Y1317620D01*
X70879047Y2365239D02*
X71117142Y1650953D01*
X70498095Y1650953D01*
X79736042Y2316220D02*
X79069376Y1316220D01*
X79069376Y2316220D02*
X79736042Y1316220D01*
X78783661Y2316220D02*
X78164614Y2316220D01*
X78497947Y1935267D01*
X78355090Y1935267D01*
X78259852Y1887648D01*
X78212233Y1840029D01*
X78164614Y1744791D01*
X78164614Y1506696D01*
X78212233Y1411458D01*
X78259852Y1363839D01*
X78355090Y1316220D01*
X78640804Y1316220D01*
X78736042Y1363839D01*
X78783661Y1411458D01*
X107677142Y2317620D02*
X107010476Y1317620D01*
X107010476Y2317620D02*
X107677142Y1317620D01*
X106677142Y2222381D02*
X106629523Y2270000D01*
X106534285Y2317620D01*
X106296190Y2317620D01*
X106200952Y2270000D01*
X106153333Y2222381D01*
X106105714Y2127143D01*
X106105714Y2031905D01*
X106153333Y1889048D01*
X106724761Y1317620D01*
X106105714Y1317620D01*
X112757142Y2317620D02*
X112090476Y1317620D01*
X112090476Y2317620D02*
X112757142Y1317620D01*
X111185714Y1317620D02*
X111757142Y1317620D01*
X111471428Y1317620D02*
X111471428Y2317620D01*
X111566666Y2174762D01*
X111661904Y2079524D01*
X111757142Y2031905D01*
X138206519Y4081458D02*
X137206519Y4748124D01*
X138206519Y4748124D02*
X137206519Y4081458D01*
X137206519Y5652886D02*
X137206519Y5081458D01*
X137206519Y5367172D02*
X138206519Y5367172D01*
X138063661Y5271934D01*
X137968423Y5176696D01*
X137920804Y5081458D01*
X137206519Y6605267D02*
X137206519Y6033839D01*
X137206519Y6319553D02*
X138206519Y6319553D01*
X138063661Y6224315D01*
X137968423Y6129077D01*
X137920804Y6033839D01*
X138206519Y8526458D02*
X137206519Y9193124D01*
X138206519Y9193124D02*
X137206519Y8526458D01*
X137206519Y10097886D02*
X137206519Y9526458D01*
X137206519Y9812172D02*
X138206519Y9812172D01*
X138063661Y9716934D01*
X137968423Y9621696D01*
X137920804Y9526458D01*
X138206519Y10716934D02*
X138206519Y10812172D01*
X138158900Y10907410D01*
X138111280Y10955029D01*
X138016042Y11002648D01*
X137825566Y11050267D01*
X137587471Y11050267D01*
X137396995Y11002648D01*
X137301757Y10955029D01*
X137254138Y10907410D01*
X137206519Y10812172D01*
X137206519Y10716934D01*
X137254138Y10621696D01*
X137301757Y10574077D01*
X137396995Y10526458D01*
X137587471Y10478839D01*
X137825566Y10478839D01*
X138016042Y10526458D01*
X138111280Y10574077D01*
X138158900Y10621696D01*
X138206519Y10716934D01*
X138206519Y14241458D02*
X137206519Y14908124D01*
X138206519Y14908124D02*
X137206519Y14241458D01*
X137206519Y15336696D02*
X137206519Y15527172D01*
X137254138Y15622410D01*
X137301757Y15670029D01*
X137444614Y15765267D01*
X137635090Y15812886D01*
X138016042Y15812886D01*
X138111280Y15765267D01*
X138158900Y15717648D01*
X138206519Y15622410D01*
X138206519Y15431934D01*
X138158900Y15336696D01*
X138111280Y15289077D01*
X138016042Y15241458D01*
X137777947Y15241458D01*
X137682709Y15289077D01*
X137635090Y15336696D01*
X137587471Y15431934D01*
X137587471Y15622410D01*
X137635090Y15717648D01*
X137682709Y15765267D01*
X137777947Y15812886D01*
D12*
X134618900Y20318600D03*
X134618900Y33018600D03*
X132078900Y55878600D03*
X132078900Y43178600D03*
X126998900Y20318600D03*
X126998900Y33018600D03*
X111758900Y50798600D03*
X111758900Y38098600D03*
X116838900Y27940000D03*
X116838900Y40640000D03*
X73658900Y43178600D03*
X73658900Y30478600D03*
X63498900Y30478600D03*
X63498900Y43178600D03*
X38098900Y35558600D03*
X38098900Y48258600D03*
X20318900Y48258600D03*
X20318900Y60958600D03*
X15238900Y35558600D03*
X15238900Y48258600D03*
X13968900Y10158600D03*
X13968900Y22858600D03*
X10158900Y5078600D03*
X10158900Y17778600D03*
D13*
X34290000Y45720000D03*
X21790000Y40640000D03*
X34290000Y35720000D03*
X19050000Y40640000D03*
X45718900Y20318600D03*
X33218900Y15238600D03*
X45718900Y10318600D03*
X30478900Y15238600D03*
D14*
X25318900Y15238600D03*
D15*
X20318900Y15238600D03*
D16*
X73578900Y22858600D03*
D17*
X68578900Y22858600D03*
D18*
X101598900Y19078600D03*
X101598900Y28578600D03*
X101598900Y35778600D03*
G04 #@! TA.AperFunction,ComponentPad*
G36*
G01*
X100700100Y44578600D02*
X102497700Y44578600D01*
G75*
G02*
X102998900Y44077400I0J-501200D01*
G01*
X102998900Y42279800D01*
G75*
G02*
X102497700Y41778600I-501200J0D01*
G01*
X100700100Y41778600D01*
G75*
G02*
X100198900Y42279800I0J501200D01*
G01*
X100198900Y44077400D01*
G75*
G02*
X100700100Y44578600I501200J0D01*
G01*
G37*
G04 #@! TD.AperFunction*
D16*
X58418900Y25398600D03*
X38098900Y25398600D03*
D19*
X25398900Y50798600D03*
X30478900Y50798600D03*
X27938900Y53338600D03*
D20*
X5078900Y5078600D03*
X5078900Y12698600D03*
X5078900Y20318600D03*
X5078900Y27938600D03*
X134618900Y5078600D03*
X134618900Y10158600D03*
X134618900Y15238600D03*
X5078900Y60958600D03*
X5078900Y53338600D03*
X55878900Y5078600D03*
X63498900Y5078600D03*
X71118900Y5078600D03*
X78738900Y5078600D03*
X106678900Y5078600D03*
X111758900Y5078600D03*
D19*
X126998900Y43178600D03*
X121918900Y43178600D03*
X124458900Y40638600D03*
X126998900Y53338600D03*
X126998900Y58418600D03*
X124458900Y55878600D03*
X116838900Y53338600D03*
X116838900Y58418600D03*
X114298900Y55878600D03*
X63498900Y53338600D03*
X63498900Y48258600D03*
X66038900Y50798600D03*
X35558900Y60958600D03*
X35558900Y55878600D03*
X38098900Y58418600D03*
X10158900Y60958600D03*
X10158900Y55878600D03*
X12698900Y58418600D03*
X20318900Y30478600D03*
X15238900Y30478600D03*
X17778900Y27938600D03*
D21*
X50798900Y27938600D03*
D14*
X50798900Y58418600D03*
D22*
X60958900Y17780000D03*
D23*
X65958900Y12780000D03*
X60958900Y12780000D03*
X65958900Y17780000D03*
D22*
X116838900Y12698600D03*
D23*
X121838900Y7698600D03*
X116838900Y7698600D03*
X121838900Y12698600D03*
D24*
X43178900Y45718600D03*
D25*
X43178900Y33018600D03*
D24*
X43178900Y48258600D03*
D25*
X43178900Y60958600D03*
D24*
X10158900Y38098600D03*
D25*
X10158900Y50798600D03*
D24*
X10158900Y35558600D03*
D25*
X10158900Y22858600D03*
D24*
X68578900Y30478600D03*
D25*
X68578900Y43178600D03*
D24*
X58418900Y43178600D03*
D25*
X58418900Y30478600D03*
D16*
X121838900Y20318600D03*
D17*
X116838900Y20318600D03*
D21*
X86358900Y50238600D03*
D15*
X86358900Y15238600D03*
D16*
X27938900Y55958600D03*
X27938900Y60958600D03*
X32938900Y27938600D03*
X27938900Y27938600D03*
D26*
X134620000Y15240000D02*
X134620000Y25400000D01*
X126998900Y40638600D02*
X126998900Y43178600D01*
X127000000Y33020000D02*
X126998900Y40638600D01*
X134620000Y25400000D02*
X127000000Y33020000D01*
D27*
X27938900Y60958600D02*
X35558900Y60958600D01*
D26*
X37465300Y62865000D02*
X35558900Y60958600D01*
X77470000Y62865000D02*
X37465300Y62865000D01*
X87630000Y52705000D02*
X77470000Y62865000D01*
X114888163Y57783600D02*
X111123750Y57783600D01*
X116793163Y55878600D02*
X114888163Y57783600D01*
X106045150Y52705000D02*
X87630000Y52705000D01*
X116978900Y55878600D02*
X116793163Y55878600D01*
X121920000Y55880000D02*
X116978900Y55878600D01*
X111123750Y57783600D02*
X106045150Y52705000D01*
X132080000Y55880000D02*
X121920000Y55880000D01*
X132080000Y35560000D02*
X134620000Y33020000D01*
X132080000Y43180000D02*
X132080000Y35560000D01*
X121918600Y43178600D02*
X121918900Y43178600D01*
X127000000Y58420000D02*
X116840000Y58420000D01*
X133347500Y58420000D02*
X127000000Y58420000D01*
X135253900Y56513600D02*
X133347500Y58420000D01*
X135253900Y46353900D02*
X135253900Y56513600D01*
X132080000Y43180000D02*
X135253900Y46353900D01*
X129540000Y45720000D02*
X132080000Y43180000D01*
X124460300Y45720000D02*
X129540000Y45720000D01*
X121920300Y43180000D02*
X124460300Y45720000D01*
X121920000Y43180000D02*
X121920300Y43180000D01*
X121918900Y43178600D02*
X121920000Y43180000D01*
D27*
X114297500Y38098600D02*
X116838900Y40640000D01*
X111758900Y38098600D02*
X114297500Y38098600D01*
X119377500Y43178600D02*
X116838900Y40640000D01*
X121918900Y43178600D02*
X119377500Y43178600D01*
D28*
X5080000Y5080000D02*
X22860000Y5080000D01*
D27*
X64768900Y26668600D02*
X62228900Y26668600D01*
X62228900Y26668600D02*
X58418900Y30478600D01*
X68578900Y22858600D02*
X64768900Y26668600D01*
D29*
X25318900Y5633600D02*
X24765300Y5080000D01*
X25318900Y15238600D02*
X25318900Y5633600D01*
D28*
X22860000Y5080000D02*
X24765300Y5080000D01*
X54292500Y24445000D02*
X50798900Y27938600D01*
X54292500Y13017500D02*
X54292500Y24445000D01*
X46355000Y5080000D02*
X54292500Y13017500D01*
X24765300Y5080000D02*
X46355000Y5080000D01*
D27*
X52068900Y29208600D02*
X50798900Y27938600D01*
X54608900Y29208600D02*
X52068900Y29208600D01*
X58418900Y25398600D02*
X54608900Y29208600D01*
X60958900Y17780000D02*
X60960000Y17780000D01*
X64134850Y20954850D02*
X66675150Y20954850D01*
X60960000Y17780000D02*
X64134850Y20954850D01*
X66675150Y20954850D02*
X68578900Y22858600D01*
D26*
X56515000Y12065000D02*
X46988600Y2538600D01*
X5080000Y3172500D02*
X5080000Y5080000D01*
X5713900Y2538600D02*
X5080000Y3172500D01*
X56515000Y18415000D02*
X56515000Y12065000D01*
X62230000Y24130000D02*
X56515000Y18415000D01*
X62230000Y26670000D02*
X62230000Y24130000D01*
X58420000Y30480000D02*
X62230000Y26670000D01*
X62230000Y34290000D02*
X58420000Y30480000D01*
X69850000Y34290000D02*
X62230000Y34290000D01*
X46988600Y2538600D02*
X5713900Y2538600D01*
X73660000Y30480000D02*
X69850000Y34290000D01*
D28*
X5080000Y12700000D02*
X5080000Y17780000D01*
X5080000Y17780000D02*
X5080000Y20320000D01*
D26*
X106680000Y38735000D02*
X116840000Y48260000D01*
X116840000Y48260000D02*
X116840000Y53340000D01*
X116840000Y53340000D02*
X127000000Y53340000D01*
X127000000Y20320000D02*
X121920000Y20320000D01*
D28*
X132080000Y5080000D02*
X134620000Y5080000D01*
X127000000Y10160000D02*
X132080000Y5080000D01*
X127000000Y20320000D02*
X127000000Y10160000D01*
D26*
X124460000Y7620000D02*
X121920000Y7620000D01*
X127000000Y10160000D02*
X124460000Y7620000D01*
X127000000Y20320000D02*
X121920000Y20320000D01*
X106680000Y38734700D02*
X105092500Y37147200D01*
X106680000Y38735000D02*
X106680000Y38734700D01*
D28*
X12698900Y15238600D02*
X10158900Y17778600D01*
X20318900Y15238600D02*
X12698900Y15238600D01*
X5081400Y17778600D02*
X5080000Y17780000D01*
X10158900Y17778600D02*
X5081400Y17778600D01*
X20318900Y17143600D02*
X20318900Y15238600D01*
X105092500Y37147200D02*
X103504700Y38735000D01*
X49847500Y32067500D02*
X49847500Y32067200D01*
X103504700Y38735000D02*
X56832500Y38735000D01*
X56832500Y38735000D02*
X49847500Y32067500D01*
X49847500Y32067200D02*
X47623900Y29843600D01*
X47623900Y29843600D02*
X47623900Y25400800D01*
X47623900Y25400800D02*
X51435000Y21589700D01*
X51435000Y21589700D02*
X51435000Y15875000D01*
X35561400Y19048600D02*
X22223900Y19048600D01*
X49530000Y13970000D02*
X40640000Y13970000D01*
X51435000Y15875000D02*
X49530000Y13970000D01*
X40640000Y13970000D02*
X35561400Y19048600D01*
X22223900Y19048600D02*
X20318900Y17143600D01*
X105092500Y37147200D02*
X105408900Y36830800D01*
X127000000Y22860000D02*
X127000000Y20320000D01*
X105408900Y36830800D02*
X105408900Y26033600D01*
X81915000Y13335000D02*
X83820000Y11430000D01*
X102235300Y22860000D02*
X87630000Y22860000D01*
X87630000Y22860000D02*
X81915000Y17145000D01*
X81915000Y17145000D02*
X81915000Y13335000D01*
X83820000Y11430000D02*
X105410000Y11430000D01*
X113028900Y19048900D02*
X113028900Y26668600D01*
X105408900Y26033600D02*
X102235300Y22860000D01*
X105410000Y11430000D02*
X113028900Y19048900D01*
X121286400Y28573600D02*
X127000000Y22860000D01*
D29*
X113028900Y26668600D02*
X113028900Y29208900D01*
X113028900Y29208900D02*
X114935000Y31115000D01*
X118745000Y31115000D02*
X121286400Y28573600D01*
X114935000Y31115000D02*
X118745000Y31115000D01*
D27*
X111758900Y53338600D02*
X111758900Y50798600D01*
X114298900Y55878600D02*
X111758900Y53338600D01*
D26*
X25400000Y30480000D02*
X20320000Y30480000D01*
X27940000Y27940000D02*
X25400000Y30480000D01*
X111760000Y50800000D02*
X111760000Y48260000D01*
X111760000Y48260000D02*
X104140000Y40640000D01*
X45718900Y24128600D02*
X48258900Y21588600D01*
X55880300Y40640000D02*
X45718900Y30478600D01*
X48258900Y21588600D02*
X48258900Y17778900D01*
X27940000Y26035000D02*
X27940000Y27940000D01*
X45718900Y30478600D02*
X45718900Y24128600D01*
X48258900Y17778900D02*
X46990000Y16510000D01*
X46990000Y16510000D02*
X43177500Y16510000D01*
X43177500Y16510000D02*
X38732500Y20955000D01*
X104140000Y40640000D02*
X55880300Y40640000D01*
X38732500Y20955000D02*
X33020000Y20955000D01*
X33020000Y20955000D02*
X27940000Y26035000D01*
X33020000Y35560000D02*
X38100000Y35560000D01*
X43180000Y20320000D02*
X45720000Y20320000D01*
X40640000Y22860000D02*
X43180000Y20320000D01*
X34290000Y22860000D02*
X40640000Y22860000D01*
X30480000Y26670000D02*
X34290000Y22860000D01*
X30480000Y29210000D02*
X30480000Y26670000D01*
X24130000Y35560000D02*
X30480000Y29210000D01*
X15240000Y35560000D02*
X24130000Y35560000D01*
X33020000Y35560000D02*
X38100000Y35560000D01*
X38100000Y35560000D02*
X38100000Y33020000D01*
X38100000Y33020000D02*
X39370000Y31750000D01*
X40640000Y22860000D02*
X40640000Y30477500D01*
X40640000Y30477500D02*
X38098900Y33018600D01*
X38098900Y33018600D02*
X39370000Y31750000D01*
X58420000Y48260000D02*
X63500000Y53340000D01*
X58420000Y43180000D02*
X58420000Y48260000D01*
X54610300Y43180000D02*
X58420000Y43180000D01*
X45083900Y33653600D02*
X54610300Y43180000D01*
X45083900Y31747500D02*
X45083900Y33653600D01*
X43813900Y30477500D02*
X45083900Y31747500D01*
X40640000Y30477500D02*
X43813900Y30477500D01*
X68580000Y43180000D02*
X73660000Y43180000D01*
D27*
X66038900Y50798600D02*
X68578900Y48258600D01*
X68578900Y48258600D02*
X68578900Y43178600D01*
D26*
X10160000Y35560000D02*
X10160000Y38100000D01*
X15240000Y30480000D02*
X10160000Y35560000D01*
X10160000Y55878750D02*
X10160000Y55880000D01*
X15240000Y50798750D02*
X10160000Y55878750D01*
X10160000Y38100000D02*
X15240000Y43180000D01*
X15240000Y43180000D02*
X15240000Y50798750D01*
X43180000Y48260000D02*
X43180000Y45720000D01*
X38100000Y48260000D02*
X43180000Y48260000D01*
D27*
X35558900Y50798600D02*
X38098900Y48258600D01*
X30478900Y50798600D02*
X35558900Y50798600D01*
X35558900Y55878600D02*
X35558900Y50798600D01*
X55878900Y5078600D02*
X55878900Y8888600D01*
X58420000Y11429700D02*
X58420000Y13335000D01*
X55878900Y8888600D02*
X58420000Y11429700D01*
X58420000Y13335000D02*
X60325000Y15240000D01*
X63418900Y15240000D02*
X65958900Y17780000D01*
X60325000Y15240000D02*
X63418900Y15240000D01*
X106678900Y5078600D02*
X111758900Y10158600D01*
X111758900Y10158600D02*
X119378900Y10158600D01*
X119378900Y10238600D02*
X121838900Y12698600D01*
X119378900Y10158600D02*
X119378900Y10238600D01*
D28*
X78740000Y18415000D02*
X78738900Y5078600D01*
X88582600Y28257600D02*
X78740000Y18415000D01*
D29*
X88903600Y28578600D02*
X88582600Y28257600D01*
X101598900Y28578600D02*
X88903600Y28578600D01*
D26*
X63500000Y43180000D02*
X63500000Y48260000D01*
X68580000Y30480000D02*
X63500000Y30480000D01*
D27*
X73578900Y25478600D02*
X68578900Y30478600D01*
X73578900Y22858600D02*
X73578900Y25478600D01*
X73578900Y20238900D02*
X73578900Y22858600D01*
X66120000Y12780000D02*
X73578900Y20238900D01*
X65958900Y12780000D02*
X66120000Y12780000D01*
D28*
X130810000Y13970000D02*
X134620000Y10160000D01*
X130810000Y24130000D02*
X130810000Y13970000D01*
X124460000Y40637500D02*
X124458900Y40638600D01*
X124458900Y30481100D02*
X130810000Y24130000D01*
X109853900Y23176400D02*
X109853900Y31113900D01*
X86360000Y15240000D02*
X89370000Y18250000D01*
X124458900Y33653600D02*
X124458900Y30481100D01*
X112393600Y33653600D02*
X109853900Y31113900D01*
D29*
X90198600Y19078600D02*
X89370000Y18250000D01*
X101598900Y19078600D02*
X90198600Y19078600D01*
X105756100Y19078600D02*
X109853900Y23176400D01*
X101598900Y19078600D02*
X105756100Y19078600D01*
X114301100Y35561100D02*
X124458900Y35561100D01*
X112393600Y33653600D02*
X114301100Y35561100D01*
D28*
X124458900Y35561100D02*
X124458900Y33653600D01*
X124458900Y40638600D02*
X124458900Y35561100D01*
D26*
X116840000Y20320000D02*
X116840000Y25400000D01*
X116840000Y12700000D02*
X116840000Y20320000D01*
D27*
X116840000Y27938900D02*
X116838900Y27940000D01*
X116840000Y25400000D02*
X116840000Y27938900D01*
D28*
X71120000Y5080000D02*
X71120000Y10160000D01*
X71120000Y10160000D02*
X76200000Y15240000D01*
X76200000Y15240000D02*
X76200000Y20320000D01*
X76200000Y20320000D02*
X91440000Y35560000D01*
D26*
X101409400Y35560000D02*
X101600000Y35750600D01*
D29*
X91658600Y35778600D02*
X91440000Y35560000D01*
X101598900Y35778600D02*
X91658600Y35778600D01*
D27*
X63498900Y10240000D02*
X60958900Y12780000D01*
X63498900Y5078600D02*
X63498900Y10240000D01*
X114218900Y5078600D02*
X116838900Y7698600D01*
X111758900Y5078600D02*
X114218900Y5078600D01*
X30558900Y15318600D02*
X30478900Y15238600D01*
X33218900Y15318600D02*
X30558900Y15318600D01*
D26*
X38100000Y10160000D02*
X45720000Y10160000D01*
X33020000Y15240000D02*
X38100000Y10160000D01*
X13970000Y10160000D02*
X13970300Y10160000D01*
D27*
X19048900Y10158600D02*
X13968900Y10158600D01*
X22858900Y13968600D02*
X19048900Y10158600D01*
X22858900Y15873600D02*
X22858900Y13968600D01*
X24128900Y17143600D02*
X22858900Y15873600D01*
X28573900Y17143600D02*
X24128900Y17143600D01*
X30478900Y15238600D02*
X28573900Y17143600D01*
X20318900Y48258600D02*
X19050000Y46989700D01*
X19050000Y46989700D02*
X19050000Y40640000D01*
X19130000Y40720000D02*
X19050000Y40640000D01*
X21790000Y40720000D02*
X19130000Y40720000D01*
D26*
X10160000Y60960000D02*
X5080000Y55880000D01*
X5080000Y55880000D02*
X5080000Y53340000D01*
X25400000Y37465000D02*
X25400000Y48260000D01*
D27*
X10158900Y60958600D02*
X12698900Y58418600D01*
X12698900Y58418600D02*
X15238900Y58418600D01*
D26*
X25400000Y48260000D02*
X15238900Y58418600D01*
D27*
X7618900Y50798600D02*
X5078900Y53338600D01*
X10158900Y50798600D02*
X7618900Y50798600D01*
D26*
X38100000Y25400000D02*
X38100000Y25399700D01*
X35477500Y25400000D02*
X32938900Y27938600D01*
X38100000Y25400000D02*
X35477500Y25400000D01*
X32938900Y29926100D02*
X25400000Y37465000D01*
X32938900Y27938600D02*
X32938900Y29926100D01*
X43180000Y40640000D02*
X43180000Y35560000D01*
X43180000Y35560000D02*
X43178900Y35558900D01*
X43178900Y35558900D02*
X43178900Y33018600D01*
D29*
X79448900Y57148600D02*
X86358900Y50238600D01*
D27*
X27938900Y55958600D02*
X27938900Y53338600D01*
X27938900Y53338600D02*
X25398900Y50798600D01*
D26*
X48260000Y48257500D02*
X48258900Y48258600D01*
D29*
X78178900Y58418600D02*
X79448900Y57148600D01*
X50798900Y58418600D02*
X78178900Y58418600D01*
D26*
X48260000Y55879700D02*
X50798900Y58418600D01*
X48260000Y48257500D02*
X48260000Y55879700D01*
X43180300Y40640000D02*
X48260000Y45719700D01*
X48260000Y45719700D02*
X48260000Y48257500D01*
X43180000Y40640000D02*
X43180300Y40640000D01*
D27*
X27938900Y46353600D02*
X31113900Y43178600D01*
X27938900Y48258600D02*
X27938900Y46353600D01*
X25398900Y50798600D02*
X27938900Y48258600D01*
D26*
X40641400Y43178600D02*
X43180000Y40640000D01*
X31115300Y43178600D02*
X40641400Y43178600D01*
X31113900Y43180000D02*
X31115300Y43178600D01*
D29*
X94538900Y50238600D02*
X101598900Y43178600D01*
X86358900Y50238600D02*
X94538900Y50238600D01*
D26*
X5080000Y27940000D02*
X7620000Y25400000D01*
X7620000Y25400000D02*
X10160000Y25400000D01*
X10160000Y25400000D02*
X13970000Y25400000D01*
X13970000Y25400000D02*
X13970000Y22860000D01*
D27*
X10158900Y25398900D02*
X10160000Y25400000D01*
X10158900Y22858600D02*
X10158900Y25398900D01*
D26*
X15240300Y25400000D02*
X17778900Y27938600D01*
X13970000Y25400000D02*
X15240300Y25400000D01*
D27*
X40638600Y58418600D02*
X43180000Y60960000D01*
D26*
X26668900Y58418600D02*
X28750374Y58418600D01*
X20318900Y60958600D02*
X24128900Y60958600D01*
X24128900Y60958600D02*
X26668900Y58418600D01*
X28750374Y58418600D02*
X38098900Y58418600D01*
D27*
X40638600Y58418600D02*
X38098900Y58418600D01*
D26*
X6985000Y62865000D02*
X5080000Y60960000D01*
X12062500Y62865000D02*
X6985000Y62865000D01*
X13968900Y60958600D02*
X12062500Y62865000D01*
X20318900Y60958600D02*
X13968900Y60958600D01*
M02*
