M48
; DRILL file {KiCad 5.1.7-a382d34a8~87~ubuntu20.04.1} date Thu Nov 19 22:54:06 2020
; FORMAT={-:-/ absolute / metric / decimal}
; #@! TF.CreationDate,2020-11-19T22:54:06+01:00
; #@! TF.GenerationSoftware,Kicad,Pcbnew,5.1.7-a382d34a8~87~ubuntu20.04.1
; #@! TF.FileFunction,Plated,1,2,PTH
FMAT,2
METRIC
T1C0.800
T2C0.900
T3C1.000
T4C1.200
T5C1.250
T6C1.300
T7C1.400
%
G90
G05
T1
X27.939Y27.939
X32.939Y27.939
X15.239Y48.259
X15.239Y35.559
X73.659Y43.179
X73.659Y30.479
X121.919Y43.179
X124.459Y40.639
X126.999Y43.179
X10.159Y17.779
X10.159Y5.079
X10.159Y60.959
X10.159Y55.879
X12.699Y58.419
X63.499Y53.339
X63.499Y48.259
X66.039Y50.799
X132.079Y55.879
X132.079Y43.179
X116.839Y40.64
X116.839Y27.94
X134.619Y33.019
X134.619Y20.319
X111.759Y50.799
X111.759Y38.099
X63.499Y43.179
X63.499Y30.479
X15.239Y30.479
X17.779Y27.939
X20.319Y30.479
X20.319Y60.959
X20.319Y48.259
X38.099Y25.399
X58.419Y25.399
X68.579Y22.859
X73.579Y22.859
X126.999Y33.019
X126.999Y20.319
X38.099Y48.259
X38.099Y35.559
X124.459Y55.879
X126.999Y58.419
X126.999Y53.339
X13.969Y22.859
X13.969Y10.159
X114.299Y55.879
X116.839Y58.419
X116.839Y53.339
X116.839Y20.319
X121.839Y20.319
X27.939Y60.959
X27.939Y55.959
X25.399Y50.799
X27.939Y53.339
X30.479Y50.799
X35.559Y60.959
X35.559Y55.879
X38.099Y58.419
T2
X10.159Y35.559
X10.159Y22.859
X43.179Y60.959
X43.179Y48.259
X58.419Y43.179
X58.419Y30.479
X68.579Y43.179
X68.579Y30.479
X10.159Y50.799
X10.159Y38.099
X43.179Y45.719
X43.179Y33.019
T3
X116.839Y12.699
X116.839Y7.699
X121.839Y12.699
X121.839Y7.699
X60.959Y17.78
X60.959Y12.78
X65.959Y17.78
X65.959Y12.78
T4
X86.359Y50.239
X86.359Y15.239
X20.319Y15.239
X25.319Y15.239
X50.799Y58.419
X50.799Y27.939
T5
X5.079Y60.959
X5.079Y53.339
X5.079Y12.699
X63.499Y5.079
X55.879Y5.079
X71.119Y5.079
X106.679Y5.079
X134.619Y5.079
X134.619Y15.239
X134.619Y10.159
X111.759Y5.079
X5.079Y27.939
X5.079Y5.079
X5.079Y20.319
X78.739Y5.079
T6
X19.05Y40.64
X21.79Y40.64
X34.29Y45.72
X34.29Y35.72
X30.479Y15.239
X33.219Y15.239
X45.719Y20.319
X45.719Y10.319
T7
X101.599Y43.179
X101.599Y35.779
X101.599Y28.579
X101.599Y19.079
T0
M30
