M48
; DRILL file {KiCad 5.1.9-73d0e3b20d~88~ubuntu20.04.1} date Thu Apr 29 16:24:24 2021
; FORMAT={-:-/ absolute / metric / decimal}
; #@! TF.CreationDate,2021-04-29T16:24:24+02:00
; #@! TF.GenerationSoftware,Kicad,Pcbnew,5.1.9-73d0e3b20d~88~ubuntu20.04.1
FMAT,2
METRIC
T1C0.800
T2C1.000
T3C1.100
T4C1.200
T5C1.250
T6C1.300
T7C1.500
T8C3.200
%
G90
G05
T1
X10.159Y48.26
X10.159Y44.45
X10.159Y17.779
X10.159Y5.079
X13.969Y22.859
X13.969Y10.159
X13.97Y55.88
X13.97Y50.8
X13.97Y30.479
X15.239Y48.259
X15.239Y35.559
X16.51Y53.34
X16.51Y27.939
X17.78Y24.13
X17.78Y20.32
X19.05Y30.479
X20.319Y60.959
X20.319Y48.259
X21.59Y24.13
X21.59Y20.32
X22.86Y30.48
X25.399Y50.799
X26.75Y25.4
X27.939Y60.959
X27.939Y55.959
X27.939Y53.339
X30.479Y50.799
X31.75Y25.4
X35.559Y60.959
X35.559Y55.879
X35.56Y30.48
X35.56Y25.4
X38.099Y58.419
X38.099Y48.259
X38.099Y35.559
X43.179Y60.959
X43.179Y48.259
X43.179Y45.719
X43.179Y33.019
X58.419Y43.179
X58.419Y30.479
X60.96Y25.4
X63.499Y53.339
X63.499Y48.259
X63.499Y43.179
X63.499Y30.479
X66.039Y50.799
X68.579Y43.179
X68.579Y30.479
X68.579Y22.859
X73.579Y22.859
X73.659Y43.179
X73.659Y30.479
X106.68Y60.96
X106.68Y48.26
X111.76Y55.88
X111.76Y48.26
X111.76Y35.56
X111.76Y33.02
X111.76Y20.32
X114.3Y58.42
X114.3Y53.34
X116.839Y20.319
X116.84Y43.18
X119.38Y60.96
X119.38Y48.26
X121.839Y20.319
X121.92Y38.1
X124.459Y55.879
X124.46Y35.56
X126.999Y58.419
X126.999Y53.339
X127.0Y38.1
X127.0Y33.019
X127.0Y20.319
X129.54Y43.18
X134.619Y33.019
X134.619Y20.319
X134.62Y60.96
X134.62Y48.26
T2
X60.959Y17.78
X60.959Y12.78
X65.959Y17.78
X65.959Y12.78
X116.84Y12.7
X116.84Y7.7
X121.84Y12.7
X121.84Y7.7
T3
X129.54Y15.24
X129.54Y5.08
T4
X20.32Y12.7
X25.32Y12.7
X50.799Y60.96
X50.799Y27.94
X86.359Y50.239
X86.359Y15.239
T5
X5.079Y60.959
X5.079Y27.939
X5.079Y20.319
X5.079Y12.699
X5.079Y5.079
X5.08Y53.34
X10.16Y27.94
X15.24Y60.96
X55.879Y5.079
X55.88Y60.96
X63.499Y5.079
X71.119Y5.079
X78.739Y5.079
X106.679Y5.079
X111.759Y5.079
X134.619Y15.239
X134.619Y10.159
X134.619Y5.079
T6
X19.05Y40.64
X21.79Y40.64
X30.479Y12.7
X33.219Y12.7
X34.29Y45.72
X34.29Y35.72
X45.719Y17.78
X45.719Y7.78
T7
X101.599Y43.179
X101.599Y35.559
X101.599Y27.939
X101.599Y17.779
T8
X5.08Y37.72
X97.56Y59.0
X97.56Y6.0
T0
M30
