G04 #@! TF.GenerationSoftware,KiCad,Pcbnew,5.1.7-a382d34a8~87~ubuntu20.04.1*
G04 #@! TF.CreationDate,2020-11-19T22:53:55+01:00*
G04 #@! TF.ProjectId,HTL Netzger_t,48544c20-4e65-4747-9a67-6572e4742e6b,V2.1*
G04 #@! TF.SameCoordinates,PX4b045ecPY8378e28*
G04 #@! TF.FileFunction,Soldermask,Bot*
G04 #@! TF.FilePolarity,Negative*
%FSLAX46Y46*%
G04 Gerber Fmt 4.6, Leading zero omitted, Abs format (unit mm)*
G04 Created by KiCad (PCBNEW 5.1.7-a382d34a8~87~ubuntu20.04.1) date 2020-11-19 22:53:55*
%MOMM*%
%LPD*%
G01*
G04 APERTURE LIST*
%ADD10C,1.902000*%
%ADD11C,2.442000*%
%ADD12C,2.502000*%
%ADD13C,1.702000*%
%ADD14C,2.902000*%
%ADD15C,2.102000*%
%ADD16C,2.602000*%
%ADD17O,2.502000X2.502000*%
%ADD18C,3.302000*%
%ADD19O,2.102000X2.102000*%
%ADD20O,1.902000X1.902000*%
%ADD21C,0.200000*%
G04 APERTURE END LIST*
D10*
X134618900Y20318600D03*
X134618900Y33018600D03*
X132078900Y55878600D03*
X132078900Y43178600D03*
X126998900Y20318600D03*
X126998900Y33018600D03*
X111758900Y50798600D03*
X111758900Y38098600D03*
X116838900Y27940000D03*
X116838900Y40640000D03*
X73658900Y43178600D03*
X73658900Y30478600D03*
X63498900Y30478600D03*
X63498900Y43178600D03*
X38098900Y35558600D03*
X38098900Y48258600D03*
X20318900Y48258600D03*
X20318900Y60958600D03*
X15238900Y35558600D03*
X15238900Y48258600D03*
X13968900Y10158600D03*
X13968900Y22858600D03*
X10158900Y5078600D03*
X10158900Y17778600D03*
D11*
X34290000Y45720000D03*
X21790000Y40640000D03*
X34290000Y35720000D03*
X19050000Y40640000D03*
X45718900Y20318600D03*
X33218900Y15238600D03*
X45718900Y10318600D03*
X30478900Y15238600D03*
D12*
X25318900Y15238600D03*
G36*
G01*
X19067900Y14038600D02*
X19067900Y16438600D01*
G75*
G02*
X19118900Y16489600I51000J0D01*
G01*
X21518900Y16489600D01*
G75*
G02*
X21569900Y16438600I0J-51000D01*
G01*
X21569900Y14038600D01*
G75*
G02*
X21518900Y13987600I-51000J0D01*
G01*
X19118900Y13987600D01*
G75*
G02*
X19067900Y14038600I0J51000D01*
G01*
G37*
D13*
X73578900Y22858600D03*
G36*
G01*
X67727900Y22058600D02*
X67727900Y23658600D01*
G75*
G02*
X67778900Y23709600I51000J0D01*
G01*
X69378900Y23709600D01*
G75*
G02*
X69429900Y23658600I0J-51000D01*
G01*
X69429900Y22058600D01*
G75*
G02*
X69378900Y22007600I-51000J0D01*
G01*
X67778900Y22007600D01*
G75*
G02*
X67727900Y22058600I0J51000D01*
G01*
G37*
D14*
X101598900Y19078600D03*
X101598900Y28578600D03*
X101598900Y35778600D03*
G36*
G01*
X100667358Y44629600D02*
X102530442Y44629600D01*
G75*
G02*
X103049900Y44110142I0J-519458D01*
G01*
X103049900Y42247058D01*
G75*
G02*
X102530442Y41727600I-519458J0D01*
G01*
X100667358Y41727600D01*
G75*
G02*
X100147900Y42247058I0J519458D01*
G01*
X100147900Y44110142D01*
G75*
G02*
X100667358Y44629600I519458J0D01*
G01*
G37*
D13*
X58418900Y25398600D03*
X38098900Y25398600D03*
D15*
X25398900Y50798600D03*
X30478900Y50798600D03*
X27938900Y53338600D03*
D16*
X5078900Y5078600D03*
X5078900Y12698600D03*
X5078900Y20318600D03*
X5078900Y27938600D03*
X134618900Y5078600D03*
X134618900Y10158600D03*
X134618900Y15238600D03*
X5078900Y60958600D03*
X5078900Y53338600D03*
X55878900Y5078600D03*
X63498900Y5078600D03*
X71118900Y5078600D03*
X78738900Y5078600D03*
X106678900Y5078600D03*
X111758900Y5078600D03*
D15*
X126998900Y43178600D03*
X121918900Y43178600D03*
X124458900Y40638600D03*
X126998900Y53338600D03*
X126998900Y58418600D03*
X124458900Y55878600D03*
X116838900Y53338600D03*
X116838900Y58418600D03*
X114298900Y55878600D03*
X63498900Y53338600D03*
X63498900Y48258600D03*
X66038900Y50798600D03*
X35558900Y60958600D03*
X35558900Y55878600D03*
X38098900Y58418600D03*
X10158900Y60958600D03*
X10158900Y55878600D03*
X12698900Y58418600D03*
X20318900Y30478600D03*
X15238900Y30478600D03*
X17778900Y27938600D03*
D17*
X50798900Y27938600D03*
D12*
X50798900Y58418600D03*
D18*
X99058900Y5078600D03*
X99058900Y58418600D03*
X5078900Y38098600D03*
G36*
G01*
X59907900Y16780000D02*
X59907900Y18780000D01*
G75*
G02*
X59958900Y18831000I51000J0D01*
G01*
X61958900Y18831000D01*
G75*
G02*
X62009900Y18780000I0J-51000D01*
G01*
X62009900Y16780000D01*
G75*
G02*
X61958900Y16729000I-51000J0D01*
G01*
X59958900Y16729000D01*
G75*
G02*
X59907900Y16780000I0J51000D01*
G01*
G37*
D19*
X65958900Y12780000D03*
X60958900Y12780000D03*
X65958900Y17780000D03*
G36*
G01*
X115787900Y11698600D02*
X115787900Y13698600D01*
G75*
G02*
X115838900Y13749600I51000J0D01*
G01*
X117838900Y13749600D01*
G75*
G02*
X117889900Y13698600I0J-51000D01*
G01*
X117889900Y11698600D01*
G75*
G02*
X117838900Y11647600I-51000J0D01*
G01*
X115838900Y11647600D01*
G75*
G02*
X115787900Y11698600I0J51000D01*
G01*
G37*
X121838900Y7698600D03*
X116838900Y7698600D03*
X121838900Y12698600D03*
D20*
X43178900Y45718600D03*
G36*
G01*
X44078900Y32067600D02*
X42278900Y32067600D01*
G75*
G02*
X42227900Y32118600I0J51000D01*
G01*
X42227900Y33918600D01*
G75*
G02*
X42278900Y33969600I51000J0D01*
G01*
X44078900Y33969600D01*
G75*
G02*
X44129900Y33918600I0J-51000D01*
G01*
X44129900Y32118600D01*
G75*
G02*
X44078900Y32067600I-51000J0D01*
G01*
G37*
X43178900Y48258600D03*
G36*
G01*
X42278900Y61909600D02*
X44078900Y61909600D01*
G75*
G02*
X44129900Y61858600I0J-51000D01*
G01*
X44129900Y60058600D01*
G75*
G02*
X44078900Y60007600I-51000J0D01*
G01*
X42278900Y60007600D01*
G75*
G02*
X42227900Y60058600I0J51000D01*
G01*
X42227900Y61858600D01*
G75*
G02*
X42278900Y61909600I51000J0D01*
G01*
G37*
X10158900Y38098600D03*
G36*
G01*
X9258900Y51749600D02*
X11058900Y51749600D01*
G75*
G02*
X11109900Y51698600I0J-51000D01*
G01*
X11109900Y49898600D01*
G75*
G02*
X11058900Y49847600I-51000J0D01*
G01*
X9258900Y49847600D01*
G75*
G02*
X9207900Y49898600I0J51000D01*
G01*
X9207900Y51698600D01*
G75*
G02*
X9258900Y51749600I51000J0D01*
G01*
G37*
X10158900Y35558600D03*
G36*
G01*
X11058900Y21907600D02*
X9258900Y21907600D01*
G75*
G02*
X9207900Y21958600I0J51000D01*
G01*
X9207900Y23758600D01*
G75*
G02*
X9258900Y23809600I51000J0D01*
G01*
X11058900Y23809600D01*
G75*
G02*
X11109900Y23758600I0J-51000D01*
G01*
X11109900Y21958600D01*
G75*
G02*
X11058900Y21907600I-51000J0D01*
G01*
G37*
X68578900Y30478600D03*
G36*
G01*
X67678900Y44129600D02*
X69478900Y44129600D01*
G75*
G02*
X69529900Y44078600I0J-51000D01*
G01*
X69529900Y42278600D01*
G75*
G02*
X69478900Y42227600I-51000J0D01*
G01*
X67678900Y42227600D01*
G75*
G02*
X67627900Y42278600I0J51000D01*
G01*
X67627900Y44078600D01*
G75*
G02*
X67678900Y44129600I51000J0D01*
G01*
G37*
X58418900Y43178600D03*
G36*
G01*
X59318900Y29527600D02*
X57518900Y29527600D01*
G75*
G02*
X57467900Y29578600I0J51000D01*
G01*
X57467900Y31378600D01*
G75*
G02*
X57518900Y31429600I51000J0D01*
G01*
X59318900Y31429600D01*
G75*
G02*
X59369900Y31378600I0J-51000D01*
G01*
X59369900Y29578600D01*
G75*
G02*
X59318900Y29527600I-51000J0D01*
G01*
G37*
D13*
X121838900Y20318600D03*
G36*
G01*
X115987900Y19518600D02*
X115987900Y21118600D01*
G75*
G02*
X116038900Y21169600I51000J0D01*
G01*
X117638900Y21169600D01*
G75*
G02*
X117689900Y21118600I0J-51000D01*
G01*
X117689900Y19518600D01*
G75*
G02*
X117638900Y19467600I-51000J0D01*
G01*
X116038900Y19467600D01*
G75*
G02*
X115987900Y19518600I0J51000D01*
G01*
G37*
D17*
X86358900Y50238600D03*
G36*
G01*
X87558900Y13987600D02*
X85158900Y13987600D01*
G75*
G02*
X85107900Y14038600I0J51000D01*
G01*
X85107900Y16438600D01*
G75*
G02*
X85158900Y16489600I51000J0D01*
G01*
X87558900Y16489600D01*
G75*
G02*
X87609900Y16438600I0J-51000D01*
G01*
X87609900Y14038600D01*
G75*
G02*
X87558900Y13987600I-51000J0D01*
G01*
G37*
D13*
X27938900Y55958600D03*
X27938900Y60958600D03*
X32938900Y27938600D03*
X27938900Y27938600D03*
D21*
G36*
X103051065Y42248684D02*
G01*
X103051900Y42247058D01*
X103051900Y42172948D01*
X103051890Y42172752D01*
X103042858Y42081047D01*
X103042782Y42080662D01*
X103017821Y41998378D01*
X103017671Y41998016D01*
X102977142Y41922191D01*
X102976924Y41921865D01*
X102922378Y41855399D01*
X102922101Y41855122D01*
X102855635Y41800576D01*
X102855309Y41800358D01*
X102779484Y41759829D01*
X102779122Y41759679D01*
X102696838Y41734718D01*
X102696453Y41734642D01*
X102604748Y41725610D01*
X102604552Y41725600D01*
X102530442Y41725600D01*
X102528710Y41726600D01*
X102528710Y41728600D01*
X102530246Y41729590D01*
X102631388Y41739551D01*
X102728461Y41768998D01*
X102817921Y41816815D01*
X102896333Y41881167D01*
X102960685Y41959579D01*
X103008502Y42049039D01*
X103037949Y42146112D01*
X103047910Y42247254D01*
X103049075Y42248880D01*
X103051065Y42248684D01*
G37*
G36*
X100149890Y42247254D02*
G01*
X100159851Y42146112D01*
X100189298Y42049039D01*
X100237115Y41959579D01*
X100301467Y41881167D01*
X100379879Y41816815D01*
X100469339Y41768998D01*
X100566412Y41739551D01*
X100667554Y41729590D01*
X100669180Y41728425D01*
X100668984Y41726435D01*
X100667358Y41725600D01*
X100593248Y41725600D01*
X100593052Y41725610D01*
X100501347Y41734642D01*
X100500962Y41734718D01*
X100418678Y41759679D01*
X100418316Y41759829D01*
X100342491Y41800358D01*
X100342165Y41800576D01*
X100275699Y41855122D01*
X100275422Y41855399D01*
X100220876Y41921865D01*
X100220658Y41922191D01*
X100180129Y41998016D01*
X100179979Y41998378D01*
X100155018Y42080662D01*
X100154942Y42081047D01*
X100145910Y42172752D01*
X100145900Y42172948D01*
X100145900Y42247058D01*
X100146900Y42248790D01*
X100148900Y42248790D01*
X100149890Y42247254D01*
G37*
G36*
X100669090Y44630600D02*
G01*
X100669090Y44628600D01*
X100667554Y44627610D01*
X100566412Y44617649D01*
X100469339Y44588202D01*
X100379879Y44540385D01*
X100301467Y44476033D01*
X100237115Y44397621D01*
X100189298Y44308161D01*
X100159851Y44211088D01*
X100149890Y44109946D01*
X100148725Y44108320D01*
X100146735Y44108516D01*
X100145900Y44110142D01*
X100145900Y44184252D01*
X100145910Y44184448D01*
X100154942Y44276153D01*
X100155018Y44276538D01*
X100179979Y44358822D01*
X100180129Y44359184D01*
X100220658Y44435009D01*
X100220876Y44435335D01*
X100275422Y44501801D01*
X100275699Y44502078D01*
X100342165Y44556624D01*
X100342491Y44556842D01*
X100418316Y44597371D01*
X100418678Y44597521D01*
X100500962Y44622482D01*
X100501347Y44622558D01*
X100593052Y44631590D01*
X100593248Y44631600D01*
X100667358Y44631600D01*
X100669090Y44630600D01*
G37*
G36*
X102604748Y44631590D02*
G01*
X102696453Y44622558D01*
X102696838Y44622482D01*
X102779122Y44597521D01*
X102779484Y44597371D01*
X102855309Y44556842D01*
X102855635Y44556624D01*
X102922101Y44502078D01*
X102922378Y44501801D01*
X102976924Y44435335D01*
X102977142Y44435009D01*
X103017671Y44359184D01*
X103017821Y44358822D01*
X103042782Y44276538D01*
X103042858Y44276153D01*
X103051890Y44184448D01*
X103051900Y44184252D01*
X103051900Y44110142D01*
X103050900Y44108410D01*
X103048900Y44108410D01*
X103047910Y44109946D01*
X103037949Y44211088D01*
X103008502Y44308161D01*
X102960685Y44397621D01*
X102896333Y44476033D01*
X102817921Y44540385D01*
X102728461Y44588202D01*
X102631388Y44617649D01*
X102530246Y44627610D01*
X102528620Y44628775D01*
X102528816Y44630765D01*
X102530442Y44631600D01*
X102604552Y44631600D01*
X102604748Y44631590D01*
G37*
M02*
