G04 #@! TF.GenerationSoftware,KiCad,Pcbnew,5.1.9-73d0e3b20d~88~ubuntu20.04.1*
G04 #@! TF.CreationDate,2021-04-29T16:24:05+02:00*
G04 #@! TF.ProjectId,HTL Netzger_t,48544c20-4e65-4747-9a67-6572e4742e6b,V2.2*
G04 #@! TF.SameCoordinates,PX5f5e100PY5f5e100*
G04 #@! TF.FileFunction,Soldermask,Bot*
G04 #@! TF.FilePolarity,Negative*
%FSLAX46Y46*%
G04 Gerber Fmt 4.6, Leading zero omitted, Abs format (unit mm)*
G04 Created by KiCad (PCBNEW 5.1.9-73d0e3b20d~88~ubuntu20.04.1) date 2021-04-29 16:24:05*
%MOMM*%
%LPD*%
G01*
G04 APERTURE LIST*
%ADD10C,3.852000*%
%ADD11O,2.502000X2.502000*%
%ADD12C,2.502000*%
%ADD13C,3.702000*%
%ADD14O,3.702000X3.702000*%
%ADD15C,4.602000*%
%ADD16O,3.102000X3.102000*%
%ADD17O,3.402000X3.402000*%
%ADD18C,3.302000*%
%ADD19C,0.200000*%
G04 APERTURE END LIST*
D10*
X10160000Y27940000D03*
X15240000Y60960000D03*
X55880000Y60960000D03*
X5078900Y5078600D03*
X5078900Y12698600D03*
X5078900Y20318600D03*
X5078900Y27938600D03*
X134618900Y5078600D03*
X134618900Y10158600D03*
X134618900Y15238600D03*
X5078900Y60958600D03*
X5080000Y53340000D03*
X55878900Y5078600D03*
X63498900Y5078600D03*
X71118900Y5078600D03*
X78738900Y5078600D03*
X106678900Y5078600D03*
X111758900Y5078600D03*
D11*
X17780000Y20320000D03*
G36*
G01*
X16580000Y25381000D02*
X18980000Y25381000D01*
G75*
G02*
X19031000Y25330000I0J-51000D01*
G01*
X19031000Y22930000D01*
G75*
G02*
X18980000Y22879000I-51000J0D01*
G01*
X16580000Y22879000D01*
G75*
G02*
X16529000Y22930000I0J51000D01*
G01*
X16529000Y25330000D01*
G75*
G02*
X16580000Y25381000I51000J0D01*
G01*
G37*
X10158900Y44450000D03*
G36*
G01*
X8958900Y49511000D02*
X11358900Y49511000D01*
G75*
G02*
X11409900Y49460000I0J-51000D01*
G01*
X11409900Y47060000D01*
G75*
G02*
X11358900Y47009000I-51000J0D01*
G01*
X8958900Y47009000D01*
G75*
G02*
X8907900Y47060000I0J51000D01*
G01*
X8907900Y49460000D01*
G75*
G02*
X8958900Y49511000I51000J0D01*
G01*
G37*
X21590000Y20320000D03*
G36*
G01*
X20390000Y25381000D02*
X22790000Y25381000D01*
G75*
G02*
X22841000Y25330000I0J-51000D01*
G01*
X22841000Y22930000D01*
G75*
G02*
X22790000Y22879000I-51000J0D01*
G01*
X20390000Y22879000D01*
G75*
G02*
X20339000Y22930000I0J51000D01*
G01*
X20339000Y25330000D01*
G75*
G02*
X20390000Y25381000I51000J0D01*
G01*
G37*
G36*
G01*
X105480000Y62211000D02*
X107880000Y62211000D01*
G75*
G02*
X107931000Y62160000I0J-51000D01*
G01*
X107931000Y59760000D01*
G75*
G02*
X107880000Y59709000I-51000J0D01*
G01*
X105480000Y59709000D01*
G75*
G02*
X105429000Y59760000I0J51000D01*
G01*
X105429000Y62160000D01*
G75*
G02*
X105480000Y62211000I51000J0D01*
G01*
G37*
X106680000Y48260000D03*
G36*
G01*
X130791000Y44380000D02*
X130791000Y41980000D01*
G75*
G02*
X130740000Y41929000I-51000J0D01*
G01*
X128340000Y41929000D01*
G75*
G02*
X128289000Y41980000I0J51000D01*
G01*
X128289000Y44380000D01*
G75*
G02*
X128340000Y44431000I51000J0D01*
G01*
X130740000Y44431000D01*
G75*
G02*
X130791000Y44380000I0J-51000D01*
G01*
G37*
X116840000Y43180000D03*
G36*
G01*
X118180000Y62211000D02*
X120580000Y62211000D01*
G75*
G02*
X120631000Y62160000I0J-51000D01*
G01*
X120631000Y59760000D01*
G75*
G02*
X120580000Y59709000I-51000J0D01*
G01*
X118180000Y59709000D01*
G75*
G02*
X118129000Y59760000I0J51000D01*
G01*
X118129000Y62160000D01*
G75*
G02*
X118180000Y62211000I51000J0D01*
G01*
G37*
X119380000Y48260000D03*
G36*
G01*
X21609000Y29280000D02*
X21609000Y31680000D01*
G75*
G02*
X21660000Y31731000I51000J0D01*
G01*
X24060000Y31731000D01*
G75*
G02*
X24111000Y31680000I0J-51000D01*
G01*
X24111000Y29280000D01*
G75*
G02*
X24060000Y29229000I-51000J0D01*
G01*
X21660000Y29229000D01*
G75*
G02*
X21609000Y29280000I0J51000D01*
G01*
G37*
X35560000Y30480000D03*
G36*
G01*
X44378900Y31767600D02*
X41978900Y31767600D01*
G75*
G02*
X41927900Y31818600I0J51000D01*
G01*
X41927900Y34218600D01*
G75*
G02*
X41978900Y34269600I51000J0D01*
G01*
X44378900Y34269600D01*
G75*
G02*
X44429900Y34218600I0J-51000D01*
G01*
X44429900Y31818600D01*
G75*
G02*
X44378900Y31767600I-51000J0D01*
G01*
G37*
X43178900Y45718600D03*
G36*
G01*
X41978900Y62209600D02*
X44378900Y62209600D01*
G75*
G02*
X44429900Y62158600I0J-51000D01*
G01*
X44429900Y59758600D01*
G75*
G02*
X44378900Y59707600I-51000J0D01*
G01*
X41978900Y59707600D01*
G75*
G02*
X41927900Y59758600I0J51000D01*
G01*
X41927900Y62158600D01*
G75*
G02*
X41978900Y62209600I51000J0D01*
G01*
G37*
X43178900Y48258600D03*
G36*
G01*
X67378900Y44429600D02*
X69778900Y44429600D01*
G75*
G02*
X69829900Y44378600I0J-51000D01*
G01*
X69829900Y41978600D01*
G75*
G02*
X69778900Y41927600I-51000J0D01*
G01*
X67378900Y41927600D01*
G75*
G02*
X67327900Y41978600I0J51000D01*
G01*
X67327900Y44378600D01*
G75*
G02*
X67378900Y44429600I51000J0D01*
G01*
G37*
X68578900Y30478600D03*
G36*
G01*
X59618900Y29227600D02*
X57218900Y29227600D01*
G75*
G02*
X57167900Y29278600I0J51000D01*
G01*
X57167900Y31678600D01*
G75*
G02*
X57218900Y31729600I51000J0D01*
G01*
X59618900Y31729600D01*
G75*
G02*
X59669900Y31678600I0J-51000D01*
G01*
X59669900Y29278600D01*
G75*
G02*
X59618900Y29227600I-51000J0D01*
G01*
G37*
X58418900Y43178600D03*
G36*
G01*
X115587900Y19118600D02*
X115587900Y21518600D01*
G75*
G02*
X115638900Y21569600I51000J0D01*
G01*
X118038900Y21569600D01*
G75*
G02*
X118089900Y21518600I0J-51000D01*
G01*
X118089900Y19118600D01*
G75*
G02*
X118038900Y19067600I-51000J0D01*
G01*
X115638900Y19067600D01*
G75*
G02*
X115587900Y19118600I0J51000D01*
G01*
G37*
D12*
X121838900Y20318600D03*
G36*
G01*
X67327900Y21658600D02*
X67327900Y24058600D01*
G75*
G02*
X67378900Y24109600I51000J0D01*
G01*
X69778900Y24109600D01*
G75*
G02*
X69829900Y24058600I0J-51000D01*
G01*
X69829900Y21658600D01*
G75*
G02*
X69778900Y21607600I-51000J0D01*
G01*
X67378900Y21607600D01*
G75*
G02*
X67327900Y21658600I0J51000D01*
G01*
G37*
X73578900Y22858600D03*
D13*
X19050000Y40640000D03*
X34290000Y35720000D03*
X21790000Y40640000D03*
X34290000Y45720000D03*
X30478900Y12700000D03*
X45718900Y7780000D03*
X33218900Y12700000D03*
X45718900Y17780000D03*
G36*
G01*
X88158900Y13387600D02*
X84558900Y13387600D01*
G75*
G02*
X84507900Y13438600I0J51000D01*
G01*
X84507900Y17038600D01*
G75*
G02*
X84558900Y17089600I51000J0D01*
G01*
X88158900Y17089600D01*
G75*
G02*
X88209900Y17038600I0J-51000D01*
G01*
X88209900Y13438600D01*
G75*
G02*
X88158900Y13387600I-51000J0D01*
G01*
G37*
D14*
X86358900Y50238600D03*
G36*
G01*
X100121658Y45479600D02*
X103076142Y45479600D01*
G75*
G02*
X103899900Y44655842I0J-823758D01*
G01*
X103899900Y41701358D01*
G75*
G02*
X103076142Y40877600I-823758J0D01*
G01*
X100121658Y40877600D01*
G75*
G02*
X99297900Y41701358I0J823758D01*
G01*
X99297900Y44655842D01*
G75*
G02*
X100121658Y45479600I823758J0D01*
G01*
G37*
D15*
X101598900Y35558600D03*
X101598900Y27938600D03*
X101598900Y17778600D03*
G36*
G01*
X115289000Y11200000D02*
X115289000Y14200000D01*
G75*
G02*
X115340000Y14251000I51000J0D01*
G01*
X118340000Y14251000D01*
G75*
G02*
X118391000Y14200000I0J-51000D01*
G01*
X118391000Y11200000D01*
G75*
G02*
X118340000Y11149000I-51000J0D01*
G01*
X115340000Y11149000D01*
G75*
G02*
X115289000Y11200000I0J51000D01*
G01*
G37*
D16*
X121840000Y7700000D03*
X116840000Y7700000D03*
X121840000Y12700000D03*
G36*
G01*
X59407900Y16280000D02*
X59407900Y19280000D01*
G75*
G02*
X59458900Y19331000I51000J0D01*
G01*
X62458900Y19331000D01*
G75*
G02*
X62509900Y19280000I0J-51000D01*
G01*
X62509900Y16280000D01*
G75*
G02*
X62458900Y16229000I-51000J0D01*
G01*
X59458900Y16229000D01*
G75*
G02*
X59407900Y16280000I0J51000D01*
G01*
G37*
X65958900Y12780000D03*
X60958900Y12780000D03*
X65958900Y17780000D03*
D12*
X16510000Y53340000D03*
X13970000Y50800000D03*
X13970000Y55880000D03*
X134618900Y33018600D03*
X134618900Y20318600D03*
X134620000Y48260000D03*
X134620000Y60960000D03*
X127000000Y33018600D03*
X127000000Y20318600D03*
X111760000Y35560000D03*
X111760000Y48260000D03*
X111760000Y33020000D03*
X111760000Y20320000D03*
X73658900Y30478600D03*
X73658900Y43178600D03*
X63498900Y43178600D03*
X63498900Y30478600D03*
X38098900Y48258600D03*
X38098900Y35558600D03*
X20318900Y60958600D03*
X20318900Y48258600D03*
X15238900Y48258600D03*
X15238900Y35558600D03*
X13968900Y22858600D03*
X13968900Y10158600D03*
X10158900Y17778600D03*
X10158900Y5078600D03*
X60960000Y25400000D03*
X35560000Y25400000D03*
D14*
X50798900Y27940000D03*
D13*
X50798900Y60960000D03*
D17*
X129540000Y5080000D03*
G36*
G01*
X127890000Y16941000D02*
X131190000Y16941000D01*
G75*
G02*
X131241000Y16890000I0J-51000D01*
G01*
X131241000Y13590000D01*
G75*
G02*
X131190000Y13539000I-51000J0D01*
G01*
X127890000Y13539000D01*
G75*
G02*
X127839000Y13590000I0J51000D01*
G01*
X127839000Y16890000D01*
G75*
G02*
X127890000Y16941000I51000J0D01*
G01*
G37*
D12*
X27938900Y60958600D03*
X27938900Y55958600D03*
X26750000Y25400000D03*
X31750000Y25400000D03*
X27938900Y53338600D03*
X30478900Y50798600D03*
X25398900Y50798600D03*
X124460000Y35560000D03*
X121920000Y38100000D03*
X127000000Y38100000D03*
X124458900Y55878600D03*
X126998900Y58418600D03*
X126998900Y53338600D03*
X111760000Y55880000D03*
X114300000Y58420000D03*
X114300000Y53340000D03*
X66038900Y50798600D03*
X63498900Y48258600D03*
X63498900Y53338600D03*
X38098900Y58418600D03*
X35558900Y55878600D03*
X35558900Y60958600D03*
X16510000Y27938600D03*
X13970000Y30478600D03*
X19050000Y30478600D03*
X25320000Y12700000D03*
G36*
G01*
X19069000Y11500000D02*
X19069000Y13900000D01*
G75*
G02*
X19120000Y13951000I51000J0D01*
G01*
X21520000Y13951000D01*
G75*
G02*
X21571000Y13900000I0J-51000D01*
G01*
X21571000Y11500000D01*
G75*
G02*
X21520000Y11449000I-51000J0D01*
G01*
X19120000Y11449000D01*
G75*
G02*
X19069000Y11500000I0J51000D01*
G01*
G37*
D18*
X97560000Y6000000D03*
X97560000Y59000000D03*
X5080000Y37720000D03*
D19*
G36*
X112220259Y34404176D02*
G01*
X112221024Y34402328D01*
X112219984Y34400825D01*
X112203963Y34392262D01*
X112185326Y34376967D01*
X112170031Y34358330D01*
X112158666Y34337066D01*
X112151666Y34313991D01*
X112149303Y34290000D01*
X112151666Y34266009D01*
X112158666Y34242934D01*
X112170031Y34221670D01*
X112185326Y34203033D01*
X112203963Y34187738D01*
X112219984Y34179175D01*
X112221040Y34177476D01*
X112220097Y34175713D01*
X112218276Y34175563D01*
X112122564Y34215208D01*
X111882420Y34262976D01*
X111637580Y34262976D01*
X111397436Y34215208D01*
X111301724Y34175563D01*
X111299741Y34175824D01*
X111298976Y34177672D01*
X111300016Y34179175D01*
X111316037Y34187738D01*
X111334674Y34203033D01*
X111349969Y34221670D01*
X111361334Y34242934D01*
X111368334Y34266009D01*
X111370697Y34290000D01*
X111368334Y34313991D01*
X111361334Y34337066D01*
X111349969Y34358330D01*
X111334674Y34376967D01*
X111316037Y34392262D01*
X111300016Y34400825D01*
X111298960Y34402524D01*
X111299903Y34404287D01*
X111301724Y34404437D01*
X111397436Y34364792D01*
X111637580Y34317024D01*
X111882420Y34317024D01*
X112122564Y34364792D01*
X112218276Y34404437D01*
X112220259Y34404176D01*
G37*
G36*
X103901065Y41702984D02*
G01*
X103901900Y41701358D01*
X103901900Y41627248D01*
X103901890Y41627052D01*
X103887011Y41475981D01*
X103886935Y41475596D01*
X103844658Y41336228D01*
X103844508Y41335866D01*
X103775858Y41207431D01*
X103775640Y41207105D01*
X103683250Y41094527D01*
X103682973Y41094250D01*
X103570395Y41001860D01*
X103570069Y41001642D01*
X103441634Y40932992D01*
X103441272Y40932842D01*
X103301904Y40890565D01*
X103301519Y40890489D01*
X103150448Y40875610D01*
X103150252Y40875600D01*
X103076142Y40875600D01*
X103074410Y40876600D01*
X103074410Y40878600D01*
X103075946Y40879590D01*
X103236454Y40895398D01*
X103390612Y40942162D01*
X103532681Y41018099D01*
X103657206Y41120294D01*
X103759401Y41244819D01*
X103835338Y41386888D01*
X103882102Y41541046D01*
X103897910Y41701554D01*
X103899075Y41703180D01*
X103901065Y41702984D01*
G37*
G36*
X99299890Y41701554D02*
G01*
X99315698Y41541046D01*
X99362462Y41386888D01*
X99438399Y41244819D01*
X99540594Y41120294D01*
X99665119Y41018099D01*
X99807188Y40942162D01*
X99961346Y40895398D01*
X100121854Y40879590D01*
X100123480Y40878425D01*
X100123284Y40876435D01*
X100121658Y40875600D01*
X100047548Y40875600D01*
X100047352Y40875610D01*
X99896281Y40890489D01*
X99895896Y40890565D01*
X99756528Y40932842D01*
X99756166Y40932992D01*
X99627731Y41001642D01*
X99627405Y41001860D01*
X99514827Y41094250D01*
X99514550Y41094527D01*
X99422160Y41207105D01*
X99421942Y41207431D01*
X99353292Y41335866D01*
X99353142Y41336228D01*
X99310865Y41475596D01*
X99310789Y41475981D01*
X99295910Y41627052D01*
X99295900Y41627248D01*
X99295900Y41701358D01*
X99296900Y41703090D01*
X99298900Y41703090D01*
X99299890Y41701554D01*
G37*
G36*
X100123390Y45480600D02*
G01*
X100123390Y45478600D01*
X100121854Y45477610D01*
X99961346Y45461802D01*
X99807188Y45415038D01*
X99665119Y45339101D01*
X99540594Y45236906D01*
X99438399Y45112381D01*
X99362462Y44970312D01*
X99315698Y44816154D01*
X99299890Y44655646D01*
X99298725Y44654020D01*
X99296735Y44654216D01*
X99295900Y44655842D01*
X99295900Y44729952D01*
X99295910Y44730148D01*
X99310789Y44881219D01*
X99310865Y44881604D01*
X99353142Y45020972D01*
X99353292Y45021334D01*
X99421942Y45149769D01*
X99422160Y45150095D01*
X99514550Y45262673D01*
X99514827Y45262950D01*
X99627405Y45355340D01*
X99627731Y45355558D01*
X99756166Y45424208D01*
X99756528Y45424358D01*
X99895896Y45466635D01*
X99896281Y45466711D01*
X100047352Y45481590D01*
X100047548Y45481600D01*
X100121658Y45481600D01*
X100123390Y45480600D01*
G37*
G36*
X103150448Y45481590D02*
G01*
X103301519Y45466711D01*
X103301904Y45466635D01*
X103441272Y45424358D01*
X103441634Y45424208D01*
X103570069Y45355558D01*
X103570395Y45355340D01*
X103682973Y45262950D01*
X103683250Y45262673D01*
X103775640Y45150095D01*
X103775858Y45149769D01*
X103844508Y45021334D01*
X103844658Y45020972D01*
X103886935Y44881604D01*
X103887011Y44881219D01*
X103901890Y44730148D01*
X103901900Y44729952D01*
X103901900Y44655842D01*
X103900900Y44654110D01*
X103898900Y44654110D01*
X103897910Y44655646D01*
X103882102Y44816154D01*
X103835338Y44970312D01*
X103759401Y45112381D01*
X103657206Y45236906D01*
X103532681Y45339101D01*
X103390612Y45415038D01*
X103236454Y45461802D01*
X103075946Y45477610D01*
X103074320Y45478775D01*
X103074516Y45480765D01*
X103076142Y45481600D01*
X103150252Y45481600D01*
X103150448Y45481590D01*
G37*
G36*
X43639159Y47102776D02*
G01*
X43639924Y47100928D01*
X43638884Y47099425D01*
X43622863Y47090862D01*
X43604226Y47075567D01*
X43588931Y47056930D01*
X43577566Y47035666D01*
X43570566Y47012591D01*
X43568203Y46988600D01*
X43570566Y46964609D01*
X43577566Y46941534D01*
X43588931Y46920270D01*
X43604226Y46901633D01*
X43622863Y46886338D01*
X43638884Y46877775D01*
X43639940Y46876076D01*
X43638997Y46874313D01*
X43637176Y46874163D01*
X43541464Y46913808D01*
X43301320Y46961576D01*
X43056480Y46961576D01*
X42816336Y46913808D01*
X42720624Y46874163D01*
X42718641Y46874424D01*
X42717876Y46876272D01*
X42718916Y46877775D01*
X42734937Y46886338D01*
X42753574Y46901633D01*
X42768869Y46920270D01*
X42780234Y46941534D01*
X42787234Y46964609D01*
X42789597Y46988600D01*
X42787234Y47012591D01*
X42780234Y47035666D01*
X42768869Y47056930D01*
X42753574Y47075567D01*
X42734937Y47090862D01*
X42718916Y47099425D01*
X42717860Y47101124D01*
X42718803Y47102887D01*
X42720624Y47103037D01*
X42816336Y47063392D01*
X43056480Y47015624D01*
X43301320Y47015624D01*
X43541464Y47063392D01*
X43637176Y47103037D01*
X43639159Y47102776D01*
G37*
G36*
X28303311Y54762739D02*
G01*
X28303701Y54760777D01*
X28302750Y54759656D01*
X28286295Y54750862D01*
X28267658Y54735567D01*
X28252363Y54716930D01*
X28240998Y54695666D01*
X28233998Y54672591D01*
X28231635Y54648600D01*
X28233998Y54624609D01*
X28240998Y54601534D01*
X28252363Y54580270D01*
X28267658Y54561633D01*
X28286295Y54546338D01*
X28302750Y54537544D01*
X28303806Y54535846D01*
X28302863Y54534082D01*
X28301417Y54533818D01*
X28061320Y54581576D01*
X27816480Y54581576D01*
X27576383Y54533818D01*
X27574489Y54534461D01*
X27574099Y54536423D01*
X27575050Y54537544D01*
X27591505Y54546338D01*
X27610142Y54561633D01*
X27625437Y54580270D01*
X27636802Y54601534D01*
X27643802Y54624609D01*
X27646165Y54648600D01*
X27643802Y54672591D01*
X27636802Y54695666D01*
X27625437Y54716930D01*
X27610142Y54735567D01*
X27591505Y54750862D01*
X27575050Y54759656D01*
X27573994Y54761354D01*
X27574937Y54763118D01*
X27576383Y54763382D01*
X27816480Y54715624D01*
X28061320Y54715624D01*
X28301417Y54763382D01*
X28303311Y54762739D01*
G37*
M02*
